<svg width="13" height="13" viewBox="0 0 13 13" fill="none" xmlns="http://www.w3.org/2000/svg">
<path d="M8.77074 5.00943C8.90295 5.14164 8.90295 5.356 8.77074 5.4882L6.73949 7.51945C6.60729 7.65166 6.39293 7.65166 6.26072 7.51945L6.25791 7.51661L4.90656 6.16525C4.77435 6.03305 4.77435 5.81869 4.90656 5.68648C5.03877 5.55428 5.25312 5.55428 5.38533 5.68648L6.50013 6.80128L8.29197 5.00943C8.42418 4.87723 8.63854 4.87723 8.77074 5.00943Z" fill="#1F1F1F"/>
<path fill-rule="evenodd" clip-rule="evenodd" d="M5.5251 2.38069C5.5251 1.98282 5.84764 1.66028 6.24552 1.66028H6.75468C7.15256 1.66028 7.4751 1.98282 7.4751 2.38069V2.92326C7.92046 3.02743 8.33898 3.2014 8.71847 3.43301L9.09839 3.05309C9.37973 2.77175 9.83587 2.77175 10.1172 3.05309L10.4772 3.41312C10.7586 3.69446 10.7586 4.1506 10.4772 4.43194L10.1079 4.80127C10.5237 5.4595 10.7644 6.23943 10.7644 7.07556C10.7644 9.43065 8.8552 11.3398 6.50011 11.3398C4.14502 11.3398 2.23584 9.43065 2.23584 7.07556C2.23584 5.05593 3.63987 3.36422 5.5251 2.92327V2.38069ZM9.69757 4.25408L9.99848 3.95317C10.0154 3.93625 10.0154 3.90881 9.99848 3.89189L9.63844 3.53186C9.62152 3.51493 9.59408 3.51493 9.57716 3.53186L9.27309 3.83592C9.4241 3.9653 9.56596 4.10506 9.69757 4.25408ZM6.79802 2.38069V2.82153C6.6996 2.81474 6.60026 2.81129 6.50011 2.81129C6.39996 2.81129 6.30061 2.81474 6.20218 2.82153V2.38069C6.20218 2.35676 6.22158 2.33736 6.24552 2.33736H6.75468C6.77861 2.33736 6.79802 2.35676 6.79802 2.38069ZM6.50011 10.6627C8.48126 10.6627 10.0873 9.05671 10.0873 7.07556C10.0873 5.09441 8.48126 3.48837 6.50011 3.48837C4.51896 3.48837 2.91292 5.09441 2.91292 7.07556C2.91292 9.05671 4.51896 10.6627 6.50011 10.6627Z" fill="#1F1F1F"/>
</svg>
