<svg width="13" height="13" viewBox="0 0 13 13" fill="none" xmlns="http://www.w3.org/2000/svg">
<path fill-rule="evenodd" clip-rule="evenodd" d="M11.1473 6.25731C11.3588 6.04577 11.3588 5.70281 11.1473 5.49127L10.0486 4.39264L10.4738 3.96838C10.6858 3.75691 10.686 3.41361 10.4743 3.20191L9.75451 2.48214C9.54315 2.27078 9.20052 2.27058 8.98892 2.48171L8.56282 2.90684L7.5086 1.85262C7.29707 1.64109 6.9541 1.64109 6.74257 1.85262L5.53977 3.05542C5.32823 3.26695 5.32823 3.60992 5.53977 3.82145L6.59351 4.8752L4.87495 6.59377L3.8212 5.54002C3.60967 5.32848 3.2667 5.32848 3.05517 5.54002L1.8525 6.74269C1.64096 6.95422 1.64096 7.29719 1.8525 7.50872L2.89882 8.55505L2.41742 9.03536C2.20548 9.24682 2.20529 9.59012 2.41699 9.80182L3.13676 10.5216C3.34812 10.733 3.69075 10.7331 3.90235 10.522L4.38462 10.0408L5.49115 11.1474C5.70269 11.3589 6.04565 11.3589 6.25718 11.1474L7.45985 9.9447C7.67139 9.73317 7.67139 9.3902 7.45985 9.17867L6.36074 8.07956L8.07931 6.36099L9.17842 7.4601C9.38995 7.67164 9.73292 7.67164 9.94445 7.46011L11.1473 6.25731ZM10.5727 5.87429L7.12558 2.42714L6.11429 3.43844L9.56144 6.88558L10.5727 5.87429ZM3.90585 9.56208L3.37759 9.03382L2.99162 9.41892L3.51988 9.94718L3.90585 9.56208ZM9.89965 3.58482L9.56985 3.91387L9.04159 3.38561L9.37139 3.05656L9.89965 3.58482ZM5.35372 7.07254L7.07228 5.35397L7.60054 5.88222L5.88197 7.60079L5.35372 7.07254ZM5.87417 10.5728L2.42702 7.1257L3.43818 6.11454L6.88533 9.56169L5.87417 10.5728Z" fill="#1F1F1F"/>
</svg>
