<svg width="40" height="39" viewBox="0 0 40 39" fill="none" xmlns="http://www.w3.org/2000/svg">
<path d="M25.3948 36.8482C16.5929 36.8482 7.13204 29.5492 3.9179 20.401C0.646608 11.0948 4.8929 2.87117 13.7788 2.19539C23.0145 1.49272 33.4167 9.17169 36.6107 19.194C39.7307 29.0213 34.543 36.8482 25.3948 36.8482Z" fill="url(#paint0_linear_2001_1539)"/>
<path d="M27.0052 19.2848C27.4661 18.0581 27.4946 16.7107 27.0859 15.4655C26.1479 12.6986 23.3674 11.2562 20.55 11.7942C17.8301 12.3052 15.0295 13.8383 13.5502 16.2388C13.3302 16.5941 13.1434 16.9689 12.9921 17.3584C12.4262 18.4276 12.1908 19.6409 12.3159 20.8441C12.441 22.0473 12.921 23.1862 13.6948 24.1161C16.0011 26.8495 19.9516 26.5604 22.8564 24.997C22.8836 24.9825 22.9095 24.9657 22.9337 24.9466L25.4317 25.6492C25.4719 25.6635 25.5137 25.6726 25.5561 25.6761C25.7007 25.6963 25.9327 25.6761 25.9932 25.5551C26.005 25.5197 26.0091 25.4821 26.005 25.4449C26.0009 25.4078 25.9889 25.372 25.9697 25.3399C25.6873 24.7415 25.2603 24.022 25.109 23.706C25.0922 23.669 25.0249 23.5446 24.9342 23.3698C24.8904 23.2857 24.8131 23.1781 24.7492 23.0705L24.7896 23.0369C25.79 21.9606 26.5458 20.6807 27.0052 19.2848ZM25.694 15.2773C26.1825 16.4004 26.2412 17.664 25.8587 18.8276C25.4654 20.0581 24.7997 21.4635 23.8751 22.3679C23.8265 22.4037 23.7863 22.4497 23.7574 22.5026C23.7285 22.5556 23.7115 22.6143 23.7076 22.6745C23.7038 22.7347 23.7132 22.7951 23.7351 22.8513C23.7571 22.9075 23.7911 22.9583 23.8348 22.9999C24.1396 23.511 24.4366 24.0254 24.7257 24.5431C24.734 24.5564 24.7378 24.5719 24.7367 24.5876C24.7356 24.6032 24.7296 24.618 24.7195 24.63C24.7094 24.6419 24.6958 24.6504 24.6806 24.6541C24.6654 24.6578 24.6494 24.6566 24.6349 24.6507L22.5807 23.8472C22.489 23.8103 22.3866 23.8103 22.2949 23.8472C22.2375 23.8539 22.181 23.8674 22.1268 23.8875C19.928 24.7516 17.2518 25.0542 15.3119 23.4269C13.5367 21.9375 13.3854 19.305 14.3302 17.318C16.1323 13.5256 23.4313 10.1501 25.694 15.2773Z" fill="white"/>
<path d="M16.213 20.2598L16.9191 21.3558C16.9343 21.3805 16.9545 21.4017 16.9784 21.4181C17.0023 21.4345 17.0293 21.4458 17.0578 21.4512C17.0862 21.4566 17.1155 21.4559 17.1437 21.4494C17.172 21.4428 17.1985 21.4304 17.2217 21.413C17.7372 21.0342 18.2706 20.6577 18.822 20.2833C18.8543 20.2598 18.8926 20.2459 18.9325 20.2433C18.9723 20.2406 19.0121 20.2492 19.0473 20.2682C19.0825 20.2872 19.1115 20.3157 19.1312 20.3505C19.1508 20.3853 19.1602 20.425 19.1582 20.4649C19.1582 21.1373 19.1414 21.7996 19.1078 22.4519C19.1064 22.4804 19.1109 22.5088 19.1209 22.5355C19.131 22.5622 19.1465 22.5866 19.1663 22.6071C19.1862 22.6276 19.21 22.6437 19.2364 22.6546C19.2628 22.6655 19.2911 22.6709 19.3196 22.6704H20.6207C20.65 22.6709 20.679 22.6654 20.7061 22.6541C20.7331 22.6428 20.7575 22.6261 20.7777 22.6049C20.7979 22.5838 20.8135 22.5586 20.8235 22.5311C20.8335 22.5036 20.8378 22.4744 20.8359 22.4452C20.7955 21.7996 20.7687 21.1306 20.7485 20.4279C20.7472 20.3882 20.7569 20.3489 20.7765 20.3144C20.7962 20.2798 20.825 20.2514 20.8598 20.2323C20.8947 20.2131 20.9341 20.204 20.9738 20.2059C21.0135 20.2078 21.0518 20.2206 21.0847 20.243C21.663 20.6128 22.2311 20.986 22.7825 21.3525C22.8063 21.3681 22.833 21.3788 22.8609 21.3841C22.8889 21.3893 22.9176 21.3889 22.9455 21.383C22.9733 21.3771 22.9997 21.3657 23.0231 21.3494C23.0465 21.3332 23.0664 21.3126 23.0818 21.2886L23.7542 20.1791C23.7697 20.1547 23.78 20.1273 23.7845 20.0986C23.789 20.07 23.7876 20.0408 23.7803 20.0128C23.7731 19.9847 23.7602 19.9585 23.7424 19.9356C23.7246 19.9127 23.7023 19.8938 23.6768 19.8799C23.0347 19.5437 22.3791 19.1671 21.7067 18.7738C21.6754 18.7545 21.6495 18.7276 21.6316 18.6955C21.6137 18.6634 21.6043 18.6273 21.6043 18.5905C21.6043 18.5538 21.6137 18.5177 21.6316 18.4856C21.6495 18.4535 21.6754 18.4266 21.7067 18.4073C22.3791 18.0039 23.0212 17.6239 23.6567 17.2676C23.6816 17.2527 23.7033 17.2331 23.7205 17.2097C23.7377 17.1864 23.7501 17.1599 23.757 17.1318C23.7639 17.1036 23.7651 17.0744 23.7606 17.0457C23.7561 17.0171 23.7459 16.9896 23.7306 16.965L23.0246 15.8689C23.0093 15.8449 22.9893 15.8242 22.9658 15.808C22.9423 15.7919 22.9158 15.7807 22.8879 15.775C22.8599 15.7694 22.8311 15.7694 22.8032 15.7752C22.7753 15.7809 22.7488 15.7922 22.7254 15.8084C22.1897 16.1805 21.6417 16.5537 21.0813 16.928C21.0485 16.9504 21.0101 16.9632 20.9704 16.9651C20.9307 16.967 20.8913 16.9579 20.8565 16.9387C20.8217 16.9196 20.7928 16.8912 20.7732 16.8566C20.7535 16.8221 20.7438 16.7828 20.7451 16.7431C20.7653 16.0707 20.7955 15.4184 20.8325 14.783C20.8339 14.7539 20.8293 14.7248 20.8191 14.6976C20.8089 14.6703 20.7933 14.6453 20.7732 14.6243C20.7531 14.6032 20.7289 14.5865 20.7021 14.575C20.6753 14.5636 20.6465 14.5577 20.6174 14.5577H19.3196C19.2909 14.5577 19.2625 14.5635 19.2361 14.5748C19.2098 14.586 19.186 14.6026 19.1661 14.6233C19.1463 14.644 19.131 14.6686 19.1209 14.6955C19.1109 14.7224 19.1064 14.751 19.1078 14.7796C19.1302 15.452 19.1481 16.1245 19.1616 16.7969C19.1623 16.8363 19.1521 16.8752 19.1322 16.9092C19.1123 16.9432 19.0834 16.9711 19.0487 16.9899C19.014 17.0086 18.9748 17.0175 18.9354 17.0154C18.896 17.0134 18.858 17.0006 18.8254 16.9784C18.2538 16.6019 17.6991 16.2287 17.1679 15.8555C17.1441 15.8389 17.1172 15.8273 17.0888 15.8215C17.0604 15.8157 17.0311 15.8158 17.0027 15.8218C16.9744 15.8278 16.9475 15.8396 16.9239 15.8563C16.9002 15.8731 16.8803 15.8946 16.8653 15.9194L16.1929 17.0289C16.1784 17.0533 16.1689 17.0804 16.1649 17.1086C16.161 17.1367 16.1626 17.1654 16.1698 17.1929C16.177 17.2204 16.1896 17.2462 16.2068 17.2689C16.2241 17.2915 16.2456 17.3105 16.2702 17.3247C16.8955 17.6609 17.531 18.0476 18.1698 18.4308C18.2081 18.4492 18.2402 18.4784 18.2619 18.5149C18.2836 18.5514 18.2941 18.5935 18.2919 18.6359C18.2898 18.6784 18.2751 18.7192 18.2498 18.7533C18.2244 18.7874 18.1896 18.8132 18.1496 18.8276C17.5175 19.2209 16.8888 19.6008 16.2702 19.9639C16.2238 19.996 16.1919 20.0449 16.1812 20.1002C16.1705 20.1555 16.1819 20.2128 16.213 20.2598Z" fill="white"/>
<defs>
<linearGradient id="paint0_linear_2001_1539" x1="37.5206" y1="2.15112" x2="0.832113" y2="2.9012" gradientUnits="userSpaceOnUse">
<stop stop-color="#FAC889"/>
<stop offset="1" stop-color="#FF2155"/>
</linearGradient>
</defs>
</svg>
