<svg width="39" height="39" viewBox="0 0 39 39" fill="none" xmlns="http://www.w3.org/2000/svg">
<path d="M36.9021 18.125C37.1491 18.2598 37.3551 18.4586 37.4987 18.7006C37.6423 18.9426 37.718 19.2187 37.718 19.5001C37.718 19.7814 37.6423 20.0576 37.4987 20.2995C37.3551 20.5415 37.1491 20.7403 36.9021 20.8751C30.1367 24.5744 24.5744 30.1367 20.8751 36.9021C20.7403 37.1491 20.5415 37.3551 20.2995 37.4987C20.0576 37.6423 19.7814 37.718 19.5001 37.718C19.2187 37.718 18.9426 37.6423 18.7006 37.4987C18.4586 37.3551 18.2598 37.1491 18.125 36.9021C14.4257 30.1367 8.86341 24.5744 2.09799 20.8751C1.85106 20.7403 1.64499 20.5415 1.50143 20.2995C1.35786 20.0576 1.2821 19.7814 1.2821 19.5001C1.2821 19.2187 1.35786 18.9426 1.50143 18.7006C1.64499 18.4586 1.85106 18.2598 2.09799 18.125C8.86341 14.4257 14.4257 8.86341 18.125 2.09799C18.2598 1.85106 18.4586 1.64499 18.7006 1.50143C18.9426 1.35786 19.2187 1.2821 19.5001 1.2821C19.7814 1.2821 20.0576 1.35786 20.2995 1.50143C20.5415 1.64499 20.7403 1.85106 20.8751 2.09799C24.5744 8.86341 30.1367 14.4257 36.9021 18.125Z" fill="url(#paint0_linear_2001_1069)"/>
<path d="M22.378 13.3038C21.7997 12.0834 19.5875 12.1136 18.9958 12.1237C18.283 12.1237 16.5347 12.1607 16.0943 13.1323C16.0061 13.3377 15.9737 13.5627 16.0002 13.7846V14.8806C16.0002 14.9698 16.0356 15.0553 16.0986 15.1183C16.1617 15.1814 16.2472 15.2168 16.3364 15.2168H18.8949C18.9564 15.2168 19.0154 15.2413 19.059 15.2848C19.1025 15.3283 19.1269 15.3873 19.1269 15.4488V15.6976C19.1269 15.7591 19.1025 15.8181 19.059 15.8616C19.0154 15.9051 18.9564 15.9296 18.8949 15.9296H14.5242C14.1415 15.934 13.7685 16.0509 13.4517 16.2658C13.1262 16.5197 12.8819 16.8633 12.7491 17.2542C12.5042 17.905 12.4066 18.602 12.4633 19.295C12.416 20.0716 12.5579 20.848 12.8768 21.5577C13.0246 21.9164 13.2824 22.2189 13.6131 22.4217C13.8996 22.5498 14.2105 22.614 14.5242 22.61H15.2202C15.2672 22.6124 15.3142 22.6049 15.3581 22.5881C15.402 22.5712 15.4419 22.5453 15.4752 22.512C15.5084 22.4787 15.5344 22.4388 15.5512 22.3949C15.5681 22.351 15.5756 22.304 15.5732 22.257C15.5732 21.9208 15.5732 21.3828 15.5732 21.0702C15.5858 20.5568 15.7884 20.0663 16.1418 19.6937C16.4952 19.321 16.9742 19.0927 17.4862 19.0529H19.2446H20.8449C21.2844 19.0486 21.7046 18.8723 22.0157 18.5619C22.3268 18.2514 22.5039 17.8315 22.5091 17.3921V15.2168V13.7846C22.4944 13.6178 22.45 13.455 22.378 13.3038ZM17.4257 14.3763C17.302 14.3763 17.1811 14.3396 17.0783 14.2709C16.9754 14.2022 16.8953 14.1045 16.8479 13.9903C16.8006 13.876 16.7882 13.7503 16.8124 13.629C16.8365 13.5076 16.8961 13.3962 16.9835 13.3088C17.071 13.2213 17.1824 13.1618 17.3037 13.1376C17.425 13.1135 17.5507 13.1259 17.665 13.1732C17.7793 13.2205 17.8769 13.3007 17.9456 13.4035C18.0144 13.5064 18.051 13.6273 18.051 13.751C18.051 13.9168 17.9852 14.0759 17.8679 14.1931C17.7506 14.3104 17.5915 14.3763 17.4257 14.3763Z" fill="white"/>
<path d="M16.6222 25.6964C17.2005 26.9168 19.4127 26.8866 20.0045 26.8765C20.7172 26.8765 22.4655 26.8395 22.9059 25.8679C22.9895 25.6707 23.0219 25.4556 23.0001 25.2425V24.1364C23.0023 24.0909 22.9953 24.0453 22.9795 24.0026C22.9636 23.9598 22.9392 23.9207 22.9077 23.8877C22.8763 23.8547 22.8384 23.8284 22.7965 23.8105C22.7546 23.7925 22.7095 23.7833 22.6638 23.7834H20.1053C20.0438 23.7834 19.9848 23.7589 19.9413 23.7154C19.8978 23.6719 19.8733 23.6129 19.8733 23.5514V23.3026C19.8733 23.2411 19.8978 23.1821 19.9413 23.1386C19.9848 23.0951 20.0438 23.0706 20.1053 23.0706H24.476C24.8588 23.0662 25.2317 22.9493 25.5485 22.7344C25.8741 22.4805 26.1183 22.1369 26.2512 21.746C26.496 21.0952 26.5936 20.3982 26.537 19.7052C26.5842 18.9286 26.4423 18.1522 26.1234 17.4425C25.9756 17.0838 25.7178 16.7813 25.3871 16.5785C25.1006 16.4504 24.7898 16.3862 24.476 16.3902H23.7834C23.6942 16.3902 23.6087 16.4256 23.5457 16.4887C23.4826 16.5517 23.4472 16.6372 23.4472 16.7264C23.4472 17.0626 23.4472 17.6005 23.4472 17.9132C23.4346 18.4266 23.232 18.9171 22.8786 19.2897C22.5252 19.6623 22.0462 19.8907 21.5342 19.9304H19.7758H18.1553C17.7159 19.9348 17.2956 20.1111 16.9845 20.4215C16.6735 20.732 16.4963 21.1519 16.4911 21.5913V23.7699V25.219C16.5062 25.3846 16.5506 25.5463 16.6222 25.6964ZM21.5745 24.6239C21.6982 24.6239 21.8191 24.6606 21.922 24.7293C22.0248 24.798 22.1049 24.8957 22.1523 25.0099C22.1996 25.1242 22.212 25.2499 22.1879 25.3712C22.1637 25.4925 22.1042 25.604 22.0167 25.6914C21.9293 25.7789 21.8178 25.8384 21.6965 25.8626C21.5752 25.8867 21.4495 25.8743 21.3352 25.827C21.221 25.7797 21.1233 25.6995 21.0546 25.5967C20.9859 25.4938 20.9492 25.3729 20.9492 25.2492C20.9492 25.0834 21.0151 24.9243 21.1324 24.8071C21.2496 24.6898 21.4087 24.6239 21.5745 24.6239Z" fill="white"/>
<defs>
<linearGradient id="paint0_linear_2001_1069" x1="37.718" y1="1.28249" x2="-0.803646" y2="2.06994" gradientUnits="userSpaceOnUse">
<stop stop-color="#00EEA7"/>
<stop offset="1" stop-color="#027163"/>
</linearGradient>
</defs>
</svg>
