<svg width="40" height="39" viewBox="0 0 40 39" fill="none" xmlns="http://www.w3.org/2000/svg">
<path d="M34.3765 5.04471C31.7843 2.45256 26.0553 3.7335 20.044 7.76799C14.0326 3.7335 8.30362 2.45256 5.71146 5.04471C3.1193 7.63687 4.40025 13.3658 8.43474 19.3772C4.40025 25.3886 3.1193 31.1176 5.71146 33.7097C8.30362 36.3019 14.0326 35.0209 20.044 30.9864C26.0553 35.0209 31.7843 36.3019 34.3765 33.7097C36.9686 31.1176 35.6877 25.3886 31.6532 19.3772C35.6877 13.3658 36.9686 7.63687 34.3765 5.04471Z" fill="url(#paint0_linear_2001_1160)"/>
<path d="M24.6735 17.9417C24.0634 17.5869 23.4989 17.159 22.9924 16.6675C22.1721 15.8707 21.2408 14.9629 21.261 13.5139C21.261 13.4365 21.261 13.3592 21.261 13.2785C20.8327 13.1568 20.3914 13.0869 19.9464 13.0701C18.4885 13.08 17.0869 13.6339 16.0162 14.6233C14.13 16.4355 14.3553 18.9066 14.5705 21.2668C14.6848 22.4906 14.9403 23.0083 15.337 23.1933C15.8682 23.4421 17.1223 23.321 17.3778 23.5799C17.3932 23.595 17.4068 23.6119 17.4181 23.6303C17.5201 23.7857 17.5781 23.9658 17.5862 24.1514C17.6008 24.7287 17.6661 25.3036 17.7812 25.8695C17.8317 25.8695 17.7274 25.0895 18.1679 24.7163C18.3805 24.5586 18.6409 24.4789 18.9054 24.4905C19.1699 24.5021 19.4223 24.6044 19.6203 24.7802C19.9834 25.1769 19.7817 25.93 19.8355 25.9333C19.8893 25.9367 19.8355 25.0088 20.3263 24.6524C20.5207 24.5331 20.7481 24.4789 20.9755 24.4976C21.2028 24.5163 21.4182 24.6071 21.5905 24.7566C22.0141 25.1735 21.8191 25.9972 21.8695 26.0006C21.92 26.0039 21.9603 25.3282 22.1519 24.4608C22.2629 23.9665 22.3167 23.711 22.4444 23.5799C22.9487 23.0655 23.7893 23.6001 24.4818 23.1933C24.9424 22.9176 25.1206 22.3191 25.2114 21.3643C25.3387 20.3711 25.3926 19.3698 25.3728 18.3687L24.6735 17.9417ZM18.6789 20.944C18.4705 21.0348 18.2587 21.1121 18.0502 21.1928C17.8107 21.2963 17.5782 21.4154 17.3543 21.5492C17.1135 21.7135 16.8344 21.8131 16.544 21.8383C15.7606 21.872 15.1555 21.1121 15.0075 20.4061C14.9599 20.2081 14.9407 20.0043 14.9504 19.8009C14.9703 19.5226 15.041 19.2503 15.1588 18.9974C15.2488 18.8091 15.3731 18.6392 15.5253 18.4964C15.6665 18.3593 15.8288 18.2458 16.0061 18.1602C16.2176 18.0559 16.4447 17.9867 16.6785 17.9552C16.9215 17.9238 17.168 17.9329 17.4081 17.9821C17.7787 18.0643 18.1245 18.2338 18.4167 18.4763C18.7273 18.6814 18.989 18.9522 19.1832 19.2697C19.3429 19.5549 19.3897 19.8897 19.3143 20.2077C19.276 20.3318 19.2118 20.4464 19.1261 20.5439C19.0169 20.7161 18.8621 20.8546 18.6789 20.944ZM20.908 22.8571C20.6627 23.0733 20.3426 23.1852 20.0161 23.1688C19.6895 23.1525 19.3822 23.0093 19.1597 22.7696C18.8874 22.3998 18.9815 21.8182 19.2437 20.9575C19.4354 20.3422 19.7279 20.2111 20.0843 20.1842C20.5045 20.1506 20.7735 20.5204 20.8945 20.9171C21.1433 21.7308 21.3148 22.457 20.908 22.8571ZM24.6937 21.0987C24.4851 21.4433 24.1534 21.6957 23.7657 21.8047C23.3971 21.875 23.0156 21.7977 22.7033 21.5896C22.4556 21.4397 22.1984 21.306 21.9334 21.1895C21.7249 21.1088 21.5131 21.0348 21.3081 20.944C21.1305 20.8579 20.9795 20.7255 20.871 20.5608C20.78 20.4587 20.7144 20.3366 20.6793 20.2044C20.6275 19.9317 20.653 19.6499 20.7528 19.3909C20.8526 19.1319 21.0228 18.9059 21.2442 18.7385C21.5698 18.435 21.9496 18.1955 22.3637 18.0325C22.5644 17.9658 22.7743 17.9306 22.9857 17.9283C23.1923 17.9209 23.3988 17.9458 23.5976 18.0022C23.7922 18.0527 23.9773 18.1345 24.1456 18.2443C24.3694 18.393 24.5632 18.5823 24.7172 18.8024C24.8407 18.9754 24.9298 19.1706 24.9794 19.3773C25.0327 19.5755 25.0543 19.7809 25.0433 19.9858C25.0267 20.3811 24.906 20.7649 24.6937 21.0987Z" fill="white"/>
<path d="M24.8786 17.592C24.0223 17.0749 23.2502 16.4297 22.589 15.679C22.2792 15.3663 22.0388 14.9918 21.8835 14.5799C21.7283 14.168 21.6616 13.728 21.688 13.2886C21.6886 13.1984 21.6596 13.1105 21.6056 13.0382C21.5516 12.966 21.4755 12.9134 21.3888 12.8885C20.077 12.5368 18.6838 12.6508 17.4467 13.2111C16.2095 13.7715 15.205 14.7434 14.6041 15.9614C13.9317 17.4912 14.0023 19.189 14.1469 20.8196C14.2108 21.5492 14.2309 22.3931 14.6243 23.0386C14.9605 23.6 15.5455 23.711 16.154 23.7614C16.4506 23.7718 16.7461 23.8033 17.0383 23.8556C17.0719 23.8556 17.1089 23.8724 17.1425 23.8858C17.1156 23.8858 17.092 23.8455 17.1425 23.8858C17.1929 23.9262 17.1223 23.869 17.1223 23.869C17.1417 23.8989 17.1586 23.9304 17.1727 23.9631C17.2092 24.0818 17.2262 24.2055 17.2232 24.3296C17.2433 24.6456 17.2702 24.9617 17.3039 25.2744C17.3035 25.5435 17.3537 25.8104 17.4518 26.0611C17.4784 26.1091 17.5143 26.1513 17.5573 26.1854C17.6003 26.2195 17.6496 26.2448 17.7024 26.2597C17.7552 26.2747 17.8104 26.2792 17.8649 26.2728C17.9194 26.2664 17.9721 26.2493 18.02 26.2225C18.0892 26.1779 18.1454 26.1159 18.1832 26.0427C18.221 25.9696 18.2389 25.8878 18.2351 25.8056C18.2288 25.5824 18.2724 25.3607 18.3629 25.1567C18.4328 25.0545 18.5314 24.9753 18.6464 24.9292C18.7613 24.8831 18.8873 24.8722 19.0084 24.8978C19.1287 24.9019 19.243 24.9513 19.3284 25.0361C19.4138 25.1209 19.464 25.2348 19.469 25.355C19.4959 25.6005 19.3883 25.9131 19.5195 26.135C19.5536 26.1918 19.601 26.2394 19.6576 26.2738C19.7141 26.3082 19.7782 26.3285 19.8442 26.3328C19.9103 26.3371 19.9764 26.3253 20.037 26.2985C20.0975 26.2717 20.1507 26.2306 20.1919 26.1788C20.263 26.0709 20.3015 25.9448 20.3028 25.8156C20.314 25.591 20.3653 25.3701 20.4541 25.1634C20.5136 25.0529 20.611 24.9676 20.7283 24.9231C20.8457 24.8786 20.9751 24.878 21.0929 24.9213C21.2028 24.9541 21.2995 25.0209 21.369 25.1121C21.4385 25.2034 21.4772 25.3143 21.4795 25.429C21.4589 25.6527 21.4589 25.8778 21.4795 26.1014C21.4976 26.1614 21.529 26.2165 21.5713 26.2627C21.6136 26.3088 21.6657 26.3449 21.7239 26.3681C21.782 26.3914 21.8446 26.4013 21.9071 26.397C21.9696 26.3927 22.0303 26.3744 22.0847 26.3435C22.1454 26.3033 22.1964 26.2502 22.2342 26.1881C22.272 26.1259 22.2956 26.0561 22.3033 25.9838C22.3671 25.6475 22.4041 25.2912 22.4714 24.9482C22.5117 24.7263 22.5621 24.5044 22.6126 24.2758C22.6361 24.185 22.6563 24.0943 22.6832 24.0035C22.6906 23.9739 22.6996 23.9447 22.7101 23.9161C22.7437 23.8186 22.6899 23.9497 22.7101 23.8724C22.7101 23.8724 22.7739 23.7917 22.7336 23.8388C22.6932 23.8858 22.7336 23.8388 22.7672 23.8119C22.83 23.7784 22.8984 23.7568 22.9689 23.748C23.1376 23.7278 23.308 23.7278 23.4766 23.748C23.8882 23.7992 24.3059 23.7316 24.6802 23.553C24.9656 23.3842 25.1894 23.1285 25.319 22.8234C25.4716 22.4473 25.5679 22.0508 25.6048 21.6467C25.6653 21.1525 25.7057 20.6381 25.7426 20.1539C25.7796 19.6698 25.7998 19.1924 25.7931 18.7116C25.7931 18.4561 25.82 18.1602 25.5779 17.9988C25.516 17.9575 25.452 17.9194 25.3863 17.8845L24.8786 17.5853C24.7854 17.5309 24.6744 17.5158 24.5701 17.5432C24.4657 17.5706 24.3766 17.6384 24.3222 17.7316C24.2678 17.8247 24.2526 17.9357 24.2801 18.0401C24.3075 18.1444 24.3752 18.2336 24.4684 18.288L25.1711 18.7049L24.9694 18.3687C24.9957 19.1699 24.9665 19.972 24.882 20.7692C24.8282 21.371 24.8315 22.1308 24.5121 22.6452C24.4931 22.6778 24.4705 22.7083 24.4449 22.736L24.3676 22.81C24.2582 22.8916 24.1297 22.9438 23.9944 22.9613C23.7066 22.9764 23.4181 22.9764 23.1303 22.9613C22.8307 22.9327 22.5317 23.0221 22.297 23.2104C22.0622 23.3987 21.91 23.6712 21.8729 23.9699C21.772 24.3868 21.688 24.807 21.6207 25.2306C21.5972 25.3752 21.577 25.5198 21.5535 25.6677C21.5535 25.7148 21.5367 25.7652 21.53 25.8156C21.5232 25.8661 21.4997 25.8694 21.53 25.8156L21.772 25.6307L22.0814 25.6711L22.2696 25.9131C22.2696 25.9131 22.2696 26.0375 22.2696 25.9602C22.2696 25.8829 22.2696 25.8997 22.2696 25.8694C22.2696 25.8392 22.2696 25.7215 22.2696 25.6442C22.2739 25.4157 22.2387 25.1882 22.1654 24.9718C22.072 24.7135 21.9018 24.4899 21.6776 24.3313C21.4534 24.1726 21.186 24.0864 20.9114 24.0842C20.6531 24.0763 20.3984 24.1461 20.1802 24.2846C19.962 24.423 19.7904 24.6238 19.6876 24.8608C19.603 25.0605 19.5464 25.271 19.5195 25.4862C19.5195 25.5803 19.4926 25.6744 19.4825 25.7686C19.4825 25.7955 19.4825 25.8224 19.4825 25.8493C19.4825 25.7753 19.4825 25.7585 19.4825 25.7955C19.4825 25.8325 19.4825 25.8123 19.5127 25.7249L19.7548 25.54L20.0675 25.5803L20.2524 25.8257C20.2524 25.7988 20.2356 25.93 20.2524 25.8762C20.2559 25.8426 20.2559 25.8088 20.2524 25.7753C20.2524 25.6845 20.2524 25.5938 20.2524 25.503C20.2546 25.2604 20.2065 25.02 20.1112 24.7969C19.9932 24.575 19.8153 24.3906 19.5978 24.2646C19.3803 24.1386 19.1319 24.0761 18.8807 24.0842C18.6258 24.0735 18.373 24.1342 18.1508 24.2596C17.9286 24.3849 17.7459 24.5699 17.6233 24.7936C17.5236 25.0055 17.4611 25.2329 17.4383 25.466L17.4182 25.7013C17.4164 25.7338 17.4164 25.7664 17.4182 25.7988C17.4182 25.8896 17.4484 25.6946 17.4585 25.6744L17.6031 25.5299H18.0065L18.1511 25.6744C18.178 25.7081 18.1746 25.782 18.1511 25.698C18.1276 25.6139 18.1511 25.6139 18.1276 25.5736C18.1276 25.4593 18.1074 25.4156 18.0872 25.2575C18.057 24.9583 18.0301 24.6591 18.0099 24.3565C18.0263 23.9972 17.9234 23.6426 17.7174 23.3479C17.5057 23.1384 17.2217 23.018 16.9239 23.0117C16.6214 22.9747 16.3154 22.9613 16.0095 22.9276C15.8965 22.9158 15.7843 22.8978 15.6733 22.8738L15.5623 22.8369L15.4984 22.8032C15.4984 22.8032 15.4211 22.7494 15.4682 22.8032C15.5152 22.857 15.4144 22.7461 15.3976 22.7293C15.3808 22.7125 15.3505 22.6721 15.3976 22.7293L15.337 22.662C15.2782 22.5683 15.2308 22.4678 15.1958 22.3628C15.0916 22.0352 15.0251 21.6968 14.9975 21.3542C14.8495 19.8749 14.6848 18.3014 15.1219 16.8591C15.348 16.1538 15.7361 15.5113 16.2551 14.9829C16.7741 14.4546 17.4096 14.0551 18.1108 13.8164C18.4237 13.705 18.7453 13.6195 19.0723 13.5609L19.2774 13.5273C19.348 13.5273 19.2202 13.5273 19.2774 13.5273H19.385C19.4858 13.5273 19.5867 13.5071 19.6876 13.5004C20.1854 13.4882 20.682 13.5529 21.1601 13.692L20.8643 13.2987C20.8374 13.8253 20.9177 14.3519 21.1004 14.8466C21.283 15.3413 21.5641 15.7937 21.9267 16.1766C22.6501 17.0195 23.5037 17.7414 24.455 18.3149C24.5508 18.371 24.6651 18.3868 24.7726 18.3588C24.8801 18.3307 24.972 18.2611 25.0282 18.1653C25.0844 18.0694 25.1002 17.9552 25.0721 17.8477C25.0441 17.7402 24.9744 17.6482 24.8786 17.592Z" fill="white"/>
<path d="M18.4739 20.5944C18.0973 20.7592 17.7107 20.8836 17.3476 21.0819C17.079 21.2893 16.7548 21.4122 16.4163 21.435C15.8481 21.3812 15.4883 20.7625 15.3841 20.2616C15.3034 19.9157 15.3426 19.5526 15.4953 19.2319C15.648 18.9112 15.9052 18.6519 16.2246 18.4965C16.5529 18.3517 16.916 18.305 17.2702 18.362C17.6258 18.4397 17.9563 18.605 18.2318 18.8428C18.5449 19.0415 18.7818 19.34 18.9042 19.69C18.9491 19.8677 18.9303 20.0555 18.8511 20.2208C18.7718 20.386 18.6372 20.5182 18.4705 20.5944C18.0032 20.8264 18.4133 21.5257 18.8773 21.2937C19.1114 21.172 19.3124 20.9951 19.4629 20.7784C19.6134 20.5617 19.709 20.3116 19.7414 20.0498C19.7578 19.7837 19.7174 19.5172 19.6229 19.268C19.5284 19.0187 19.382 18.7924 19.1934 18.6041C18.865 18.2586 18.4779 17.974 18.0502 17.7636C17.5659 17.5409 17.0251 17.4717 16.5003 17.5652C15.9765 17.6531 15.4965 17.912 15.1353 18.3015C14.9021 18.5748 14.7307 18.8952 14.6328 19.2409C14.5349 19.5866 14.5128 19.9493 14.568 20.3043C14.6232 20.6593 14.7545 20.9982 14.9528 21.2978C15.1511 21.5974 15.4118 21.8506 15.717 22.0401C15.9551 22.1628 16.219 22.2268 16.4869 22.2268C16.7547 22.2268 17.0187 22.1628 17.2568 22.0401C17.5224 21.9191 17.7712 21.751 18.0368 21.6232C18.3024 21.4955 18.605 21.398 18.8807 21.287C18.973 21.2341 19.041 21.147 19.0699 21.0446C19.0988 20.9421 19.0864 20.8324 19.0353 20.739C18.9788 20.6468 18.8886 20.5801 18.7838 20.5531C18.6791 20.5262 18.5679 20.541 18.4739 20.5944Z" fill="white"/>
<path d="M20.6222 22.5713L20.5516 22.6318C20.6188 22.578 20.5751 22.615 20.5516 22.6318C20.528 22.6486 20.4608 22.6856 20.4104 22.7092C20.4978 22.6654 20.3532 22.7092 20.3263 22.736L20.2456 22.7562C20.2221 22.7562 20.1044 22.7562 20.2053 22.7562C20.1493 22.7596 20.0932 22.7596 20.0372 22.7562C20.0069 22.7562 19.8455 22.7361 19.9464 22.7562C19.8919 22.7471 19.838 22.7348 19.785 22.7192L19.7245 22.6991C19.6371 22.6755 19.7716 22.7293 19.701 22.6991C19.6532 22.6754 19.6071 22.6485 19.5631 22.6184C19.6438 22.6722 19.5631 22.6184 19.5463 22.6184L19.5026 22.5713C19.5329 22.6318 19.4286 22.5074 19.5026 22.5713L19.4723 22.5276L19.4354 22.457C19.4623 22.5108 19.4555 22.5041 19.4354 22.457C19.4221 22.4107 19.412 22.3635 19.4051 22.3158C19.4253 22.4267 19.4051 22.2687 19.4051 22.2385C19.4051 22.2082 19.4051 22.1242 19.4051 22.067C19.4051 22.0098 19.4051 22.0166 19.4051 21.993C19.4051 21.9695 19.4051 21.946 19.4051 21.993V21.9359C19.4589 21.6227 19.5388 21.3146 19.6438 21.0147C19.6438 21.0147 19.6942 20.8936 19.6707 20.9441C19.6472 20.9945 19.7043 20.8802 19.701 20.8869C19.728 20.8368 19.7583 20.7885 19.7917 20.7423C19.7312 20.823 19.8287 20.7121 19.8455 20.6953C19.8623 20.6785 19.7716 20.739 19.8455 20.6953C19.8725 20.6816 19.8983 20.6658 19.9229 20.6482C19.8321 20.6717 19.9598 20.6179 19.9229 20.6482H19.9699C20.0114 20.6344 20.0542 20.6254 20.0977 20.6213C20.0641 20.6213 19.9834 20.6213 20.0977 20.6213H20.1717C20.2927 20.6213 20.091 20.6213 20.2053 20.6213H20.2389C20.1952 20.6011 20.1918 20.6011 20.2389 20.6213C20.286 20.6415 20.3297 20.6818 20.2826 20.6482C20.2355 20.6146 20.3196 20.6818 20.3196 20.6818L20.3667 20.7356C20.4406 20.8129 20.3364 20.6717 20.3902 20.7659C20.4237 20.8189 20.454 20.8739 20.481 20.9306C20.481 20.9508 20.5179 21.0012 20.481 20.9306C20.4978 20.9743 20.5112 21.018 20.5247 21.0617C20.5785 21.2366 20.6289 21.3979 20.6726 21.5896C20.6928 21.677 20.7129 21.7644 20.7298 21.8518C20.7298 21.8787 20.7298 21.909 20.7298 21.9359C20.7298 21.9628 20.7298 21.9897 20.7298 21.9527C20.7281 21.9728 20.7281 21.9931 20.7298 22.0132C20.7298 22.0838 20.7298 22.1544 20.7298 22.225C20.7298 22.2956 20.7298 22.2956 20.7298 22.3326C20.7298 22.262 20.7298 22.3326 20.7298 22.3629C20.7298 22.3931 20.7298 22.4167 20.7062 22.4436C20.7076 22.4592 20.7076 22.475 20.7062 22.4906C20.7298 22.4402 20.7264 22.4436 20.7062 22.4906C20.6938 22.5078 20.6826 22.5257 20.6726 22.5444C20.6491 22.5814 20.6457 22.5814 20.6726 22.5444L20.6255 22.5948C20.5601 22.673 20.5263 22.7728 20.531 22.8746C20.5356 22.9764 20.5783 23.0728 20.6506 23.1446C20.7228 23.2164 20.8194 23.2586 20.9213 23.2626C21.0231 23.2666 21.1227 23.2323 21.2004 23.1664C21.7552 22.5948 21.5367 21.7241 21.3517 21.0416C21.2803 20.668 21.1016 20.3233 20.8373 20.0498C20.6965 19.9275 20.5278 19.8418 20.3461 19.8002C20.1643 19.7585 19.9751 19.7623 19.7951 19.8111C19.042 19.9825 18.8302 20.8197 18.6856 21.4686C18.5957 21.8049 18.574 22.1558 18.6217 22.5007C18.6508 22.6599 18.7113 22.8118 18.7996 22.9474C18.8879 23.0831 19.0023 23.1998 19.1361 23.2908C19.4478 23.4982 19.8198 23.5956 20.1932 23.5676C20.5665 23.5396 20.9198 23.3877 21.1971 23.1361C21.2714 23.0596 21.313 22.9571 21.313 22.8504C21.313 22.7436 21.2714 22.6411 21.1971 22.5646C21.1191 22.4909 21.0155 22.4504 20.9083 22.4517C20.801 22.4529 20.6984 22.4958 20.6222 22.5713Z" fill="white"/>
<path d="M24.344 20.8937C24.1932 21.1456 23.9532 21.3316 23.6716 21.4148C23.3354 21.4438 23.0006 21.3454 22.7336 21.1391C22.3649 20.948 21.9855 20.7785 21.5972 20.6314C21.4605 20.5815 21.3388 20.4975 21.2435 20.3875C21.1482 20.2775 21.0825 20.1451 21.0525 20.0027C20.9685 19.3303 21.7081 18.8125 22.2192 18.5402C22.5405 18.352 22.9169 18.2801 23.285 18.3368C23.6531 18.3936 23.9904 18.5753 24.2402 18.8516C24.49 19.1278 24.6371 19.4817 24.6566 19.8536C24.6761 20.2255 24.5669 20.5928 24.3474 20.8937C24.0582 21.3307 24.7609 21.7342 25.0467 21.3005C25.3303 20.8652 25.4709 20.3522 25.4486 19.8331C25.4263 19.3141 25.2422 18.815 24.9223 18.4057C24.5987 18.0165 24.1627 17.7367 23.674 17.6049C23.1852 17.4731 22.6677 17.4956 22.1923 17.6694C21.3181 18.0056 20.3633 18.752 20.2524 19.7405C20.2257 19.9841 20.2572 20.2306 20.3443 20.4597C20.4314 20.6888 20.5715 20.894 20.7533 21.0584C21.1332 21.3946 21.698 21.5056 22.1553 21.7308C22.3993 21.8761 22.6519 22.0063 22.9118 22.1208C23.1973 22.2224 23.5043 22.2479 23.8027 22.1948C24.0596 22.1338 24.3016 22.0221 24.5147 21.8662C24.7277 21.7103 24.9075 21.5134 25.0433 21.287C25.0963 21.1945 25.1108 21.0849 25.0837 20.9818C25.0567 20.8787 24.9903 20.7903 24.8987 20.7356C24.8039 20.6845 24.6929 20.6724 24.5893 20.702C24.4857 20.7315 24.3977 20.8002 24.344 20.8937Z" fill="white"/>
<path d="M27.7195 11.9203C27.3973 11.8375 27.0573 11.8579 26.7473 11.9785C26.4373 12.0992 26.173 12.314 25.9914 12.5927V12.6162C25.8173 12.3296 25.5557 12.1066 25.2451 11.98C24.9345 11.8535 24.5915 11.8302 24.2667 11.9136C23.5943 12.1321 23.3018 12.8785 23.295 13.403C23.295 14.1359 23.8263 14.6637 24.5256 15.3429C24.9313 15.7401 25.3827 16.0877 25.8704 16.3784C26.4338 16.0563 26.9622 15.6766 27.4472 15.2454C28.1465 14.573 28.6878 14.072 28.6777 13.3559C28.6792 13.0484 28.5888 12.7474 28.4181 12.4916C28.2474 12.2358 28.0041 12.0369 27.7195 11.9203Z" fill="white"/>
<path d="M27.8271 11.5369C27.3881 11.4151 26.9197 11.4569 26.5092 11.6546C26.173 11.816 25.6048 12.2094 25.5914 12.6296L26.3377 12.4279C26.1657 12.1629 25.9367 11.9396 25.6674 11.7744C25.3981 11.6092 25.0953 11.5063 24.7811 11.4731C24.4861 11.4537 24.1912 11.5125 23.9261 11.6436C23.6611 11.7746 23.4353 11.9733 23.2715 12.2194C23.1134 12.4492 23.0022 12.708 22.9445 12.981C22.8868 13.2539 22.8837 13.5356 22.9353 13.8097C23.0564 14.425 23.5136 14.9158 23.9439 15.3462C24.4639 15.8802 25.049 16.3468 25.6855 16.7347C25.7465 16.7711 25.8162 16.7904 25.8872 16.7904C25.9583 16.7904 26.028 16.7711 26.0889 16.7347C26.583 16.4524 27.052 16.1285 27.4909 15.7664C28.0205 15.3618 28.4755 14.868 28.8358 14.3073C28.9712 14.0628 29.0526 13.7922 29.0745 13.5136C29.0964 13.235 29.0582 12.9549 28.9626 12.6923C28.867 12.4297 28.7162 12.1907 28.5203 11.9914C28.3244 11.792 28.088 11.6371 27.8271 11.5369C27.3363 11.3688 27.1278 12.1421 27.6153 12.3069C27.7811 12.3763 27.9268 12.4862 28.039 12.6266C28.1512 12.767 28.2263 12.9334 28.2575 13.1104C28.2937 13.2916 28.2883 13.4786 28.2417 13.6574C28.1951 13.8362 28.1085 14.0021 27.9885 14.1425C27.6436 14.5693 27.2498 14.9541 26.8151 15.289C26.4569 15.5691 26.0782 15.822 25.6821 16.0455H26.0957C25.5283 15.6982 25.0065 15.2814 24.5424 14.8049C24.1591 14.425 23.6884 13.9778 23.7052 13.3928C23.7053 13.1769 23.763 12.965 23.8724 12.7788C23.9817 12.5926 24.1387 12.439 24.3272 12.3337C24.5746 12.2527 24.8422 12.2578 25.0864 12.3481C25.3305 12.4384 25.537 12.6088 25.672 12.8313C25.7183 12.9037 25.7865 12.9594 25.8667 12.9903C25.9468 13.0213 26.0347 13.0258 26.1176 13.0033C26.2005 12.9808 26.2741 12.9324 26.3276 12.8652C26.3811 12.798 26.4117 12.7155 26.4151 12.6296V12.6061L26.3613 12.8078C26.4966 12.6093 26.6887 12.4562 26.9125 12.3686C27.1362 12.281 27.3812 12.263 27.6153 12.3169C27.7188 12.345 27.8291 12.3309 27.9221 12.2776C28.0151 12.2243 28.0831 12.1363 28.1112 12.0328C28.1393 11.9294 28.1252 11.8191 28.0719 11.7261C28.0186 11.6331 27.9306 11.565 27.8271 11.5369Z" fill="white"/>
<defs>
<linearGradient id="paint0_linear_2001_1160" x1="32.3491" y1="7.34773" x2="5.15672" y2="33.9316" gradientUnits="userSpaceOnUse">
<stop stop-color="#4651D1"/>
<stop offset="0.42" stop-color="#2482C3"/>
<stop offset="0.8" stop-color="#0AA7B9"/>
<stop offset="1" stop-color="#00B5B5"/>
</linearGradient>
</defs>
</svg>
