<svg width="40" height="39" viewBox="0 0 40 39" fill="none" xmlns="http://www.w3.org/2000/svg">
<path d="M37.2353 20.875C30.4698 24.5743 24.9075 30.1366 21.2083 36.902C21.0734 37.1489 20.8746 37.355 20.6326 37.4986C20.3907 37.6421 20.1145 37.7179 19.8332 37.7179C19.5518 37.7179 19.2757 37.6421 19.0337 37.4986C18.7918 37.355 18.5929 37.1489 18.4581 36.902C14.7588 30.1366 9.19654 24.5743 2.43112 20.875C2.18419 20.7402 1.97812 20.5414 1.83456 20.2994C1.69099 20.0574 1.61523 19.7813 1.61523 19.4999C1.61523 19.2186 1.69099 18.9424 1.83456 18.7005C1.97812 18.4585 2.18419 18.2597 2.43112 18.1248C9.19654 14.4256 14.7588 8.86328 18.4581 2.09787C18.5929 1.85093 18.7918 1.64487 19.0337 1.5013C19.2757 1.35774 19.5518 1.28198 19.8332 1.28198C20.1145 1.28198 20.3907 1.35774 20.6326 1.5013C20.8746 1.64487 21.0734 1.85093 21.2083 2.09787C24.9075 8.86328 30.4698 14.4256 37.2353 18.1248C37.4822 18.2597 37.6883 18.4585 37.8318 18.7005C37.9754 18.9424 38.0511 19.2186 38.0511 19.4999C38.0511 19.7813 37.9754 20.0574 37.8318 20.2994C37.6883 20.5414 37.4822 20.7402 37.2353 20.875Z" fill="url(#paint0_linear_2001_618)"/>
<path d="M26.3254 22.9091C26.1774 22.8888 26.0418 22.8157 25.9435 22.7032C25.8453 22.5907 25.791 22.4465 25.7908 22.2972V21.4063C25.4629 21.6282 25.0852 21.7657 24.6914 21.8063C23.5819 21.9072 22.7044 21.0566 22.5229 20.8683C22.5111 20.8576 22.4973 20.8494 22.4823 20.8442C22.4672 20.839 22.4513 20.8369 22.4354 20.8381L21.2823 20.9826C21.2677 20.985 21.2544 20.9922 21.2445 21.0033C21.2347 21.0143 21.2291 21.0284 21.2285 21.0431L21.178 22.2367C21.1776 22.2504 21.18 22.2642 21.1852 22.2769C21.1905 22.2897 21.1983 22.3012 21.2083 22.3106C21.6411 22.7585 22.1584 23.1159 22.7303 23.3624C23.3022 23.6088 23.9174 23.7393 24.5401 23.7463C24.6443 23.7463 24.7486 23.7463 24.8763 23.7463C25.5997 23.6732 26.2932 23.4201 26.8936 23.01L26.3254 22.9091Z" fill="white"/>
<path d="M13.4082 21.1541C13.0195 20.7397 12.7938 20.1988 12.7728 19.6311C12.7654 19.1804 12.8956 18.7383 13.146 18.3636H12.3559C12.2055 18.3616 12.0608 18.3054 11.9484 18.2054C11.836 18.1053 11.7634 17.9681 11.744 17.8189L11.6499 17.1465L11.6062 17.207C11.0868 17.9334 10.8177 18.809 10.8396 19.7017C10.8768 20.7868 11.3279 21.8166 12.1004 22.5796L12.2382 22.7073C12.2491 22.7181 12.2624 22.7262 12.277 22.7308C12.2917 22.7355 12.3072 22.7367 12.3223 22.7342L13.3948 22.5561C13.4096 22.5544 13.4234 22.5473 13.4333 22.5361C13.4432 22.5249 13.4487 22.5105 13.4486 22.4955L13.4452 21.2213C13.4413 21.1952 13.4282 21.1714 13.4082 21.1541Z" fill="white"/>
<path d="M18.2732 21.3761C18.2719 21.3619 18.2659 21.3486 18.2561 21.3383C18.2464 21.3279 18.2335 21.3211 18.2194 21.3189L17.0192 21.1811C17.0048 21.1787 16.9901 21.1796 16.9762 21.1837C16.9622 21.1878 16.9493 21.1949 16.9385 21.2046C16.6884 21.4464 16.393 21.6364 16.0694 21.7639C15.7458 21.8914 15.4002 21.9538 15.0524 21.9476C14.6814 21.918 14.3224 21.803 14.0034 21.6114V22.4755C14.0054 22.6253 13.9535 22.7708 13.8572 22.8855C13.761 23.0003 13.6267 23.0767 13.4789 23.1008L12.9006 23.1983C13.5063 23.5874 14.1999 23.8186 14.9179 23.8707C15.0255 23.8707 15.133 23.8707 15.2541 23.8707C16.3857 23.8296 17.4628 23.3737 18.2799 22.5898C18.2904 22.5799 18.2985 22.5679 18.3037 22.5545C18.3089 22.5411 18.3112 22.5268 18.3102 22.5125L18.2732 21.3761Z" fill="white"/>
<path d="M22.0487 17.2374C22.0489 17.2229 22.0439 17.2089 22.0347 17.1978C22.0254 17.1867 22.0125 17.1793 21.9983 17.1769L20.8014 17.0054C20.7846 17.0023 20.7673 17.0037 20.7513 17.0096C20.7353 17.0156 20.7213 17.0257 20.7106 17.039L19.1405 18.8613L17.4595 20.6633L18.2865 20.7575C18.4326 20.7773 18.5668 20.8484 18.6653 20.958C18.7638 21.0676 18.8202 21.2086 18.8245 21.3559L18.848 21.9913L20.529 20.196L22.0218 18.4612C22.0301 18.4521 22.0364 18.4415 22.0404 18.43C22.0445 18.4184 22.0462 18.4061 22.0453 18.3939L22.0487 17.2374Z" fill="white"/>
<path d="M27.1861 16.1177C26.4309 15.5167 25.5045 15.1706 24.5401 15.1293C23.3218 15.1251 22.1487 15.5912 21.2655 16.4304L21.1982 16.501L22.0757 16.6288C22.224 16.6512 22.3593 16.7259 22.4573 16.8393C22.5553 16.9528 22.6096 17.0975 22.6103 17.2474V17.819L22.6708 17.7584C22.6939 17.7343 22.7186 17.7118 22.7448 17.6912C23.2188 17.2684 23.8344 17.0391 24.4695 17.049C24.9517 17.0835 25.4159 17.246 25.8144 17.5197C25.8338 17.5276 25.8555 17.5276 25.8749 17.5197L27.0516 17.4458C27.0663 17.4443 27.08 17.4378 27.0904 17.4274C27.1008 17.417 27.1073 17.4033 27.1088 17.3886L27.2096 16.1917C27.2116 16.1649 27.2032 16.1385 27.1861 16.1177Z" fill="white"/>
<path d="M27.7509 16.6591L27.6837 17.4559C27.6704 17.6044 27.6045 17.7432 27.4978 17.8474C27.3912 17.9516 27.2508 18.0142 27.102 18.0241L26.4095 18.0711C26.7173 18.4525 26.8889 18.9259 26.897 19.416C26.8953 19.962 26.6999 20.4898 26.3456 20.9054V22.2704C26.3446 22.285 26.3493 22.2994 26.3587 22.3107C26.3681 22.3219 26.3814 22.3292 26.396 22.3309L27.4349 22.4822C27.4503 22.4842 27.466 22.4825 27.4806 22.4772C27.4952 22.472 27.5084 22.4633 27.5189 22.4519C27.9285 22.0549 28.2546 21.58 28.4781 21.0552C28.7015 20.5304 28.8178 19.9662 28.8201 19.3958C28.8082 18.3839 28.4281 17.411 27.7509 16.6591Z" fill="white"/>
<path d="M16.6023 16.9078C16.6064 16.7592 16.663 16.6169 16.7621 16.5061C16.8612 16.3954 16.9964 16.3233 17.1436 16.3026L17.9706 16.2018C17.1334 15.5346 16.0804 15.1979 15.0114 15.2555C13.9424 15.3131 12.9317 15.7611 12.1711 16.5145C12.1598 16.5259 12.1513 16.5396 12.1461 16.5547C12.1408 16.5699 12.139 16.586 12.1408 16.6019L12.2921 17.7349C12.2945 17.7491 12.3019 17.762 12.313 17.7713C12.3241 17.7805 12.3382 17.7855 12.3526 17.7853L13.5865 17.8055C13.6106 17.807 13.6345 17.7999 13.6537 17.7853C14.0691 17.4354 14.5846 17.2259 15.1263 17.1869C15.6434 17.1662 16.1543 17.3059 16.5888 17.587L16.6023 16.9078Z" fill="white"/>
<path d="M18.2127 19.0259L18.7271 18.4913L19.3995 17.7012C19.0431 17.3079 18.7674 16.9582 18.5792 16.7531C18.5679 16.7417 18.5542 16.733 18.539 16.7278C18.5238 16.7225 18.5077 16.7209 18.4917 16.7229L17.2108 16.8809C17.1959 16.8826 17.1822 16.8897 17.1723 16.9008C17.1624 16.912 17.1569 16.9265 17.157 16.9414L17.1436 18.0139C17.3184 18.1955 17.7857 18.5989 18.2127 19.0259Z" fill="white"/>
<path d="M20.3206 21.2549C20.4382 21.3894 20.5458 21.5205 20.6568 21.6382V21.0263C20.6599 20.9704 20.6701 20.915 20.687 20.8616L20.3206 21.2549Z" fill="white"/>
<path d="M21.0535 20.4648C21.1029 20.4437 21.1549 20.429 21.2081 20.4211L22.0016 20.3236C21.8637 20.1757 21.7158 20.0143 21.5712 19.863L21.0535 20.4648Z" fill="white"/>
<defs>
<linearGradient id="paint0_linear_2001_618" x1="38.0511" y1="1.28236" x2="-0.470516" y2="2.06982" gradientUnits="userSpaceOnUse">
<stop stop-color="#00CFFF"/>
<stop offset="1" stop-color="#176BED"/>
</linearGradient>
</defs>
</svg>
