<svg width="40" height="39" viewBox="0 0 40 39" fill="none" xmlns="http://www.w3.org/2000/svg">
<path d="M29.7092 9.62403C27.6153 4.60735 23.976 1.28418 19.8334 1.28418C15.6908 1.28418 12.0514 4.60735 9.95756 9.62403C4.94085 11.7179 1.61768 15.3573 1.61768 19.4999C1.61768 23.6425 4.94081 27.2818 9.95756 29.3757C12.0514 34.3924 15.6908 37.7156 19.8334 37.7156C23.976 37.7156 27.6153 34.3924 29.7092 29.3757C34.7259 27.2818 38.0491 23.6425 38.0491 19.4999C38.0491 15.3573 34.7259 11.7179 29.7092 9.62403Z" fill="url(#paint0_linear_2001_579)"/>
<path d="M15.1253 24.0582C15.1253 24.1039 15.1134 24.1488 15.0907 24.1884C15.0681 24.2281 15.0355 24.2612 14.9962 24.2845C14.9569 24.3078 14.9122 24.3204 14.8666 24.3212C14.8209 24.322 14.7758 24.3108 14.7357 24.2889L13.3038 23.5042C13.1383 23.4135 13.0002 23.28 12.904 23.1176C12.8078 22.9553 12.7571 22.77 12.7571 22.5813V18.3398C12.7571 18.2941 12.769 18.2493 12.7915 18.2096C12.8141 18.17 12.8467 18.1369 12.8859 18.1136C12.9252 18.0904 12.9698 18.0777 13.0155 18.0769C13.0611 18.0762 13.1061 18.0873 13.1462 18.1092L14.8521 19.0434C14.9348 19.0889 15.0038 19.1556 15.0518 19.2368C15.0999 19.318 15.1253 19.4106 15.1253 19.505V24.0582Z" fill="white"/>
<path d="M26.9095 22.581C26.9094 22.7699 26.8586 22.9552 26.7624 23.1176C26.6661 23.2801 26.528 23.4137 26.3624 23.5044L24.9308 24.2889C24.8907 24.3109 24.8456 24.322 24.8 24.3213C24.7543 24.3205 24.7096 24.3079 24.6702 24.2846C24.6309 24.2613 24.5983 24.2282 24.5757 24.1885C24.5531 24.1488 24.5412 24.1039 24.5412 24.0582V18.4378C24.5412 18.3921 24.5293 18.3473 24.5067 18.3076C24.4841 18.2679 24.4516 18.2348 24.4123 18.2115C24.373 18.1882 24.3283 18.1756 24.2826 18.1748C24.237 18.174 24.1919 18.1852 24.1518 18.2071L21.5647 19.6249C21.3992 19.7156 21.2611 19.8491 21.1649 20.0115C21.0687 20.1739 21.018 20.3592 21.018 20.548V26.1228C21.018 26.2171 20.9926 26.3098 20.9445 26.3909C20.8963 26.4721 20.8273 26.5389 20.7445 26.5842L20.3386 26.8063C20.1834 26.8913 20.0094 26.9357 19.8325 26.9357C19.6557 26.9356 19.4817 26.8909 19.3266 26.8058L18.9232 26.5843C18.8404 26.539 18.7714 26.4722 18.7233 26.391C18.6753 26.3098 18.6499 26.2171 18.6499 26.1228V20.548C18.6499 20.3592 18.5992 20.174 18.503 20.0116C18.4068 19.8492 18.2688 19.7156 18.1032 19.6249L12.7573 16.6952V16.4182C12.7573 16.2295 12.808 16.0442 12.9042 15.8818C13.0004 15.7194 13.1385 15.5859 13.304 15.4953L13.8943 15.172C14.0493 15.0871 14.2232 15.0426 14.3999 15.0426C14.5766 15.0426 14.7505 15.0871 14.9055 15.172L19.3278 17.5954C19.4828 17.6804 19.6568 17.7249 19.8335 17.7249C20.0103 17.7249 20.1843 17.6804 20.3393 17.5954L22.3827 16.4756C22.4241 16.4529 22.4586 16.4195 22.4827 16.3789C22.5067 16.3383 22.5194 16.292 22.5194 16.2448C22.5194 16.1976 22.5067 16.1513 22.4827 16.1107C22.4586 16.0701 22.4241 16.0367 22.3827 16.0141L17.7911 13.4973C17.7498 13.4746 17.7152 13.4412 17.6912 13.4006C17.6671 13.36 17.6545 13.3137 17.6545 13.2665C17.6545 13.2193 17.6671 13.173 17.6912 13.1324C17.7152 13.0918 17.7498 13.0584 17.7911 13.0358L19.3276 12.1935C19.4827 12.1085 19.6567 12.064 19.8335 12.064C20.0103 12.064 20.1843 12.1085 20.3394 12.1935L26.3624 15.4947C26.528 15.5854 26.6662 15.7191 26.7625 15.8816C26.8588 16.0441 26.9096 16.2295 26.9096 16.4183L26.9095 22.581Z" fill="white"/>
<defs>
<linearGradient id="paint0_linear_2001_579" x1="11.7463" y1="27.3483" x2="29.9412" y2="9.69019" gradientUnits="userSpaceOnUse">
<stop stop-color="#005FF4"/>
<stop offset="0.0333" stop-color="#0065F5"/>
<stop offset="0.2742" stop-color="#008EF9"/>
<stop offset="0.4937" stop-color="#00ABFC"/>
<stop offset="0.6829" stop-color="#00BDFE"/>
<stop offset="0.8199" stop-color="#00C3FF"/>
</linearGradient>
</defs>
</svg>
