<svg width="40" height="39" viewBox="0 0 40 39" fill="none" xmlns="http://www.w3.org/2000/svg">
<path d="M10.3578 29.4576C12.4532 34.4783 16.0954 37.8038 20.2411 37.8038C24.3869 37.8038 28.0291 34.4783 30.1245 29.4576C35.1452 27.3622 38.4707 23.72 38.4707 19.5743C38.4707 15.4285 35.145 11.7863 30.1245 9.6909C28.0291 4.67038 24.3869 1.34473 20.2411 1.34473C16.0954 1.34473 12.4532 4.67038 10.3578 9.6909C5.33729 11.7863 2.0116 15.4285 2.0116 19.5743C2.0116 23.72 5.33725 27.3622 10.3578 29.4576Z" fill="url(#paint0_linear_2001_2611)"/>
<path d="M26.5695 19.2404C27.2789 18.6083 27.7509 17.8052 27.5019 16.8169C27.3122 16.1486 26.9606 15.5374 26.4783 15.0374C24.7651 17.1994 23.3016 19.5479 22.1156 22.0385C23.6765 21.2537 25.278 20.391 26.5695 19.2404Z" fill="white"/>
<path d="M26.8072 19.4781C27.1362 19.2146 27.4045 18.8832 27.5938 18.5065C27.7831 18.1299 27.8889 17.7168 27.9041 17.2955C27.8818 16.3508 27.3328 15.4784 26.7161 14.7996C26.6529 14.7369 26.5674 14.7017 26.4783 14.7017C26.3892 14.7017 26.3038 14.7369 26.2406 14.7996C24.5094 16.9837 23.0283 19.3548 21.8253 21.8687C21.7903 21.933 21.7771 22.0069 21.7875 22.0793C21.798 22.1517 21.8316 22.2188 21.8834 22.2706C21.9351 22.3223 22.0022 22.356 22.0747 22.3664C22.1471 22.3769 22.221 22.3637 22.2853 22.3287C23.9081 21.5755 25.4278 20.6176 26.8072 19.4781C27.1326 19.1915 26.6555 18.7175 26.3318 19.0027C25.0298 20.1496 23.487 20.972 21.9459 21.7481L22.4059 22.2081C23.5794 19.7435 25.0251 17.418 26.7161 15.2751H26.2406C26.7332 15.8174 27.2137 16.5368 27.2316 17.2957C27.2481 17.994 26.8249 18.5533 26.3318 19.0027C26.0113 19.2946 26.4878 19.7693 26.8072 19.4781Z" fill="white"/>
<path d="M21.7213 12.5234C21.6976 12.5694 21.6745 12.6158 21.6522 12.6613C21.5147 12.9686 21.403 13.2869 21.3184 13.6127C21.1592 14.2096 21.0451 14.8176 20.9771 15.4316C20.7774 17.4144 20.7776 19.4121 20.9778 21.3948C21.2512 20.9816 21.5199 20.5654 21.7787 20.143C22.6656 18.696 23.7077 17.0646 23.9672 15.3558C24.0892 14.7544 23.9828 14.129 23.6687 13.6017C23.2179 12.8944 22.4925 12.6594 21.7213 12.5234Z" fill="white"/>
<path d="M21.431 12.3538C20.7904 13.6343 20.6303 15.1457 20.5401 16.5562C20.4549 18.1695 20.4888 19.7868 20.6415 21.3951C20.6438 21.4677 20.6693 21.5378 20.7144 21.5948C20.7595 21.6519 20.8217 21.6929 20.8919 21.712C20.9621 21.731 21.0365 21.7269 21.1043 21.7004C21.172 21.6739 21.2294 21.6264 21.268 21.5647C22.3955 19.8558 23.6742 18.0242 24.1771 16.012C24.3971 15.1319 24.455 14.1632 23.9222 13.3783C23.4301 12.6532 22.6408 12.3522 21.8106 12.1993C21.3875 12.1214 21.2061 12.7693 21.6318 12.8477C22.3916 12.9876 23.138 13.2343 23.4935 13.9829C23.8709 14.7779 23.5947 15.7488 23.3162 16.5321C22.7211 18.2064 21.6601 19.7509 20.6874 21.2254L21.3139 21.3951C21.1734 19.8938 21.1334 18.3849 21.1942 16.8783C21.2635 15.4931 21.3807 13.954 22.0115 12.6932C22.2046 12.3073 21.6249 11.9663 21.431 12.3538Z" fill="white"/>
<path d="M28.8033 19.6035C26.8014 20.6812 24.8035 21.7938 22.891 23.0253C23.2879 23.0257 23.6848 23.0259 24.0817 23.0261C25.0668 23.0257 26.1751 23.1699 27.1111 22.7867C27.7053 22.5177 28.1936 22.0594 28.4997 21.4835C28.8059 20.9076 28.9126 20.2465 28.8033 19.6035Z" fill="white"/>
<path d="M28.6336 19.3131C26.6284 20.3932 24.6383 21.5035 22.7213 22.7349C22.6595 22.7734 22.6118 22.8308 22.5851 22.8986C22.5585 22.9664 22.5544 23.0409 22.5734 23.1112C22.5925 23.1815 22.6336 23.2438 22.6908 23.2888C22.748 23.3339 22.8182 23.3594 22.891 23.3614C23.7299 23.3622 24.569 23.3903 25.4076 23.3885C26.1729 23.4281 26.935 23.263 27.6152 22.9102C28.1733 22.5555 28.6144 22.0441 28.8833 21.4401C29.1523 20.836 29.2372 20.1661 29.1275 19.514C29.0673 19.0873 28.4193 19.2689 28.4791 19.6928C28.5621 20.243 28.4692 20.8054 28.2137 21.2997C27.9582 21.794 27.5531 22.195 27.0561 22.4454C26.4141 22.6832 25.7269 22.7741 25.0452 22.7114C24.3268 22.6952 23.6096 22.6895 22.891 22.6889L23.0606 23.3154C24.9776 22.0839 26.9678 20.9737 28.9729 19.8936C29.3541 19.6885 29.0149 19.1077 28.6336 19.3131Z" fill="white"/>
<path d="M26.9522 24.2769L26.8789 24.2743L22.9674 24.1382C23.1475 24.2589 23.328 24.379 23.5113 24.4949C23.9574 24.8126 24.4431 25.0709 24.956 25.2631C25.75 25.5063 26.4635 24.9161 26.9522 24.2769Z" fill="white"/>
<path d="M26.9522 23.9407C25.6239 23.8946 24.2956 23.8483 22.9674 23.802C22.8946 23.8041 22.8245 23.8296 22.7673 23.8747C22.7101 23.9197 22.669 23.982 22.65 24.0523C22.6309 24.1225 22.635 24.197 22.6616 24.2648C22.6882 24.3325 22.7359 24.3899 22.7977 24.4285C23.1748 24.6811 23.5549 24.9328 23.9463 25.1627C24.3235 25.4131 24.7503 25.5788 25.1976 25.6487C26.0186 25.7263 26.7206 25.1202 27.1899 24.5146C27.2504 24.4502 27.284 24.3652 27.284 24.2769C27.284 24.1886 27.2504 24.1036 27.1899 24.0392C27.1266 23.9766 27.0412 23.9416 26.9522 23.9416C26.8632 23.9416 26.7778 23.9766 26.7145 24.0392C26.3609 24.4952 25.8119 25.0881 25.1668 24.9698C24.8069 24.8771 24.4666 24.7206 24.1619 24.5078C23.8151 24.2963 23.4745 24.0739 23.1371 23.8479L22.9674 24.4744C24.2957 24.5207 25.6239 24.5669 26.9522 24.6131C27.385 24.6281 27.3844 23.9557 26.9522 23.9407Z" fill="white"/>
<path d="M15.3128 20.2761C16.0411 20.7511 16.7951 21.1866 17.5585 21.6026C17.8248 21.7477 18.0933 21.8891 18.3623 22.0291C17.1774 19.5431 15.716 17.1986 14.0057 15.04C13.4104 15.6369 13.0255 16.4112 12.9093 17.2462L12.9096 17.2477C12.9096 18.722 14.2017 19.5513 15.3128 20.2761Z" fill="white"/>
<path d="M15.1432 20.5663C16.1278 21.2048 17.1525 21.777 18.1926 22.3194C18.2568 22.3544 18.3307 22.3677 18.4032 22.3572C18.4756 22.3467 18.5427 22.3131 18.5945 22.2614C18.6463 22.2096 18.6799 22.1425 18.6903 22.07C18.7008 21.9976 18.6875 21.9237 18.6525 21.8594C17.4506 19.35 15.9716 16.9829 14.2433 14.8024C14.18 14.7397 14.0946 14.7046 14.0056 14.7046C13.9165 14.7046 13.8311 14.7397 13.7678 14.8024C12.9343 15.7307 12.265 16.9791 12.7592 18.2255C13.1862 19.3022 14.2135 19.96 15.1432 20.5663C15.5067 20.8034 15.844 20.2216 15.4828 19.9859C14.7259 19.4923 13.8654 18.9708 13.4496 18.1327C13.2377 17.7166 13.1969 17.2341 13.3359 16.7884C13.5224 16.2236 13.8325 15.7076 14.2437 15.2779H13.768C15.456 17.4173 16.8997 19.7387 18.0721 22.1988L18.5321 21.7388C17.4918 21.1964 16.4673 20.6244 15.4828 19.9859C15.1185 19.7498 14.781 20.3315 15.1432 20.5663Z" fill="white"/>
<path d="M17.6016 23.029C16.3626 22.2382 15.0838 21.5068 13.8036 20.7874C13.1871 20.441 12.5682 20.0986 11.9471 19.7605C11.8712 19.7192 11.7748 19.6771 11.6747 19.6313C11.5587 20.3159 11.6897 21.0195 12.0444 21.6164C12.6641 22.6418 13.646 23.0285 14.7827 23.0337C15.4454 23.0367 16.108 23.034 16.7706 23.0319C17.0476 23.0311 17.3246 23.0301 17.6016 23.029Z" fill="white"/>
<path d="M17.7713 22.7387C16.8169 22.1313 15.8419 21.5575 14.8589 20.9977C13.8694 20.4343 12.8813 19.8128 11.8446 19.3411C11.6727 19.2629 11.384 19.3061 11.3507 19.542C11.2291 20.237 11.3361 20.9526 11.6554 21.5817C11.9748 22.2108 12.4894 22.7194 13.1222 23.0315C13.7219 23.2794 14.368 23.3951 15.0165 23.3708C15.8782 23.3731 16.7398 23.3686 17.6015 23.3652C17.6887 23.3622 17.7712 23.3255 17.8318 23.2628C17.8924 23.2 17.9263 23.1162 17.9263 23.029C17.9263 22.9418 17.8924 22.858 17.8318 22.7953C17.7712 22.7326 17.6887 22.6958 17.6015 22.6928C16.8958 22.6956 16.19 22.6976 15.4843 22.6989C14.8775 22.7399 14.2681 22.6836 13.6791 22.5321C13.1153 22.3328 12.6388 21.9428 12.332 21.4295C12.0252 20.9161 11.9074 20.3118 11.999 19.7208L11.5051 19.9217C12.5419 20.3935 13.5299 21.0148 14.5194 21.5783C15.5024 22.1381 16.4774 22.7119 17.4318 23.3193C17.798 23.5524 18.1357 22.9707 17.7713 22.7387Z" fill="white"/>
<path d="M16.755 13.6974C16.0225 14.968 16.8122 16.622 17.3891 17.7929C17.8322 18.6923 18.337 19.5613 18.8668 20.4119C19.0726 20.7425 19.283 21.0702 19.4978 21.395C19.5987 20.1988 19.6592 18.999 19.6446 17.7984C19.668 16.3219 19.4882 14.8492 19.1101 13.4217C19.031 13.1346 18.9259 12.8553 18.796 12.5874C18.7841 12.5639 18.7702 12.5413 18.7575 12.5181C17.9465 12.6384 17.1866 12.9489 16.755 13.6974Z" fill="white"/>
<path d="M16.4648 13.5277C15.7894 14.7882 16.2693 16.1922 16.828 17.4001C17.5169 18.8454 18.3123 20.2374 19.2076 21.5648C19.2462 21.6264 19.3036 21.6739 19.3713 21.7005C19.4391 21.727 19.5135 21.731 19.5837 21.712C19.6539 21.693 19.7161 21.6519 19.7612 21.5948C19.8063 21.5378 19.8318 21.4677 19.8341 21.395C19.9821 19.7803 20.0177 18.1572 19.9405 16.5375C19.8627 15.1658 19.7274 13.573 19.048 12.3484C19.0093 12.2856 18.9517 12.2368 18.8834 12.209C18.8152 12.1812 18.7398 12.1758 18.6683 12.1937C18.2251 12.2386 17.7974 12.3815 17.4162 12.6122C17.0351 12.8429 16.7101 13.1558 16.4648 13.5277C16.2372 13.8972 16.8186 14.235 17.0454 13.8669C17.4472 13.2146 18.1204 12.9591 18.8471 12.8421L18.4674 12.6874C18.7572 13.2857 18.9516 13.9256 19.0437 14.584C19.178 15.3336 19.2582 16.0919 19.2837 16.8531C19.3381 18.368 19.2974 19.8848 19.1617 21.3946L19.7882 21.225C18.9901 20.0351 18.2681 18.796 17.6264 17.515C17.0985 16.4376 16.4172 15.0393 17.0454 13.8669C17.2498 13.4859 16.6695 13.1458 16.4648 13.5277Z" fill="white"/>
<path d="M15.8462 25.1306C16.4309 24.8433 16.9919 24.5101 17.5238 24.134L13.5239 24.2743C14.0858 25.0091 14.9118 25.5719 15.8462 25.1306Z" fill="white"/>
<path d="M16.0159 25.4209C16.5997 25.132 17.1606 24.7989 17.6935 24.4243C17.7553 24.3858 17.803 24.3284 17.8296 24.2606C17.8562 24.1929 17.8603 24.1184 17.8413 24.0481C17.8222 23.9778 17.7811 23.9156 17.7239 23.8705C17.6668 23.8254 17.5966 23.8 17.5239 23.7979L13.5239 23.9381C13.4584 23.9402 13.3949 23.9612 13.341 23.9985C13.2871 24.0358 13.2451 24.0879 13.22 24.1484C13.195 24.209 13.1879 24.2755 13.1996 24.34C13.2113 24.4044 13.2414 24.4642 13.2862 24.512C13.5937 24.9332 14.0061 25.2667 14.4823 25.4793C14.7278 25.5773 14.9911 25.6228 15.2553 25.6127C15.5194 25.6026 15.7785 25.5373 16.0159 25.4209C16.0924 25.3755 16.1479 25.3017 16.1705 25.2157C16.1931 25.1296 16.1809 25.0381 16.1365 24.9609C16.09 24.8855 16.0163 24.8309 15.9307 24.8085C15.845 24.786 15.754 24.7974 15.6765 24.8403C14.9036 25.1879 14.2146 24.6197 13.7617 24.0366L13.5239 24.6105L17.5239 24.4703L17.3542 23.8437C16.8212 24.2183 16.2603 24.5514 15.6765 24.8403C15.2863 25.0269 15.627 25.6068 16.0159 25.4209Z" fill="white"/>
<defs>
<linearGradient id="paint0_linear_2001_2611" x1="5.12316" y1="31.0676" x2="34.1471" y2="9.00234" gradientUnits="userSpaceOnUse">
<stop stop-color="#CF0A2C"/>
<stop offset="0.2949" stop-color="#DF1E4A"/>
<stop offset="0.7605" stop-color="#F63A73"/>
<stop offset="1" stop-color="#FF4583"/>
</linearGradient>
</defs>
</svg>
