<svg width="40" height="39" viewBox="0 0 40 39" fill="none" xmlns="http://www.w3.org/2000/svg">
<path d="M30.0411 9.6256C27.9499 4.60603 24.3088 1.2843 20.1667 1.2843C16.0247 1.2843 12.3836 4.60603 10.2923 9.6256C5.27277 11.7168 1.95105 15.3579 1.95105 19.5C1.95105 23.6421 5.27277 27.2832 10.2923 29.3744C12.3836 34.394 16.0247 37.7157 20.1667 37.7157C24.3088 37.7157 27.9499 34.394 30.0411 29.3744C35.0607 27.2832 38.3824 23.6421 38.3824 19.5C38.3824 15.3579 35.0607 11.7168 30.0411 9.6256Z" fill="url(#paint0_linear_2001_878)"/>
<path d="M15.349 15.3008C15.2 15.1781 15.0627 15.0419 14.9388 14.8939C14.9012 14.8505 14.8805 14.795 14.8805 14.7376C14.8805 14.6802 14.9012 14.6247 14.9388 14.5813C15.4798 14.0122 16.1101 13.5352 16.8048 13.1692C17.1645 12.9809 17.2217 12.9372 17.2586 12.9809C17.2956 13.0246 17.1813 13.1188 16.9594 13.3575C16.8283 13.4987 16.6972 13.6433 16.6064 13.7576C16.2512 14.2022 15.9562 14.6916 15.7289 15.2133C15.7128 15.2472 15.6892 15.2769 15.66 15.3004C15.6308 15.3239 15.5966 15.3404 15.5601 15.3488C15.5235 15.3572 15.4856 15.3573 15.449 15.349C15.4125 15.3406 15.3783 15.3241 15.349 15.3008Z" fill="white"/>
<path d="M14.2933 15.8756C14.5408 16.1127 14.8124 16.3234 15.1035 16.5043C15.1472 16.5298 15.1814 16.5689 15.2008 16.6157C15.2203 16.6624 15.2239 16.7142 15.2111 16.7632C15.1439 17.0187 15.0867 17.2742 15.0329 17.5331C14.6874 18.8938 14.6324 20.312 14.8715 21.6953C14.8816 21.7837 14.8677 21.8731 14.8312 21.9542C14.8036 22.0316 14.7485 22.0962 14.6765 22.1358C14.5252 22.2299 14.263 22.4115 13.91 22.667C13.8803 22.6882 13.8462 22.7025 13.8103 22.7091C13.7744 22.7156 13.7375 22.7142 13.7022 22.7049C13.6669 22.6956 13.6341 22.6787 13.6061 22.6553C13.5781 22.6318 13.5556 22.6026 13.5402 22.5695C13.1221 21.5983 12.9135 20.5499 12.928 19.4926C12.9424 18.4354 13.1797 17.3931 13.6242 16.4337C13.7116 16.2555 13.8058 16.0975 13.91 15.916C13.9298 15.8846 13.9564 15.8581 13.9879 15.8385C14.0194 15.8189 14.055 15.8067 14.0918 15.8029C14.1287 15.799 14.166 15.8035 14.2009 15.8161C14.2358 15.8287 14.2674 15.849 14.2933 15.8756Z" fill="white"/>
<path d="M16.6602 25.6794C16.7812 25.8005 16.909 25.9148 17.0401 26.0157C17.1712 26.1165 17.1846 26.1367 17.1678 26.1602C17.151 26.1838 17.0804 26.1602 16.9291 26.0896C16.2643 25.7891 15.6542 25.3801 15.1237 24.8793C14.8607 24.626 14.619 24.3517 14.4008 24.0589C14.3807 24.0346 14.3657 24.0065 14.3566 23.9763C14.3475 23.9461 14.3446 23.9144 14.3481 23.883C14.3515 23.8516 14.3613 23.8213 14.3767 23.7937C14.3921 23.7662 14.4129 23.7421 14.4378 23.7227C14.6039 23.5807 14.7779 23.4483 14.959 23.326C14.9901 23.3041 15.026 23.2896 15.0636 23.2837C15.1013 23.2779 15.1398 23.2807 15.1762 23.2921C15.2126 23.3035 15.2459 23.323 15.2735 23.3493C15.3011 23.3756 15.3223 23.4079 15.3355 23.4437C15.6083 24.2768 16.0604 25.04 16.6602 25.6794Z" fill="white"/>
<path d="M16.5055 22.5527C17.4337 22.2541 18.3989 22.0855 19.3733 22.0517C19.4062 22.0494 19.4393 22.0539 19.4704 22.0648C19.5015 22.0757 19.53 22.0929 19.5543 22.1153C19.5785 22.1376 19.5979 22.1647 19.6113 22.1948C19.6247 22.2249 19.6318 22.2575 19.6322 22.2904L19.6087 25.8879C19.6072 25.9294 19.5952 25.9699 19.5739 26.0055C19.5525 26.0411 19.5224 26.0707 19.4865 26.0916C19.4505 26.1124 19.4099 26.1238 19.3683 26.1246C19.3268 26.1254 19.2857 26.1157 19.249 26.0963C18.4017 25.6458 17.5679 25.1381 17.0771 24.3581C16.7788 23.8892 16.5362 23.3871 16.3542 22.862C16.3338 22.8009 16.3382 22.7342 16.3665 22.6764C16.3948 22.6185 16.4447 22.5741 16.5055 22.5527Z" fill="white"/>
<path d="M15.9205 19.658C15.9634 18.8696 16.0816 18.0872 16.2735 17.3213C16.2811 17.2893 16.2954 17.2592 16.3152 17.2329C16.3351 17.2066 16.3602 17.1848 16.3889 17.1687C16.4177 17.1526 16.4494 17.1426 16.4822 17.1393C16.515 17.1361 16.5481 17.1397 16.5794 17.1499C17.5059 17.3908 18.4597 17.5106 19.417 17.5063C19.4809 17.5071 19.542 17.5329 19.5872 17.5781C19.6324 17.6233 19.6582 17.6844 19.6591 17.7483L19.6389 20.6767C19.6381 20.7383 19.6135 20.7971 19.5702 20.841C19.527 20.8849 19.4685 20.9103 19.4069 20.912C18.3547 20.9517 17.3118 21.1257 16.3037 21.4298C16.2702 21.4416 16.2344 21.4458 16.1991 21.4422C16.1637 21.4386 16.1295 21.4272 16.099 21.4089C16.0686 21.3906 16.0425 21.3659 16.0226 21.3363C16.0028 21.3068 15.9897 21.2733 15.9843 21.2382C15.9227 20.7138 15.9014 20.1856 15.9205 19.658Z" fill="white"/>
<path d="M17.1578 14.9612C17.713 14.112 18.4474 13.3948 19.3095 12.8599C19.3465 12.8365 19.389 12.8234 19.4327 12.822C19.4764 12.8206 19.5196 12.8309 19.558 12.8518C19.5964 12.8727 19.6285 12.9035 19.651 12.941C19.6735 12.9784 19.6856 13.0212 19.6861 13.065C19.6861 14.0736 19.6861 15.1158 19.6861 16.1379C19.6856 16.1697 19.6789 16.2011 19.6664 16.2303C19.6538 16.2595 19.6356 16.2859 19.6128 16.3081C19.59 16.3302 19.5631 16.3477 19.5335 16.3595C19.504 16.3712 19.4724 16.377 19.4406 16.3766C18.591 16.3894 17.7433 16.2911 16.9191 16.0841C16.8875 16.075 16.858 16.0595 16.8327 16.0386C16.8073 16.0176 16.7866 15.9916 16.7718 15.9623C16.7569 15.9329 16.7483 15.9008 16.7465 15.868C16.7446 15.8351 16.7496 15.8023 16.7611 15.7714C16.8664 15.489 16.9993 15.2176 17.1578 14.9612Z" fill="white"/>
<path d="M25.0418 15.3008C25.1868 15.177 25.3207 15.0409 25.4419 14.8939C25.4783 14.85 25.4982 14.7947 25.4982 14.7376C25.4982 14.6805 25.4783 14.6253 25.4419 14.5813C24.9167 14.0145 24.3023 13.5375 23.623 13.1692C23.2868 12.9809 23.2162 12.9372 23.1793 12.9809C23.1423 13.0246 23.2532 13.1188 23.4718 13.3575C23.5995 13.4987 23.7273 13.6433 23.808 13.7576C24.1545 14.2044 24.4426 14.6936 24.6653 15.2133C24.6805 15.2476 24.7035 15.2778 24.7323 15.3017C24.7612 15.3256 24.7953 15.3424 24.8318 15.3509C24.8683 15.3594 24.9063 15.3592 24.9427 15.3505C24.9792 15.3418 25.0131 15.3248 25.0418 15.3008Z" fill="white"/>
<path d="M26.0707 15.8756C25.8315 16.114 25.5665 16.3248 25.2806 16.5044C25.2379 16.5307 25.2047 16.5701 25.186 16.6167C25.1672 16.6633 25.1639 16.7146 25.1764 16.7632C25.2403 17.0188 25.2974 17.2743 25.3512 17.5331C25.6855 18.8955 25.7393 20.3116 25.5092 21.6954C25.4992 21.7834 25.5119 21.8726 25.5462 21.9543C25.573 22.0311 25.6268 22.0956 25.6975 22.1358C25.8488 22.23 26.1043 22.4115 26.4439 22.667C26.473 22.6882 26.5066 22.7025 26.542 22.709C26.5774 22.7156 26.6139 22.7141 26.6487 22.7048C26.6834 22.6954 26.7157 22.6784 26.7431 22.655C26.7705 22.6316 26.7923 22.6024 26.807 22.5695C27.2159 21.5961 27.4197 20.5489 27.4059 19.4932C27.392 18.4375 27.1606 17.396 26.7263 16.4338C26.6422 16.2556 26.5481 16.0975 26.4472 15.916C26.4282 15.8847 26.4022 15.8583 26.3712 15.8387C26.3403 15.8191 26.3053 15.8069 26.2689 15.803C26.2325 15.7991 26.1957 15.8036 26.1613 15.8162C26.127 15.8288 26.0959 15.8492 26.0707 15.8756Z" fill="white"/>
<path d="M23.7609 25.6794C23.6398 25.8004 23.5154 25.9125 23.3877 26.0156C23.2801 26.1064 23.2465 26.1366 23.2667 26.1601C23.2868 26.1837 23.3507 26.1601 23.4986 26.0895C24.1529 25.7883 24.7519 25.3791 25.2704 24.8792C25.528 24.6257 25.7642 24.3513 25.9765 24.0589C25.9966 24.0346 26.0117 24.0065 26.0207 23.9762C26.0298 23.946 26.0327 23.9143 26.0292 23.8829C26.0258 23.8515 26.0161 23.8212 26.0006 23.7937C25.9852 23.7661 25.9644 23.742 25.9395 23.7226C25.778 23.5808 25.6085 23.4483 25.4318 23.3259C25.4015 23.3039 25.3664 23.2894 25.3294 23.2835C25.2924 23.2776 25.2545 23.2805 25.2188 23.2919C25.1831 23.3034 25.1506 23.3231 25.124 23.3494C25.0973 23.3758 25.0772 23.4081 25.0654 23.4436C24.7979 24.2747 24.3527 25.0376 23.7609 25.6794Z" fill="white"/>
<path d="M23.9088 22.5527C23.0048 22.2541 22.063 22.0855 21.1116 22.0518C21.079 22.0494 21.0463 22.0539 21.0155 22.0649C20.9848 22.0759 20.9566 22.0931 20.9329 22.1156C20.9092 22.138 20.8904 22.1652 20.8778 22.1953C20.8651 22.2254 20.8589 22.2578 20.8594 22.2905L20.8796 25.8879C20.8807 25.9288 20.8922 25.9688 20.913 26.0041C20.9338 26.0394 20.9632 26.0688 20.9985 26.0897C21.0337 26.1105 21.0737 26.122 21.1147 26.1232C21.1556 26.1244 21.1962 26.1151 21.2326 26.0963C22.0597 25.6458 22.8733 25.1381 23.3541 24.3581C23.6459 23.8886 23.8818 23.3865 24.0567 22.862C24.0674 22.832 24.072 22.8002 24.0703 22.7684C24.0686 22.7366 24.0607 22.7054 24.047 22.6767C24.0332 22.6479 24.0139 22.6222 23.9902 22.6009C23.9665 22.5796 23.9389 22.5633 23.9088 22.5527Z" fill="white"/>
<path d="M24.4837 19.6579C24.4458 18.8701 24.3333 18.0877 24.1475 17.3213C24.1407 17.2895 24.1272 17.2595 24.108 17.2332C24.0888 17.207 24.0643 17.1851 24.0361 17.1689C24.0079 17.1527 23.9766 17.1427 23.9442 17.1394C23.9119 17.1361 23.8792 17.1396 23.8483 17.1498C22.9447 17.3908 22.0131 17.5106 21.0779 17.5062C21.0149 17.5079 20.9551 17.5342 20.9111 17.5794C20.8671 17.6246 20.8426 17.6852 20.8426 17.7482L20.8392 20.6766C20.8392 20.7379 20.8631 20.7967 20.9058 20.8407C20.9485 20.8846 21.0066 20.9102 21.0679 20.9119C22.0946 20.9527 23.1118 21.1268 24.0937 21.4297C24.1269 21.4409 24.1621 21.4447 24.1968 21.4408C24.2316 21.4369 24.2651 21.4254 24.2949 21.4071C24.3248 21.3888 24.3502 21.3642 24.3695 21.335C24.3887 21.3058 24.4013 21.2727 24.4064 21.2381C24.4691 20.7138 24.495 20.1858 24.4837 19.6579Z" fill="white"/>
<path d="M23.2734 14.9611C22.7371 14.1149 22.0208 13.3975 21.1755 12.8598C21.1391 12.8368 21.0972 12.824 21.0542 12.8228C21.0112 12.8217 20.9686 12.8321 20.9311 12.8532C20.8935 12.8742 20.8624 12.9049 20.8409 12.9422C20.8194 12.9795 20.8084 13.0219 20.809 13.0649C20.809 14.0892 20.8146 15.1135 20.8258 16.1379C20.8258 16.2012 20.8509 16.2619 20.8957 16.3066C20.9405 16.3514 21.0012 16.3766 21.0645 16.3766C21.8953 16.3892 22.7241 16.2908 23.5289 16.0841C23.5602 16.0747 23.5892 16.0589 23.6141 16.0378C23.639 16.0166 23.6592 15.9905 23.6734 15.9611C23.6877 15.9316 23.6956 15.8996 23.6968 15.8669C23.6979 15.8343 23.6923 15.8017 23.6802 15.7714C23.5719 15.4884 23.4356 15.217 23.2734 14.9611Z" fill="white"/>
<defs>
<linearGradient id="paint0_linear_2001_878" x1="38.3824" y1="1.28468" x2="-0.134442" y2="2.07204" gradientUnits="userSpaceOnUse">
<stop stop-color="#00C3FF"/>
<stop offset="1" stop-color="#005FF4"/>
</linearGradient>
</defs>
</svg>
