<svg width="39" height="39" viewBox="0 0 39 39" fill="none" xmlns="http://www.w3.org/2000/svg">
<path d="M36.9613 18.1859C37.208 18.3208 37.4139 18.5196 37.5573 18.7614C37.7007 19.0033 37.7764 19.2793 37.7764 19.5605C37.7764 19.8417 37.7007 20.1177 37.5573 20.3596C37.4139 20.6014 37.208 20.8002 36.9613 20.9351C30.1968 24.6348 24.6349 30.1966 20.9353 36.9612C20.8004 37.2079 20.6016 37.4138 20.3597 37.5572C20.1178 37.7006 19.8418 37.7763 19.5606 37.7763C19.2794 37.7763 19.0034 37.7006 18.7616 37.5572C18.5197 37.4138 18.3209 37.2079 18.186 36.9612C14.4863 30.1966 8.92449 24.6348 2.15993 20.9351C1.91322 20.8002 1.70735 20.6014 1.56394 20.3596C1.42052 20.1177 1.34485 19.8417 1.34485 19.5605C1.34485 19.2793 1.42052 19.0033 1.56394 18.7614C1.70735 18.5196 1.91322 18.3208 2.15993 18.1859C8.92449 14.4862 14.4863 8.92437 18.186 2.15981C18.3209 1.91309 18.5197 1.70723 18.7616 1.56382C19.0034 1.4204 19.2794 1.34473 19.5606 1.34473C19.8418 1.34473 20.1178 1.4204 20.3597 1.56382C20.6016 1.70723 20.8004 1.91309 20.9353 2.15981C24.6349 8.92437 30.1968 14.4862 36.9613 18.1859Z" fill="url(#paint0_linear_2001_1276)"/>
<path fill-rule="evenodd" clip-rule="evenodd" d="M24.7906 14.4418C24.7756 14.307 24.7106 14.1827 24.6086 14.0934C24.4632 13.9924 24.2896 13.9401 24.1127 13.9438C23.6314 13.9523 22.8931 14.2105 19.3396 15.6967C18.0951 16.2172 15.6077 17.2946 11.8775 18.9288C11.2718 19.1709 10.9545 19.4078 10.9256 19.6396C10.8701 20.0845 11.507 20.223 12.3084 20.4849C12.9514 20.717 13.6187 20.8758 14.2974 20.9582C14.8024 20.9355 15.2876 20.7553 15.685 20.4428C19.1702 18.0772 20.9693 16.8814 21.0822 16.8556C21.1253 16.8387 21.1717 16.8323 21.2178 16.8367C21.2638 16.8412 21.3082 16.8565 21.3472 16.8814C21.374 16.9122 21.3934 16.9487 21.4037 16.9882C21.414 17.0276 21.4151 17.069 21.4067 17.1089C21.3433 17.3806 18.0694 20.375 17.881 20.5718C17.161 21.3238 16.342 21.7839 17.6053 22.6211C18.6984 23.3454 19.3346 23.8075 20.4608 24.5498C21.1806 25.0242 21.7448 25.5868 22.4878 25.518C22.8297 25.4863 23.1828 25.1631 23.3622 24.1989C23.7862 21.9202 24.6194 16.9829 24.8119 14.9484C24.8237 14.7793 24.8165 14.6094 24.7906 14.4418Z" fill="white"/>
<defs>
<linearGradient id="paint0_linear_2001_1276" x1="6.19986" y1="31.9875" x2="32.8761" y2="7.17568" gradientUnits="userSpaceOnUse">
<stop stop-color="#00CCFF"/>
<stop offset="0.9965" stop-color="#0095FF"/>
</linearGradient>
</defs>
</svg>
