<svg width="39" height="39" viewBox="0 0 39 39" fill="none" xmlns="http://www.w3.org/2000/svg">
<path d="M36.902 20.875C30.1366 24.5743 24.5743 30.1366 20.875 36.902C20.7402 37.1489 20.5414 37.355 20.2994 37.4986C20.0574 37.6421 19.7813 37.7179 19.4999 37.7179C19.2186 37.7179 18.9424 37.6421 18.7005 37.4986C18.4585 37.355 18.2597 37.1489 18.1248 36.902C14.4256 30.1366 8.86328 24.5743 2.09787 20.875C1.85093 20.7402 1.64487 20.5414 1.5013 20.2994C1.35774 20.0574 1.28198 19.7813 1.28198 19.4999C1.28198 19.2186 1.35774 18.9424 1.5013 18.7005C1.64487 18.4585 1.85093 18.2597 2.09787 18.1248C8.86328 14.4256 14.4256 8.86328 18.1248 2.09787C18.2597 1.85093 18.4585 1.64487 18.7005 1.5013C18.9424 1.35774 19.2186 1.28198 19.4999 1.28198C19.7813 1.28198 20.0574 1.35774 20.2994 1.5013C20.5414 1.64487 20.7402 1.85093 20.875 2.09787C24.5743 8.86328 30.1366 14.4256 36.902 18.1248C37.1489 18.2597 37.355 18.4585 37.4986 18.7005C37.6421 18.9424 37.7179 19.2186 37.7179 19.4999C37.7179 19.7813 37.6421 20.0574 37.4986 20.2994C37.355 20.5414 37.1489 20.7402 36.902 20.875Z" fill="url(#paint0_linear_2001_949)"/>
<path d="M16.0538 24.022C15.8252 23.6387 15.6873 23.1983 15.4654 22.8285C15.367 22.6364 15.1985 22.4895 14.9947 22.4183C14.7695 22.3645 14.7258 22.5696 14.6216 22.7243C14.4994 22.8649 14.35 22.9794 14.1825 23.0609C14.0149 23.1424 13.8326 23.1891 13.6466 23.1983C13.4551 23.2159 13.269 23.2707 13.0985 23.3597C12.8901 23.4908 12.9069 23.6959 12.9607 23.8976C13.0522 24.1092 13.0858 24.3412 13.0582 24.57C13.0212 24.7718 12.9035 24.9533 12.8464 25.1517C12.7892 25.35 12.9103 25.4139 13.1019 25.4879C13.3348 25.5556 13.5717 25.6084 13.8113 25.6459C14.2576 25.725 14.6887 25.8736 15.0889 26.0863C15.2922 26.2149 15.5222 26.2954 15.7613 26.3217C15.9911 26.3222 16.2163 26.2568 16.4102 26.1334C16.5982 26.0474 16.7452 25.8914 16.8199 25.6986C16.8947 25.5058 16.8912 25.2915 16.8103 25.1012C16.5784 24.7277 16.3259 24.3674 16.0538 24.022Z" fill="white"/>
<path d="M19.9673 24.6137C19.5544 24.7735 19.1184 24.8654 18.6762 24.886C18.3677 24.8789 18.0623 24.8222 17.7718 24.7179C17.5835 24.6473 17.4659 24.5968 17.4356 24.6338C17.4054 24.6708 17.4793 24.8524 17.5331 24.97C17.61 25.2378 17.6485 25.5152 17.6474 25.7937C17.647 25.8285 17.654 25.863 17.6679 25.8949C17.6818 25.9268 17.7023 25.9553 17.7281 25.9787C17.7516 26.0006 17.7802 26.0164 17.8113 26.0246C17.8424 26.0328 17.875 26.0332 17.9063 26.0257C18.1417 25.9955 18.377 25.9282 18.6157 25.9148C19.2007 25.8778 19.7554 26.1568 20.3337 26.251C20.38 26.2666 20.4301 26.2664 20.4763 26.2506C20.5225 26.2348 20.5622 26.2042 20.5892 26.1636C20.647 26.0958 20.6843 26.013 20.6968 25.9249C20.7942 25.4883 20.9223 25.0591 21.0801 24.6406C21.0937 24.5995 21.0958 24.5556 21.0861 24.5134C21.0764 24.4713 21.0553 24.4327 21.0251 24.4018C20.9949 24.3709 20.9567 24.3489 20.9148 24.3382C20.8729 24.3275 20.8289 24.3286 20.7876 24.3413C20.4682 24.4523 20.1925 24.5431 19.9673 24.6137Z" fill="white"/>
<path d="M14.6384 21.6483C14.7993 21.6044 14.9686 21.6011 15.1312 21.6386C15.2937 21.6762 15.4444 21.7534 15.5697 21.8635C15.6605 21.9341 15.6672 21.9644 15.7479 21.9341C15.8286 21.9039 15.7983 21.8837 15.7983 21.7761C15.7934 21.5988 15.8001 21.4213 15.8185 21.2449C16.0001 19.3521 17.2373 18.3602 17.6172 16.8002C17.6542 16.6422 17.6643 16.5447 17.7786 16.4943C17.8929 16.4439 17.977 16.464 18.098 16.538L18.2661 16.6456C18.4124 16.772 18.5842 16.8653 18.7699 16.9193C18.9556 16.9733 19.1507 16.9865 19.3419 16.9583C19.6537 16.8455 19.948 16.6893 20.2161 16.4943C20.401 16.3934 20.6061 16.3464 20.7977 16.2623C20.8288 16.246 20.8631 16.2368 20.8981 16.2354C20.9332 16.234 20.9681 16.2405 21.0003 16.2544C21.0326 16.2682 21.0613 16.2891 21.0844 16.3155C21.1075 16.3419 21.1244 16.3731 21.1339 16.4069C21.2987 16.9179 21.4701 17.3516 21.608 17.6946C22.2333 19.1772 22.7309 19.7589 22.862 21.0566C22.8788 21.2591 22.8788 21.4627 22.862 21.6652C22.8533 21.7369 22.8699 21.8095 22.9091 21.8702C22.9394 21.9202 22.9768 21.9655 23.0201 22.0047C23.1033 22.0815 23.2054 22.1348 23.3159 22.1594C23.4643 22.1795 23.6147 22.1795 23.7631 22.1594C23.9643 22.1248 24.1676 22.1035 24.3716 22.0955C24.4042 22.0954 24.4364 22.0888 24.4665 22.0761C24.4965 22.0634 24.5237 22.0449 24.5464 22.0215C24.5753 21.9978 24.5986 21.968 24.6149 21.9343C24.6311 21.9007 24.6399 21.8639 24.6406 21.8265C24.7741 20.5717 24.5145 19.3064 23.8976 18.2056C23.3697 17.2844 22.5897 16.4808 22.3443 15.4487C22.0988 14.4165 22.3981 13.3743 22.082 12.4027C21.9002 11.8856 21.5592 11.4395 21.108 11.1284C20.6567 10.8173 20.1185 10.6572 19.5706 10.6712C19.0334 10.6554 18.507 10.8238 18.0789 11.1486C17.6507 11.4734 17.3466 11.9349 17.2171 12.4564C17.0188 13.4483 17.3617 14.514 17.0826 15.4823C16.7464 16.7095 15.6807 17.5937 15.0351 18.6931C14.5795 19.5019 14.3474 20.4175 14.3627 21.3458C14.3557 21.396 14.3612 21.4471 14.3788 21.4947C14.3964 21.5422 14.4255 21.5846 14.4636 21.6181C14.4881 21.6368 14.5168 21.6494 14.5473 21.6547C14.5777 21.6599 14.609 21.6578 14.6384 21.6483ZM20.5624 15.7177C20.3674 15.8286 20.1354 15.8589 19.937 15.9597C19.7387 16.0606 19.5571 16.2186 19.352 16.3161C19.2466 16.361 19.1306 16.375 19.0175 16.3566C18.9045 16.3381 18.7989 16.2879 18.7132 16.2119C18.4644 16.0505 18.2089 15.8925 17.9702 15.7177C17.829 15.6134 17.7147 15.4991 17.8526 15.3377C17.935 15.2623 18.0251 15.1958 18.1215 15.1394C18.2257 15.0587 18.3199 14.9679 18.4174 14.8805C18.5087 14.784 18.6243 14.7137 18.752 14.6771C18.8797 14.6404 19.015 14.6387 19.1436 14.6721C19.4563 14.746 19.6916 14.9646 19.9908 15.0587C20.213 15.0787 20.424 15.1654 20.596 15.3075C20.7137 15.4655 20.7305 15.6202 20.5624 15.7177ZM19.4495 13.4146C19.5069 13.288 19.593 13.1765 19.7009 13.089C19.8089 13.0014 19.9358 12.9403 20.0715 12.9103C20.1688 12.904 20.2663 12.9189 20.3573 12.954C20.5861 13.0475 20.7711 13.224 20.8751 13.4483C20.9341 13.5985 20.959 13.76 20.9479 13.9211C20.9369 14.0822 20.8902 14.2388 20.8112 14.3796C20.7864 14.4302 20.7443 14.4703 20.6924 14.4925C20.6406 14.5147 20.5825 14.5176 20.5288 14.5006C20.4145 14.4602 20.2968 14.4266 20.1926 14.3964C20.053 14.3347 19.9181 14.2628 19.7891 14.1812C19.696 14.1353 19.5993 14.0971 19.5 14.0669C19.4498 14.0509 19.4066 14.0181 19.3778 13.974C19.3491 13.9299 19.3364 13.8772 19.3419 13.8248C19.3502 13.6823 19.3868 13.5429 19.4495 13.4146ZM17.513 13.7845C17.513 13.6702 17.597 13.1121 17.9501 13.0112C18.0959 12.98 18.2482 13.0078 18.3737 13.0885C18.5448 13.1981 18.6657 13.3709 18.7099 13.5693C18.7317 13.6462 18.7463 13.725 18.7536 13.8046C18.7653 13.8729 18.7496 13.943 18.7099 13.9996C18.6359 14.077 18.5619 14.0568 18.4779 14.0871C18.3362 14.1345 18.205 14.2087 18.0913 14.3056C18.0341 14.3527 17.9837 14.4031 17.9332 14.4535C17.9133 14.4771 17.8878 14.4952 17.859 14.5064C17.8302 14.5176 17.7991 14.5213 17.7685 14.5174C17.6979 14.5174 17.6643 14.4905 17.6307 14.4098C17.5376 14.2152 17.497 13.9996 17.513 13.7845Z" fill="white"/>
<path d="M25.0709 24.2708C24.9523 24.1446 24.8612 23.9952 24.8033 23.832C24.7454 23.6688 24.7221 23.4954 24.7347 23.3227C24.7145 23.0806 24.6507 22.9058 24.3985 22.8621C24.1903 22.8452 23.9808 22.8588 23.7765 22.9024C23.5551 22.9514 23.3256 22.9514 23.1041 22.9024C22.913 22.8199 22.7369 22.7063 22.583 22.5662C22.3712 22.4284 22.1728 22.7141 22.0988 22.9024C22.0152 23.1173 21.9675 23.3445 21.9576 23.5748C21.9198 24.0705 21.8204 24.5595 21.6618 25.0306C21.5206 25.424 21.2886 25.9417 21.6214 26.3048C21.7747 26.4456 21.9614 26.5448 22.1639 26.593C22.3663 26.6413 22.5777 26.637 22.778 26.5805C23.1882 26.4629 23.4504 26.056 23.7463 25.7871C24.0913 25.5229 24.4592 25.29 24.8457 25.0911C24.9734 25.0172 25.2457 24.8827 25.2995 24.7314C25.3533 24.5801 25.1583 24.3716 25.0709 24.2708Z" fill="white"/>
<path d="M19.7252 13.9324V13.9526C19.7252 14.003 19.7252 13.8652 19.7252 13.9156C19.7252 13.9661 19.7252 13.9728 19.7252 14.003C19.7252 14.0333 19.7252 14.1005 19.7017 14.1476C19.668 14.309 19.7824 14.4098 19.9572 14.4502C20.132 14.4905 20.2598 14.5813 20.2934 14.4065C20.327 14.2317 20.3539 14.0703 20.3674 13.9324C20.3634 13.8496 20.3289 13.7711 20.2705 13.7122C20.2122 13.6532 20.1341 13.6179 20.0513 13.613C19.9679 13.6171 19.889 13.6521 19.83 13.7111C19.771 13.7701 19.736 13.849 19.7319 13.9324H19.7252Z" fill="white"/>
<path d="M17.819 14.0131C17.819 14.1073 17.8761 14.3494 17.8929 14.4603C17.9097 14.5712 17.9299 14.4603 17.9871 14.4771C18.0442 14.4939 18.1451 14.3594 18.2157 14.3359C18.2863 14.3124 18.3199 14.3359 18.3569 14.2586C18.3939 14.1813 18.4308 14.2283 18.4208 14.1443V14.1207V14.2014C18.4109 14.139 18.4042 14.0762 18.4006 14.0131C18.405 13.9719 18.4007 13.9301 18.3879 13.8906C18.3752 13.8511 18.3542 13.8148 18.3265 13.7839C18.2987 13.753 18.2648 13.7283 18.2269 13.7114C18.189 13.6945 18.1479 13.6858 18.1064 13.6858C18.0649 13.6858 18.0239 13.6945 17.9859 13.7114C17.948 13.7283 17.9141 13.753 17.8864 13.7839C17.8586 13.8148 17.8377 13.8511 17.8249 13.8906C17.8121 13.9301 17.8078 13.9719 17.8122 14.0131H17.819Z" fill="white"/>
<defs>
<linearGradient id="paint0_linear_2001_949" x1="37.7179" y1="1.28236" x2="-0.803768" y2="2.06982" gradientUnits="userSpaceOnUse">
<stop stop-color="#FBD72B"/>
<stop offset="1" stop-color="#F9484A"/>
</linearGradient>
</defs>
</svg>
