<svg width="40" height="39" viewBox="0 0 40 39" fill="none" xmlns="http://www.w3.org/2000/svg">
<path d="M37.5688 18.1248C37.8157 18.2597 38.0217 18.4585 38.1653 18.7005C38.3089 18.9424 38.3846 19.2186 38.3846 19.4999C38.3846 19.7813 38.3089 20.0574 38.1653 20.2994C38.0217 20.5414 37.8157 20.7402 37.5688 20.875C30.8033 24.5743 25.241 30.1366 21.5418 36.902C21.4069 37.1489 21.2081 37.355 20.9661 37.4986C20.7242 37.6421 20.448 37.7179 20.1667 37.7179C19.8853 37.7179 19.6092 37.6421 19.3672 37.4986C19.1253 37.355 18.9264 37.1489 18.7916 36.902C15.0923 30.1366 9.53003 24.5743 2.76461 20.875C2.51768 20.7402 2.31161 20.5414 2.16805 20.2994C2.02449 20.0574 1.94873 19.7813 1.94873 19.4999C1.94873 19.2186 2.02449 18.9424 2.16805 18.7005C2.31161 18.4585 2.51768 18.2597 2.76461 18.1248C9.53003 14.4256 15.0923 8.86328 18.7916 2.09787C18.9264 1.85093 19.1253 1.64487 19.3672 1.5013C19.6092 1.35774 19.8853 1.28198 20.1667 1.28198C20.448 1.28198 20.7242 1.35774 20.9661 1.5013C21.2081 1.64487 21.4069 1.85093 21.5418 2.09787C25.241 8.86328 30.8033 14.4256 37.5688 18.1248Z" fill="url(#paint0_linear_2001_2409)"/>
<path d="M24.5441 19.0662L24.84 17.1599L25.304 19.0662L27.1195 17.9601L25.7477 19.5066L27.2439 20.021L25.6234 19.9336L26.484 21.6853L25.23 20.2934L23.8078 21.8399L24.5206 19.9101L23.4178 19.9773L24.2012 19.4999L23.1455 18.8006L24.5441 19.0662Z" fill="white"/>
<path d="M16.102 23.1309L17.3594 24.1026L15.7994 23.6789L15.8767 25.4306L15.3051 23.8235L14.3402 24.6976L15.0496 23.5646L13.4459 23.4873L14.9454 23.1376L14.3974 21.4969L15.5069 22.7779L15.8969 21.9542L15.9271 22.7107L16.8517 22.2299L16.102 23.1309Z" fill="white"/>
<path d="M25.6838 14.7426C23.7873 14.0713 22.0572 13.0004 20.6104 11.6024L20.5297 11.5251C20.4345 11.4333 20.3073 11.382 20.175 11.382C20.0427 11.382 19.9156 11.4333 19.8203 11.5251L19.7396 11.6024C18.2935 13.0011 16.5632 14.0721 14.6663 14.7426C14.5679 14.7789 14.483 14.8444 14.4229 14.9304C14.3628 15.0163 14.3304 15.1185 14.3301 15.2234V18.5148C14.3309 19.155 14.3951 19.7936 14.5217 20.4211L15.3959 21.4298L15.527 21.1574C15.5772 21.0553 15.6553 20.9695 15.7523 20.91C15.8493 20.8505 15.9612 20.8197 16.075 20.8212C16.1152 20.8163 16.1558 20.8163 16.196 20.8212C16.3286 20.8482 16.4484 20.9188 16.5361 21.0218C16.6239 21.1248 16.6746 21.2542 16.6802 21.3894V21.4566L17.0803 21.2482C17.2065 21.1755 17.3546 21.1504 17.4977 21.1776C17.6408 21.2048 17.7694 21.2824 17.8601 21.3963C17.9509 21.5103 17.9978 21.653 17.9922 21.7985C17.9867 21.9441 17.9291 22.0829 17.83 22.1896L17.2181 22.9259L18.4184 23.8538C18.5302 23.9396 18.6088 24.0617 18.6407 24.199C18.6726 24.3364 18.6558 24.4806 18.5932 24.6069C18.53 24.7321 18.4257 24.8319 18.2978 24.8894C18.1699 24.9469 18.0261 24.9588 17.8905 24.9229L16.5827 24.5666V24.7851C17.1269 25.4427 17.7541 26.027 18.4486 26.5233L19.8708 27.5319C19.9568 27.5942 20.0604 27.6278 20.1666 27.6278C20.2729 27.6278 20.3764 27.5942 20.4625 27.5319L21.8813 26.5233C23.5475 25.3409 24.8038 23.6686 25.4753 21.7391L25.24 21.4768L23.7674 23.0704C23.6729 23.1748 23.5447 23.2428 23.4053 23.2624C23.2658 23.2821 23.1239 23.2522 23.0042 23.178C22.885 23.1045 22.7949 22.9921 22.7489 22.8598C22.703 22.7275 22.7041 22.5834 22.7521 22.4518L23.3909 20.717L22.826 20.7506H22.7924C22.6603 20.7498 22.5321 20.706 22.427 20.6259C22.322 20.5458 22.2459 20.4337 22.2102 20.3065C22.1745 20.1793 22.1812 20.044 22.2292 19.9209C22.2772 19.7978 22.364 19.6937 22.4764 19.6243L22.7184 19.4764L22.0897 19.0629C21.9821 18.9901 21.9005 18.8849 21.8569 18.7625C21.8134 18.6401 21.8102 18.5069 21.8477 18.3825C21.8853 18.2582 21.9617 18.1491 22.0658 18.0713C22.1698 17.9934 22.296 17.9509 22.4259 17.95C22.464 17.9468 22.5022 17.9468 22.5402 17.95L23.8111 18.1921L24.1137 16.2354C24.1353 16.0964 24.2044 15.9692 24.3092 15.8754C24.414 15.7816 24.5481 15.7271 24.6886 15.721H24.7155C24.8513 15.7216 24.983 15.7676 25.0896 15.8517C25.1962 15.9357 25.2716 16.053 25.3039 16.1849L25.7376 17.9534L26.0234 17.7785V15.2234C26.0232 15.118 25.9905 15.0153 25.9297 14.9292C25.8689 14.8431 25.783 14.778 25.6838 14.7426Z" fill="white"/>
<defs>
<linearGradient id="paint0_linear_2001_2409" x1="38.3846" y1="1.28236" x2="-0.13702" y2="2.06982" gradientUnits="userSpaceOnUse">
<stop stop-color="#41DBF0"/>
<stop offset="1" stop-color="#4B4E99"/>
</linearGradient>
</defs>
</svg>
