<svg width="39" height="39" viewBox="0 0 39 39" fill="none" xmlns="http://www.w3.org/2000/svg">
<path d="M24.7281 36.8482C15.9262 36.8482 6.46529 29.5492 3.25115 20.401C-0.02014 11.0948 4.22615 2.87117 13.1121 2.19539C22.3477 1.49272 32.7499 9.17169 35.9439 19.194C39.0639 29.0213 33.8762 36.8482 24.7281 36.8482Z" fill="url(#paint0_linear_2001_2532)"/>
<path d="M26.4058 19.7017C26.8707 18.4722 26.8991 17.1203 26.4864 15.8723C25.5518 13.112 22.768 11.663 19.9506 12.2009C17.234 12.722 14.4301 14.2552 12.9508 16.6557C12.7341 17.0128 12.5474 17.3873 12.3927 17.7752C11.8277 18.8475 11.5945 20.0635 11.7226 21.2686C11.8507 22.4738 12.3344 23.6136 13.1121 24.5431C15.4152 27.2764 19.3656 26.9806 22.257 25.4239C22.284 25.4091 22.3098 25.3922 22.3343 25.3735L24.8289 26.0762C24.8705 26.0901 24.9133 26.1003 24.9567 26.1064C25.0979 26.1064 25.3333 26.1064 25.3938 25.982C25.4051 25.9464 25.4086 25.9087 25.4039 25.8715C25.3993 25.8344 25.3867 25.7987 25.3669 25.7669C25.0845 25.1684 24.6608 24.4489 24.5096 24.1363L24.3347 23.8001C24.291 23.716 24.2137 23.6084 24.1464 23.5042L24.1902 23.4672C25.1924 22.3871 25.9483 21.1024 26.4058 19.7017ZM25.0946 15.6941C25.5813 16.813 25.6399 18.0717 25.2593 19.231C24.8794 20.4615 24.207 21.8702 23.2757 22.7713C23.2273 22.8073 23.1874 22.8535 23.1588 22.9066C23.1301 22.9597 23.1135 23.0185 23.11 23.0787C23.1064 23.1389 23.1161 23.1992 23.1384 23.2553C23.1606 23.3114 23.1949 23.3619 23.2387 23.4033C23.5435 23.9144 23.8394 24.4299 24.1263 24.9499C24.1333 24.9631 24.1362 24.9782 24.1345 24.9931C24.1328 25.0079 24.1266 25.022 24.1168 25.0333C24.1069 25.0446 24.0939 25.0526 24.0794 25.0563C24.0649 25.0601 24.0496 25.0593 24.0355 25.0541L21.9846 24.2506C21.8918 24.2135 21.7883 24.2135 21.6955 24.2506C21.6378 24.2578 21.5813 24.2725 21.5274 24.2943C19.3286 25.1583 16.6524 25.4576 14.7158 23.8337C12.9407 22.3376 12.7759 19.7084 13.7341 17.7181C15.5328 13.9458 22.8319 10.567 25.0946 15.6941Z" fill="white"/>
<path d="M15.6169 20.6767L16.3196 21.7727C16.3348 21.7974 16.355 21.8186 16.3789 21.835C16.4027 21.8514 16.4298 21.8627 16.4583 21.868C16.4867 21.8734 16.516 21.8728 16.5442 21.8662C16.5724 21.8596 16.599 21.8473 16.6222 21.8299C17.1366 21.4567 17.6745 21.0801 18.2292 20.7002C18.2615 20.6767 18.2998 20.6628 18.3397 20.6601C18.3795 20.6574 18.4194 20.6661 18.4545 20.6851C18.4897 20.7041 18.5187 20.7326 18.5384 20.7674C18.558 20.8022 18.5674 20.8418 18.5654 20.8818C18.552 21.5542 18.5341 22.2165 18.5116 22.8687C18.5107 22.8971 18.5156 22.9254 18.5258 22.9519C18.536 22.9783 18.5515 23.0025 18.5712 23.0229C18.591 23.0433 18.6147 23.0595 18.6408 23.0705C18.667 23.0816 18.6951 23.0873 18.7234 23.0873H20.0279C20.0566 23.0873 20.085 23.0815 20.1114 23.0702C20.1378 23.059 20.1616 23.0425 20.1814 23.0217C20.2012 23.001 20.2166 22.9764 20.2266 22.9495C20.2366 22.9227 20.2411 22.894 20.2397 22.8654C20.2028 22.2165 20.1725 21.5474 20.1557 20.8481C20.1544 20.8084 20.1641 20.7691 20.1837 20.7346C20.2034 20.7001 20.2322 20.6717 20.2671 20.6525C20.3019 20.6334 20.3413 20.6242 20.381 20.6261C20.4207 20.628 20.4591 20.6408 20.4919 20.6632C21.0702 21.0353 21.6305 21.4062 22.1729 21.7761C22.1969 21.7915 22.2238 21.802 22.2519 21.807C22.28 21.812 22.3088 21.8114 22.3366 21.8051C22.3645 21.7988 22.3908 21.7871 22.4141 21.7706C22.4373 21.7541 22.4571 21.7331 22.4722 21.7088L23.1446 20.5993C23.1595 20.5745 23.1692 20.547 23.1732 20.5183C23.1772 20.4897 23.1754 20.4605 23.1678 20.4326C23.1603 20.4046 23.1472 20.3785 23.1294 20.3558C23.1115 20.333 23.0892 20.3141 23.0639 20.3001C22.4217 19.9639 21.7661 19.5874 21.0971 19.194C21.0658 19.1747 21.0399 19.1478 21.022 19.1157C21.0041 19.0836 20.9947 19.0475 20.9947 19.0108C20.9947 18.974 21.0041 18.9379 21.022 18.9058C21.0399 18.8737 21.0658 18.8468 21.0971 18.8275C21.7695 18.4241 22.4184 18.0442 23.0437 17.6878C23.0688 17.6736 23.0908 17.6544 23.1083 17.6315C23.1257 17.6085 23.1383 17.5822 23.1453 17.5541C23.1522 17.5261 23.1533 17.497 23.1486 17.4685C23.1438 17.44 23.1333 17.4128 23.1177 17.3886C22.8823 17.0221 22.647 16.6556 22.415 16.2892C22.3994 16.2655 22.3792 16.2451 22.3557 16.2292C22.3322 16.2133 22.3058 16.2023 22.278 16.1967C22.2502 16.191 22.2215 16.191 22.1937 16.1965C22.1658 16.2019 22.1394 16.2129 22.1158 16.2287C21.5812 16.6018 21.0298 16.975 20.4717 17.3482C20.4394 17.3717 20.4011 17.3856 20.3613 17.3883C20.3214 17.391 20.2816 17.3823 20.2464 17.3633C20.2113 17.3444 20.1822 17.3158 20.1626 17.281C20.143 17.2462 20.1336 17.2066 20.1355 17.1667C20.1557 16.4943 20.1837 15.8398 20.2196 15.2032C20.2209 15.1746 20.2165 15.1459 20.2064 15.1191C20.1964 15.0922 20.181 15.0676 20.1612 15.0469C20.1414 15.0261 20.1176 15.0096 20.0912 14.9984C20.0648 14.9871 20.0364 14.9813 20.0078 14.9813H18.7201C18.6917 14.9813 18.6636 14.987 18.6374 14.9981C18.6113 15.0091 18.5876 15.0253 18.5679 15.0457C18.5481 15.0661 18.5327 15.0903 18.5224 15.1167C18.5122 15.1432 18.5074 15.1715 18.5083 15.1999C18.5318 15.8723 18.552 16.5447 18.5621 17.2171C18.564 17.257 18.5546 17.2966 18.535 17.3314C18.5154 17.3662 18.4863 17.3948 18.4512 17.4138C18.416 17.4328 18.3762 17.4414 18.3363 17.4387C18.2965 17.4361 18.2582 17.4222 18.2259 17.3987C17.6509 17.0255 17.0996 16.6489 16.565 16.2757C16.5415 16.2592 16.5149 16.2477 16.4867 16.2419C16.4586 16.2361 16.4295 16.2363 16.4014 16.2423C16.3733 16.2483 16.3468 16.26 16.3234 16.2768C16.3001 16.2935 16.2805 16.3149 16.2658 16.3396L15.5934 17.4491C15.5783 17.4732 15.5682 17.5002 15.5638 17.5283C15.5593 17.5564 15.5606 17.5851 15.5675 17.6127C15.5744 17.6403 15.5868 17.6663 15.6039 17.689C15.6211 17.7117 15.6427 17.7307 15.6673 17.7449C16.2927 18.1013 16.9281 18.4678 17.5703 18.8511C17.6015 18.8703 17.6274 18.8973 17.6453 18.9294C17.6632 18.9614 17.6726 18.9976 17.6726 19.0343C17.6726 19.071 17.6632 19.1072 17.6453 19.1392C17.6274 19.1713 17.6015 19.1983 17.5703 19.2175C16.9348 19.6109 16.3095 19.9908 15.6875 20.3573C15.6592 20.371 15.6343 20.391 15.6148 20.4156C15.5953 20.4403 15.5816 20.4691 15.5748 20.4999C15.5681 20.5306 15.5683 20.5625 15.5756 20.5931C15.5829 20.6237 15.597 20.6523 15.6169 20.6767Z" fill="white"/>
<path d="M28.3523 30.884C28.1276 30.819 27.8863 30.8443 27.6799 30.9546L26.8965 31.3076C26.8131 31.3386 26.7454 31.4015 26.7083 31.4824C26.6948 31.525 26.69 31.5698 26.694 31.6142C26.698 31.6587 26.7109 31.7019 26.7318 31.7413L27.4883 33.4223C27.5209 33.5051 27.5849 33.5716 27.6665 33.6072C27.7075 33.6218 27.7512 33.6276 27.7947 33.6241C27.8382 33.6206 27.8804 33.608 27.9186 33.5871C27.959 33.5723 27.9959 33.549 28.0266 33.5189C28.0573 33.4887 28.0813 33.4524 28.0968 33.4122C28.1231 33.3273 28.1146 33.2354 28.0733 33.1567L27.8447 32.6524L28.3389 32.4305C28.5578 32.3467 28.736 32.1817 28.8365 31.9699C28.8743 31.8676 28.8903 31.7585 28.8833 31.6496C28.8764 31.5407 28.8467 31.4345 28.7961 31.3378C28.759 31.2348 28.7002 31.1409 28.6236 31.0626C28.5471 30.9843 28.4545 30.9233 28.3523 30.884ZM28.2582 31.8321C28.2079 31.9183 28.1296 31.9848 28.0363 32.0203L27.6463 32.1952L27.3874 31.6236L27.7774 31.4488C27.8644 31.4006 27.9658 31.3851 28.0632 31.4051C28.1049 31.4182 28.143 31.4408 28.1745 31.4711C28.2061 31.5015 28.2301 31.5387 28.2447 31.5799C28.2657 31.6183 28.2777 31.6608 28.2801 31.7045C28.2824 31.7481 28.2749 31.7917 28.2582 31.8321Z" fill="white"/>
<path d="M31.5059 30.5948L31.1697 30.4839C31.0772 30.4506 30.9777 30.4414 30.8806 30.457C30.8346 30.4673 30.7905 30.4843 30.7495 30.5074C30.7779 30.466 30.8026 30.4221 30.8234 30.3763C30.8744 30.2505 30.8861 30.1122 30.857 29.9796C30.8223 29.8417 30.7501 29.716 30.6486 29.6165C30.581 29.5361 30.4966 29.4715 30.4013 29.4273C30.3061 29.3832 30.2022 29.3605 30.0972 29.361C29.8655 29.3774 29.6489 29.4821 29.492 29.6535L28.8667 30.2586C28.8324 30.2859 28.8042 30.32 28.7839 30.3588C28.7637 30.3976 28.7518 30.4402 28.749 30.4839C28.7501 30.528 28.7598 30.5716 28.7777 30.6119C28.7956 30.6523 28.8213 30.6888 28.8532 30.7192L30.114 32.0641C30.1708 32.1313 30.2517 32.1735 30.3393 32.1817C30.3834 32.1807 30.4269 32.1709 30.4673 32.153C30.5077 32.1352 30.5442 32.1095 30.5746 32.0775C30.6077 32.0505 30.6348 32.0167 30.6539 31.9785C30.673 31.9402 30.6838 31.8983 30.6856 31.8556C30.6885 31.8096 30.682 31.7635 30.6664 31.7201C30.6508 31.6767 30.6264 31.637 30.5948 31.6035L30.1678 31.1496L30.3057 31.0185C30.3434 30.9845 30.3866 30.9572 30.4334 30.9378C30.4816 30.9228 30.5332 30.9228 30.5813 30.9378L31.2168 31.1462C31.2902 31.1712 31.3684 31.1793 31.4454 31.1698C31.5207 31.1522 31.5894 31.1137 31.6438 31.0588C31.7007 31.0102 31.7397 30.9439 31.7547 30.8705C31.7566 30.8407 31.7525 30.8107 31.7427 30.7824C31.7329 30.7541 31.7176 30.7281 31.6976 30.7058C31.6468 30.6498 31.5798 30.611 31.5059 30.5948ZM30.1611 30.5242L29.8551 30.8134L29.445 30.383L29.7543 30.0905C29.821 30.0176 29.9094 29.9681 30.0064 29.9493C30.0492 29.9475 30.0919 29.9556 30.131 29.9731C30.1701 29.9907 30.2046 30.017 30.2317 30.0502C30.2632 30.0787 30.2872 30.1143 30.3019 30.1541C30.3165 30.194 30.3213 30.2367 30.3157 30.2788C30.2904 30.3815 30.2312 30.4727 30.1476 30.5377L30.1611 30.5242Z" fill="white"/>
<path d="M33.1265 27.9287C33.0737 27.7778 32.9888 27.6402 32.8777 27.5253C32.7539 27.4031 32.6093 27.3041 32.4507 27.2328C32.243 27.1263 32.0116 27.0743 31.7783 27.0815C31.5674 27.0908 31.3634 27.1596 31.1899 27.2798C31.0051 27.4138 30.858 27.5933 30.763 27.8009C30.6856 27.9567 30.6377 28.1254 30.6217 28.2985C30.6111 28.4579 30.6317 28.6178 30.6823 28.7692C30.7338 28.9199 30.8175 29.0576 30.9277 29.1727C31.0504 29.3011 31.1964 29.405 31.358 29.4786C31.565 29.5869 31.7971 29.638 32.0305 29.6266C32.2405 29.6124 32.4421 29.5389 32.6121 29.4147C32.7983 29.288 32.9488 29.1155 33.0492 28.9138C33.1268 28.7584 33.1736 28.5894 33.187 28.4162C33.2037 28.2512 33.1831 28.0846 33.1265 27.9287ZM32.565 28.6616C32.5318 28.7362 32.4817 28.802 32.4187 28.8539C32.3557 28.9059 32.2815 28.9425 32.2019 28.9609C32.0128 28.9942 31.8179 28.9609 31.6505 28.8667C31.5231 28.8129 31.4085 28.7327 31.3143 28.6314C31.2403 28.5501 31.1933 28.4479 31.1799 28.3389C31.1681 28.2302 31.188 28.1205 31.237 28.0228C31.2696 27.9475 31.3195 27.8809 31.3825 27.8283C31.4456 27.7758 31.5201 27.7388 31.6001 27.7203C31.7885 27.6901 31.9817 27.7245 32.1481 27.8178C32.2756 27.8716 32.3902 27.9518 32.4843 28.0531C32.5578 28.1325 32.6058 28.232 32.6222 28.3389C32.6357 28.4498 32.6158 28.5621 32.565 28.6616Z" fill="white"/>
<path d="M7.30245 11.5116L6.80822 11.2628L7.06038 10.7753C7.1787 10.5723 7.21365 10.3312 7.15788 10.1029C7.12217 9.9995 7.06511 9.90474 6.99039 9.8248C6.91566 9.74487 6.82496 9.68155 6.72417 9.63896C6.62946 9.5854 6.52455 9.55233 6.41625 9.5419C6.30794 9.53148 6.19865 9.54393 6.09546 9.57844C5.88008 9.66738 5.70851 9.83774 5.61805 10.0525L5.23141 10.819C5.20759 10.8566 5.19245 10.8991 5.1871 10.9433C5.18176 10.9875 5.18634 11.0323 5.20051 11.0745C5.21468 11.1167 5.23809 11.1552 5.26903 11.1872C5.29996 11.2192 5.33765 11.2439 5.37934 11.2595L7.02003 12.0832C7.09644 12.127 7.18698 12.1391 7.27219 12.1168C7.35435 12.085 7.42075 12.0222 7.4571 11.942C7.47907 11.9048 7.49284 11.8634 7.49747 11.8205C7.50211 11.7776 7.49752 11.7342 7.484 11.6932C7.46831 11.6518 7.44401 11.6142 7.41272 11.5829C7.38142 11.5516 7.34383 11.5273 7.30245 11.5116ZM6.56279 10.6577L6.38796 11.0409L5.80969 10.7585L6.00469 10.3753C6.04272 10.2839 6.11178 10.2089 6.19969 10.1634C6.24039 10.147 6.28438 10.1402 6.32815 10.1437C6.37192 10.1472 6.41427 10.1609 6.45184 10.1836C6.49212 10.2014 6.52803 10.2278 6.55706 10.2609C6.5861 10.294 6.60756 10.333 6.61995 10.3753C6.63448 10.4732 6.61426 10.5731 6.56279 10.6577Z" fill="white"/>
<path d="M9.50126 8.42869L9.16505 8.33455C9.07048 8.30816 8.97049 8.30816 8.87591 8.33455C8.82964 8.34545 8.78539 8.3636 8.74479 8.38834C8.77052 8.34525 8.793 8.3003 8.81204 8.25386C8.85193 8.12463 8.85193 7.98637 8.81204 7.85713C8.76981 7.7213 8.69341 7.59858 8.59014 7.50075C8.51776 7.42454 8.42991 7.36471 8.33248 7.32527C8.23506 7.28584 8.13032 7.26772 8.02531 7.27213C7.79477 7.29991 7.58332 7.41405 7.43359 7.59153L6.8385 8.20679C6.80406 8.23485 6.7763 8.27023 6.75723 8.31035C6.73816 8.35048 6.72827 8.39435 6.72827 8.43877C6.72827 8.4832 6.73816 8.52707 6.75723 8.56719C6.7763 8.60732 6.80406 8.6427 6.8385 8.67076L8.15979 9.94498C8.21911 10.0092 8.30112 10.0478 8.38841 10.0526C8.43271 10.0498 8.47602 10.0382 8.51584 10.0186C8.55565 9.99899 8.59119 9.97168 8.6204 9.93826C8.65252 9.90953 8.67814 9.87427 8.69553 9.83484C8.71292 9.79542 8.7217 9.75273 8.72126 9.70963C8.71136 9.62254 8.66942 9.54225 8.60359 9.48438L8.15643 9.05067L8.28755 8.91282C8.32251 8.87621 8.36494 8.84755 8.41195 8.82877C8.46005 8.81334 8.51178 8.81334 8.55988 8.82877L9.2054 9.01032C9.28054 9.02832 9.35887 9.02832 9.43402 9.01032C9.5074 8.98924 9.57365 8.94856 9.62566 8.89265C9.68304 8.84299 9.71915 8.77318 9.72652 8.69765C9.7281 8.66803 9.72354 8.63841 9.71312 8.61064C9.70271 8.58287 9.68667 8.55755 9.666 8.53627C9.62192 8.48606 9.56495 8.44886 9.50126 8.42869ZM8.15643 8.42869L7.86057 8.73463L7.43023 8.3211L7.72609 8.01515C7.78929 7.93777 7.87709 7.88437 7.97488 7.86386C8.0172 7.85903 8.06007 7.86445 8.09986 7.87966C8.13965 7.89487 8.1752 7.91944 8.2035 7.95127C8.23585 7.97873 8.26124 8.01346 8.2776 8.05261C8.29396 8.09175 8.30083 8.13422 8.29764 8.17653C8.26936 8.26613 8.21563 8.34557 8.14298 8.40515L8.15643 8.42869Z" fill="white"/>
<path d="M11.7169 6.21642C11.6146 6.00848 11.4621 5.82936 11.2731 5.6953C11.1006 5.57315 10.896 5.50419 10.6847 5.49694C10.4506 5.48921 10.2185 5.54374 10.0123 5.65495C9.85671 5.73174 9.71742 5.83791 9.60215 5.96762C9.50053 6.09127 9.42504 6.23423 9.38026 6.38788C9.33231 6.53986 9.31628 6.70011 9.33319 6.85857C9.3542 7.03501 9.40778 7.20601 9.4912 7.36288C9.59171 7.57196 9.7446 7.75148 9.935 7.884C10.1103 8.0027 10.3152 8.07022 10.5267 8.079C10.7547 8.0863 10.9806 8.03416 11.1823 7.92771C11.3379 7.85093 11.4772 7.74475 11.5925 7.61504C11.6999 7.49584 11.7802 7.35475 11.8278 7.2015C11.8747 7.04929 11.8895 6.88905 11.8715 6.73081C11.8514 6.55144 11.799 6.37718 11.7169 6.21642ZM11.1756 7.22504C11.1204 7.3215 11.0371 7.39889 10.9369 7.44694C10.8654 7.48652 10.7856 7.50895 10.7039 7.51245C10.6222 7.51595 10.5409 7.50043 10.4662 7.46711C10.2964 7.37947 10.1621 7.23572 10.0863 7.0603C10.0234 6.94128 9.98456 6.81104 9.97198 6.67702C9.96134 6.56765 9.98509 6.45768 10.0399 6.36245C10.0948 6.26723 10.178 6.19149 10.2779 6.14581C10.349 6.10519 10.4287 6.08189 10.5105 6.0778C10.5922 6.07371 10.6738 6.08895 10.7486 6.12228C10.9162 6.21182 11.0488 6.3551 11.1252 6.52909C11.1904 6.64736 11.2305 6.77785 11.2428 6.91237C11.2506 7.01764 11.2272 7.12287 11.1756 7.21495V7.22504Z" fill="white"/>
<defs>
<linearGradient id="paint0_linear_2001_2532" x1="36.8539" y1="2.15112" x2="0.165365" y2="2.9012" gradientUnits="userSpaceOnUse">
<stop stop-color="#CA6DFE"/>
<stop offset="1" stop-color="#8B8EFC"/>
</linearGradient>
</defs>
</svg>
