<svg width="40" height="39" viewBox="0 0 40 39" fill="none" xmlns="http://www.w3.org/2000/svg">
<path d="M34.1658 5.16751C31.5736 2.57536 25.8446 3.85631 19.8333 7.89079C13.8219 3.85631 8.09292 2.57536 5.50077 5.16751C2.90861 7.75967 4.18956 13.4886 8.22404 19.5C4.18956 25.5114 2.90861 31.2404 5.50077 33.8325C8.09292 36.4247 13.8219 35.1437 19.8333 31.1092C25.8446 35.1437 31.5736 36.4247 34.1658 33.8325C36.7579 31.2404 35.477 25.5114 31.4425 19.5C35.477 13.4886 36.7579 7.75967 34.1658 5.16751Z" fill="url(#paint0_linear_2001_1294)"/>
<path d="M14.9212 19.3824C14.9102 19.3756 14.8976 19.3719 14.8847 19.3718C14.8718 19.3717 14.8591 19.3751 14.848 19.3817C14.8369 19.3883 14.8279 19.3978 14.8218 19.4092C14.8157 19.4205 14.8129 19.4334 14.8136 19.4462V21.1273C14.8136 21.6316 16.7199 22.5629 19.8331 22.5629C22.9464 22.5629 24.8527 21.6316 24.8527 21.1273V19.4462C24.8534 19.4334 24.8506 19.4205 24.8445 19.4092C24.8384 19.3978 24.8293 19.3883 24.8183 19.3817C24.8072 19.3751 24.7945 19.3717 24.7816 19.3718C24.7687 19.3719 24.7561 19.3756 24.7451 19.3824C23.555 20.0144 21.689 20.3405 19.8331 20.3405C17.9773 20.3405 16.1113 20.0144 14.9212 19.3824Z" fill="white"/>
<path d="M14.9213 16.1379C14.9099 16.1321 14.8973 16.1294 14.8845 16.1299C14.8717 16.1305 14.8593 16.1343 14.8485 16.1411C14.8377 16.1479 14.8288 16.1573 14.8227 16.1685C14.8166 16.1798 14.8135 16.1924 14.8137 16.2052V18.0442C14.8137 18.5519 16.72 19.4832 19.8333 19.4832C22.9466 19.4832 24.8529 18.5519 24.8529 18.0442V16.1951C24.8531 16.1823 24.85 16.1697 24.8439 16.1585C24.8378 16.1472 24.829 16.1378 24.8181 16.131C24.8073 16.1242 24.7949 16.1204 24.7821 16.1198C24.7694 16.1193 24.7567 16.122 24.7453 16.1278C23.5551 16.7633 21.6892 17.0894 19.8333 17.0894C17.9774 17.0894 16.1115 16.7633 14.9213 16.1379Z" fill="white"/>
<path d="M14.9213 22.4721C14.9099 22.4663 14.8973 22.4635 14.8845 22.4641C14.8717 22.4646 14.8593 22.4685 14.8485 22.4753C14.8377 22.482 14.8288 22.4915 14.8227 22.5027C14.8166 22.5139 14.8135 22.5266 14.8137 22.5393V24.2204C14.8137 24.728 16.72 25.6593 19.8333 25.6593C22.9466 25.6593 24.8529 24.7247 24.8529 24.2069V22.5259C24.8531 22.5131 24.85 22.5005 24.8439 22.4893C24.8378 22.478 24.829 22.4686 24.8181 22.4618C24.8073 22.455 24.7949 22.4512 24.7821 22.4506C24.7694 22.4501 24.7567 22.4528 24.7453 22.4587C23.5551 23.1075 21.6892 23.4336 19.8333 23.4336C17.9774 23.4336 16.1115 23.1075 14.9213 22.4721Z" fill="white"/>
<path d="M19.8333 16.222C22.6055 16.222 24.8529 15.5778 24.8529 14.7831C24.8529 13.9884 22.6055 13.3441 19.8333 13.3441C17.0611 13.3441 14.8137 13.9884 14.8137 14.7831C14.8137 15.5778 17.0611 16.222 19.8333 16.222Z" fill="white"/>
<defs>
<linearGradient id="paint0_linear_2001_1294" x1="35.5122" y1="3.82137" x2="2.35923" y2="4.49908" gradientUnits="userSpaceOnUse">
<stop stop-color="#46A6FF"/>
<stop offset="1" stop-color="#5B34CC"/>
</linearGradient>
</defs>
</svg>
