<svg width="39" height="39" viewBox="0 0 39 39" fill="none" xmlns="http://www.w3.org/2000/svg">
<path d="M33.8325 5.16743C31.2418 2.57689 25.5098 3.85552 19.5 7.89131C13.4903 3.85552 7.75831 2.57689 5.16754 5.16743C2.57676 7.75797 3.85562 13.4902 7.89142 19.4999C3.85562 25.5097 2.57699 31.2416 5.16754 33.8324C7.75808 36.4232 13.4903 35.1443 19.5 31.1085C25.5098 35.1443 31.2418 36.423 33.8325 33.8323C36.4233 31.2416 35.1444 25.5097 31.1087 19.4999C35.1444 13.4902 36.4231 7.75821 33.8325 5.16743Z" fill="url(#paint0_linear_2001_246)"/>
<path d="M25.9966 14.2122C26.0041 13.9701 25.9315 13.7323 25.7901 13.5356C25.6837 13.3724 25.5383 13.2382 25.3671 13.1452C25.1959 13.0521 25.0042 13.0032 24.8094 13.0027C21.2672 13.0032 17.7249 13.0037 14.1827 13.0042C14.0476 12.9991 13.9127 13.0208 13.786 13.068C13.5889 13.1474 13.4143 13.2737 13.2773 13.4361C13.1206 13.6046 13.0259 13.8215 13.0089 14.051C13.0127 14.0804 13.0101 14.1102 13.0012 14.1385V24.8688C13.0128 24.8839 13.006 24.9013 13.0075 24.9176C13.0105 25.0168 13.0278 25.115 13.059 25.2092C13.1355 25.4045 13.2593 25.5778 13.4192 25.7135C13.5874 25.8736 13.8057 25.9709 14.0373 25.9889C14.0685 25.9848 14.1002 25.9877 14.1301 25.9975H24.8605C24.8759 25.9872 24.8933 25.9927 24.9098 25.9912C24.9941 25.9886 25.0779 25.9763 25.1594 25.9546C25.4006 25.8693 25.61 25.7127 25.76 25.5055C25.9099 25.2983 25.9932 25.0504 25.9988 24.7947C25.9924 21.2671 25.9917 17.7396 25.9966 14.2122ZM20.4772 20.2157C19.9784 20.2139 19.4797 20.2158 18.981 20.2129C18.9176 20.2126 18.9056 20.2318 18.9057 20.2909C18.9073 21.785 18.9077 23.2791 18.9068 24.7732C18.9068 24.8695 18.914 24.8555 18.8272 24.8556C18.451 24.8561 18.0749 24.8543 17.6987 24.8572C17.6352 24.8577 17.6146 24.8449 17.615 24.7766C17.6177 24.0285 17.6167 23.2804 17.6167 22.5322V20.3133C17.6167 20.2147 17.6167 20.2147 17.5212 20.2147C17.033 20.2147 16.5448 20.214 16.0567 20.2157C16.0078 20.2157 15.9928 20.2044 15.9934 20.1535C15.9959 19.8471 15.9954 19.5407 15.9938 19.2342C15.9936 19.1909 15.9989 19.1723 16.0505 19.1723C17.5277 19.1739 19.0049 19.174 20.4821 19.1726C20.529 19.1726 20.5366 19.1886 20.5363 19.2304C20.5348 19.539 20.5348 19.8475 20.5366 20.1561C20.5368 20.2032 20.5249 20.2158 20.4772 20.2157ZM24.922 23.3462C24.9198 23.5401 24.8789 23.7317 24.8018 23.9097C24.7247 24.0877 24.6129 24.2486 24.473 24.3829C24.2529 24.5859 23.9855 24.7304 23.6951 24.8033C22.9464 24.9847 22.1637 24.9719 21.4214 24.7661C21.3041 24.7307 21.1898 24.6862 21.0795 24.633C21.0677 24.6292 21.0575 24.6216 21.0505 24.6113C21.0436 24.601 21.0403 24.5887 21.0412 24.5763C21.0422 24.1767 21.0426 23.7772 21.0422 23.3777C21.0433 23.3692 21.045 23.3608 21.0475 23.3526C21.0919 23.3861 21.1328 23.4178 21.1746 23.4482C21.6457 23.7989 22.229 23.9647 22.8142 23.9143C23.0075 23.9071 23.1952 23.8475 23.3574 23.742C23.4139 23.7053 23.4621 23.6571 23.4988 23.6005C23.5354 23.5439 23.5597 23.4802 23.5701 23.4136C23.5805 23.347 23.5767 23.2789 23.559 23.2139C23.5412 23.1488 23.51 23.0883 23.4673 23.0361C23.3492 22.8943 23.2022 22.7794 23.0361 22.699C22.7927 22.5666 22.5338 22.4686 22.2803 22.3582C21.976 22.2351 21.6974 22.0561 21.459 21.8304C21.2963 21.6703 21.1724 21.475 21.097 21.2596C21.0215 21.0441 20.9965 20.8143 21.0237 20.5876C21.0451 20.2682 21.1665 19.9636 21.3707 19.717C21.5748 19.4704 21.8514 19.2943 22.1612 19.2137C22.5988 19.0721 23.0597 19.0171 23.5183 19.0517C23.8438 19.0606 24.1669 19.1099 24.4802 19.1985C24.6724 19.2561 24.6727 19.2551 24.6727 19.4523V20.4495C24.5309 20.3538 24.3777 20.2759 24.2168 20.2178C23.8048 20.0577 23.3561 20.0164 22.9217 20.0985C22.8244 20.1189 22.7308 20.154 22.6442 20.2028C22.5697 20.2364 22.5051 20.2888 22.4568 20.3547C22.4085 20.4207 22.3781 20.4981 22.3685 20.5793C22.3589 20.6605 22.3705 20.7428 22.4021 20.8182C22.4338 20.8936 22.4844 20.9596 22.5491 21.0097C22.7247 21.1592 22.9234 21.2793 23.1374 21.3654C23.4422 21.4899 23.7402 21.6306 24.03 21.7868C24.2617 21.9153 24.4662 22.0875 24.6322 22.294C24.8537 22.5977 24.9567 22.9718 24.922 23.3462Z" fill="white"/>
<defs>
<linearGradient id="paint0_linear_2001_246" x1="1.93602" y1="31.5957" x2="35.942" y2="8.17689" gradientUnits="userSpaceOnUse">
<stop stop-color="#297BCE"/>
<stop offset="0.1425" stop-color="#2089D1"/>
<stop offset="0.4877" stop-color="#0FA7D6"/>
<stop offset="0.7855" stop-color="#04B9DA"/>
<stop offset="1" stop-color="#00BFDB"/>
</linearGradient>
</defs>
</svg>
