<svg width="40" height="39" viewBox="0 0 40 39" fill="none" xmlns="http://www.w3.org/2000/svg">
<path d="M38.3959 19.5C38.3959 15.3546 35.0708 11.7135 30.0512 9.61553C27.9533 4.59596 24.3122 1.27087 20.1668 1.27087C16.0213 1.27087 12.3802 4.59596 10.2823 9.61553C5.26271 11.7135 1.93762 15.3546 1.93762 19.5C1.93762 23.6454 5.26271 27.2866 10.2823 29.3845C12.3802 34.4041 16.0213 37.7292 20.1668 37.7292C24.3122 37.7292 27.9533 34.4041 30.0512 29.3845C35.0708 27.2866 38.3959 23.6454 38.3959 19.5Z" fill="url(#paint0_linear_2001_1457)"/>
<path d="M26.1344 20.0212C24.097 20.0414 22.0528 20.075 20.0154 20.0952C19.9631 20.0969 19.9135 20.1189 19.8771 20.1566C19.8407 20.1942 19.8204 20.2445 19.8204 20.2969C19.8204 22.1628 19.8473 24.0322 19.8978 25.8208C19.899 25.8675 19.917 25.9122 19.9485 25.9468C19.98 25.9813 20.0228 26.0034 20.0692 26.0091C22.0663 26.2982 24.0331 26.6109 26.121 26.8765C26.1492 26.8803 26.1779 26.8781 26.2051 26.8698C26.2324 26.8616 26.2576 26.8476 26.279 26.8288C26.3003 26.81 26.3174 26.7868 26.329 26.7608C26.3406 26.7348 26.3465 26.7066 26.3462 26.6781V20.2196C26.3463 20.1923 26.3407 20.1654 26.3299 20.1404C26.3191 20.1154 26.3033 20.0929 26.2834 20.0743C26.2636 20.0557 26.2401 20.0414 26.2144 20.0323C26.1888 20.0231 26.1616 20.0194 26.1344 20.0212Z" fill="white"/>
<path d="M18.7445 13.7408C18.7916 15.4218 18.8051 17.1567 18.8185 18.9049C18.819 18.9304 18.8143 18.9557 18.8049 18.9793C18.7955 19.0029 18.7814 19.0245 18.7636 19.0426C18.7457 19.0608 18.7245 19.0752 18.701 19.085C18.6775 19.0949 18.6523 19.0999 18.6269 19.0999C16.9929 19.0999 15.1539 19.0999 13.5233 19.0999C13.4715 19.0999 13.4219 19.0794 13.3854 19.0428C13.3488 19.0063 13.3282 18.9567 13.3282 18.9049V14.1577C13.328 14.1093 13.3457 14.0625 13.3781 14.0265C13.4104 13.9904 13.4549 13.9677 13.5031 13.9627C15.1572 13.8047 16.9425 13.6635 18.5462 13.5525C18.5973 13.5516 18.6468 13.5708 18.6839 13.6061C18.721 13.6413 18.7428 13.6897 18.7445 13.7408Z" fill="white"/>
<path d="M20.0927 19.1033C22.1099 19.0831 24.1272 19.0226 26.1444 19.0024C26.1956 19.0016 26.2443 18.9806 26.2801 18.9442C26.316 18.9077 26.3361 18.8586 26.3361 18.8074V13.3743C26.3361 13.3479 26.3307 13.3216 26.3203 13.2973C26.3099 13.273 26.2946 13.251 26.2754 13.2328C26.2562 13.2145 26.2335 13.2004 26.2087 13.1912C26.1839 13.182 26.1574 13.178 26.131 13.1793C23.9288 13.2869 22.0629 13.3844 20.0053 13.5155C19.955 13.5182 19.9078 13.5404 19.8739 13.5775C19.8399 13.6146 19.8219 13.6636 19.8237 13.7139C19.8708 15.3949 19.8843 17.1466 19.8977 18.9016C19.8973 18.9276 19.9019 18.9535 19.9115 18.9777C19.9211 19.002 19.9353 19.0241 19.9534 19.0428C19.9715 19.0616 19.9931 19.0765 20.017 19.0869C20.0409 19.0973 20.0667 19.1029 20.0927 19.1033Z" fill="white"/>
<path d="M18.5966 25.9687C16.8719 25.7199 15.1741 25.4845 13.4997 25.2962C13.4522 25.2905 13.4085 25.2674 13.3768 25.2314C13.3452 25.1955 13.3279 25.1491 13.3283 25.1013V20.3069C13.3278 20.2815 13.3325 20.2562 13.3419 20.2326C13.3513 20.2089 13.3654 20.1874 13.3832 20.1693C13.401 20.1511 13.4223 20.1367 13.4458 20.1268C13.4693 20.117 13.4945 20.1119 13.5199 20.1119C15.1505 20.1119 16.919 20.1422 18.563 20.1119C18.6147 20.1119 18.6643 20.1325 18.7009 20.1691C18.7375 20.2056 18.758 20.2552 18.758 20.3069C18.7748 22.1292 18.795 23.8875 18.8353 25.7535C18.8387 25.7847 18.8346 25.8162 18.8234 25.8455C18.8122 25.8748 18.7942 25.901 18.7709 25.922C18.7476 25.943 18.7197 25.9582 18.6894 25.9663C18.6591 25.9744 18.6273 25.9752 18.5966 25.9687Z" fill="white"/>
<defs>
<linearGradient id="paint0_linear_2001_1457" x1="38.3959" y1="1.27126" x2="-0.149409" y2="2.05919" gradientUnits="userSpaceOnUse">
<stop stop-color="#27E3CD"/>
<stop offset="1" stop-color="#00A4EB"/>
</linearGradient>
</defs>
</svg>
