<svg width="39" height="39" viewBox="0 0 39 39" fill="none" xmlns="http://www.w3.org/2000/svg">
<path d="M33.8325 5.16751C31.2404 2.57536 25.5114 3.85631 19.5 7.89079C13.4886 3.85631 7.75967 2.57536 5.16751 5.16751C2.57536 7.75967 3.85631 13.4886 7.89079 19.5C3.85631 25.5114 2.57536 31.2404 5.16751 33.8325C7.75967 36.4247 13.4886 35.1437 19.5 31.1092C25.5114 35.1437 31.2404 36.4247 33.8325 33.8325C36.4247 31.2404 35.1437 25.5114 31.1092 19.5C35.1437 13.4886 36.4247 7.75967 33.8325 5.16751Z" fill="url(#paint0_linear_2001_1438)"/>
<path d="M24.1397 22.9831H18.088C17.5485 22.9813 17.0317 22.766 16.6505 22.3842C16.2693 22.0024 16.0548 21.4852 16.054 20.9457V14.894C16.0548 14.3545 16.2693 13.8373 16.6505 13.4555C17.0317 13.0737 17.5485 12.8583 18.088 12.8566H24.1397C24.6798 12.8575 25.1975 13.0724 25.5794 13.4543C25.9613 13.8362 26.1763 14.3539 26.1771 14.894V20.9457C26.1763 21.4858 25.9613 22.0035 25.5794 22.3854C25.1975 22.7673 24.6798 22.9822 24.1397 22.9831ZM23.9851 14.551H18.2292C18.1008 14.551 17.9777 14.6021 17.8869 14.6929C17.7961 14.7836 17.7451 14.9068 17.7451 15.0352V20.791C17.7451 20.8545 17.7576 20.9173 17.782 20.9758C17.8064 21.0344 17.8421 21.0875 17.8871 21.1322C17.9321 21.1769 17.9855 21.2122 18.0442 21.2362C18.1029 21.2602 18.1658 21.2723 18.2292 21.2718H23.9918C24.1202 21.2718 24.2433 21.2208 24.3341 21.13C24.4249 21.0392 24.4759 20.9161 24.4759 20.7877V15.0318C24.4755 14.968 24.4624 14.9048 24.4375 14.846C24.4125 14.7872 24.3762 14.734 24.3306 14.6893C24.285 14.6446 24.2309 14.6094 24.1716 14.5856C24.1123 14.5619 24.0489 14.5502 23.9851 14.551Z" fill="white"/>
<path d="M20.9221 26.1502H14.8704C14.3303 26.1493 13.8126 25.9344 13.4307 25.5525C13.0488 25.1706 12.8339 24.6529 12.833 24.1128V18.0611C12.8339 17.521 13.0488 17.0033 13.4307 16.6214C13.8126 16.2395 14.3303 16.0246 14.8704 16.0237H20.9221C21.4616 16.0255 21.9785 16.2408 22.3597 16.6226C22.7408 17.0044 22.9553 17.5216 22.9562 18.0611V24.1128C22.9553 24.6523 22.7408 25.1695 22.3597 25.5513C21.9785 25.9331 21.4616 26.1485 20.9221 26.1502ZM20.7641 17.7215H15.0083C14.9448 17.7215 14.8821 17.7341 14.8235 17.7584C14.765 17.7828 14.7118 17.8185 14.6671 17.8635C14.6224 17.9085 14.5871 17.9619 14.5631 18.0206C14.5392 18.0794 14.527 18.1422 14.5275 18.2057V23.9649C14.5275 24.0933 14.5785 24.2164 14.6693 24.3072C14.7601 24.398 14.8832 24.449 15.0116 24.449H20.7675C20.8312 24.4495 20.8943 24.4373 20.9533 24.4131C21.0122 24.3889 21.0658 24.3533 21.1108 24.3082C21.1559 24.2632 21.1915 24.2096 21.2157 24.1507C21.2399 24.0917 21.2521 24.0286 21.2516 23.9649V18.209C21.2525 18.1448 21.2405 18.081 21.2164 18.0214C21.1922 17.9618 21.1563 17.9077 21.1109 17.8623C21.0654 17.8168 21.0113 17.781 20.9518 17.7568C20.8922 17.7326 20.8284 17.7206 20.7641 17.7215Z" fill="white"/>
<defs>
<linearGradient id="paint0_linear_2001_1438" x1="35.179" y1="3.82137" x2="2.02598" y2="4.49908" gradientUnits="userSpaceOnUse">
<stop stop-color="#009FFD"/>
<stop offset="1" stop-color="#163DA8"/>
</linearGradient>
</defs>
</svg>
