<svg width="40" height="39" viewBox="0 0 40 39" fill="none" xmlns="http://www.w3.org/2000/svg">
<path d="M10.0226 29.4583C12.1206 34.4779 15.7617 37.803 19.9071 37.803C24.0525 37.803 27.6937 34.4779 29.7916 29.4583C34.8112 27.3604 38.1363 23.7193 38.1363 19.5739C38.1363 15.4284 34.8112 11.7873 29.7916 9.68938C27.6937 4.66981 24.0525 1.34473 19.9071 1.34473C15.7617 1.34473 12.1206 4.66981 10.0226 9.68938C5.00306 11.7873 1.67798 15.4284 1.67798 19.5739C1.67798 23.7193 5.00306 27.3604 10.0226 29.4583Z" fill="url(#paint0_linear_2001_1141)"/>
<path d="M27.3035 18.9013L20.5794 12.1772C20.4913 12.0885 20.3865 12.0182 20.2711 11.9702C20.1557 11.9222 20.032 11.8975 19.907 11.8975C19.782 11.8975 19.6582 11.9222 19.5428 11.9702C19.4274 12.0182 19.3227 12.0885 19.2346 12.1772L17.688 13.7237L19.4968 15.5291C19.6271 15.4748 19.7659 15.4441 19.907 15.4384C20.2113 15.4393 20.5029 15.5608 20.7178 15.7763C20.9328 15.9919 21.0534 16.2838 21.0534 16.5882C21.0538 16.7297 21.0275 16.8699 20.9761 17.0017L22.6571 18.6828C22.8857 18.5944 23.1366 18.5815 23.373 18.6462C23.6095 18.7108 23.8189 18.8495 23.9707 19.042C24.1225 19.2344 24.2087 19.4704 24.2165 19.7154C24.2244 19.9603 24.1535 20.2013 24.0143 20.4031C23.8752 20.6048 23.675 20.7567 23.4432 20.8363C23.2114 20.9159 22.9602 20.9192 22.7264 20.8456C22.4927 20.772 22.2886 20.6255 22.1442 20.4274C21.9998 20.2294 21.9227 19.9903 21.9242 19.7452C21.9231 19.6 21.9505 19.4561 22.0049 19.3216L20.3978 17.7179V21.8801C20.6367 21.9939 20.829 22.1865 20.9423 22.4255C21.0556 22.6646 21.0831 22.9354 21.02 23.1923C20.957 23.4492 20.8072 23.6765 20.5961 23.8359C20.3849 23.9953 20.1253 24.077 19.8609 24.0672C19.5966 24.0575 19.3437 23.9568 19.1448 23.7823C18.946 23.6078 18.8135 23.3701 18.7695 23.1092C18.7255 22.8484 18.7729 22.5803 18.9035 22.3503C19.0342 22.1203 19.2401 21.9423 19.4867 21.8465V17.6573C19.3449 17.6025 19.2154 17.5199 19.1058 17.4145C18.9962 17.3091 18.9087 17.183 18.8483 17.0435C18.7879 16.9039 18.7559 16.7537 18.7541 16.6017C18.7523 16.4497 18.7808 16.2988 18.8378 16.1579L17.0358 14.3558L12.5104 18.9013C12.4218 18.9894 12.3514 19.0942 12.3034 19.2096C12.2554 19.325 12.2307 19.4487 12.2307 19.5737C12.2307 19.6987 12.2554 19.8225 12.3034 19.9378C12.3514 20.0532 12.4218 20.158 12.5104 20.2461L19.2346 26.9703C19.3227 27.0589 19.4274 27.1293 19.5428 27.1773C19.6582 27.2253 19.782 27.25 19.907 27.25C20.032 27.25 20.1557 27.2253 20.2711 27.1773C20.3865 27.1293 20.4913 27.0589 20.5794 26.9703L27.3035 20.2461C27.3922 20.158 27.4625 20.0532 27.5105 19.9378C27.5585 19.8225 27.5832 19.6987 27.5832 19.5737C27.5832 19.4487 27.5585 19.325 27.5105 19.2096C27.4625 19.0942 27.3922 18.9894 27.3035 18.9013Z" fill="white"/>
<defs>
<linearGradient id="paint0_linear_2001_1141" x1="4.78789" y1="31.0688" x2="33.8126" y2="9.00352" gradientUnits="userSpaceOnUse">
<stop stop-color="#F15233"/>
<stop offset="0.05" stop-color="#EF5033"/>
<stop offset="0.64" stop-color="#D53F37"/>
<stop offset="1" stop-color="#CC3939"/>
</linearGradient>
</defs>
</svg>
