<svg width="40" height="39" viewBox="0 0 40 39" fill="none" xmlns="http://www.w3.org/2000/svg">
<path d="M37.2944 18.1859C37.5412 18.3208 37.747 18.5196 37.8904 18.7614C38.0339 19.0033 38.1095 19.2793 38.1095 19.5605C38.1095 19.8417 38.0339 20.1177 37.8904 20.3596C37.747 20.6014 37.5412 20.8002 37.2944 20.9351C30.5299 24.6348 24.9681 30.1966 21.2684 36.9612C21.1335 37.2079 20.9347 37.4138 20.6928 37.5572C20.4509 37.7006 20.1749 37.7763 19.8938 37.7763C19.6126 37.7763 19.3366 37.7006 19.0947 37.5572C18.8528 37.4138 18.654 37.2079 18.5191 36.9612C14.8194 30.1966 9.25762 24.6348 2.49306 20.9351C2.24634 20.8002 2.04048 20.6014 1.89707 20.3596C1.75365 20.1177 1.67798 19.8417 1.67798 19.5605C1.67798 19.2793 1.75365 19.0033 1.89707 18.7614C2.04048 18.5196 2.24634 18.3208 2.49306 18.1859C9.25762 14.4862 14.8194 8.92437 18.5191 2.15981C18.654 1.91309 18.8528 1.70723 19.0947 1.56382C19.3366 1.4204 19.6126 1.34473 19.8938 1.34473C20.1749 1.34473 20.4509 1.4204 20.6928 1.56382C20.9347 1.70723 21.1335 1.91309 21.2684 2.15981C24.9681 8.92437 30.5299 14.4862 37.2944 18.1859Z" fill="url(#paint0_linear_2001_362)"/>
<path d="M17.6649 22.2556C17.6411 22.199 17.5974 22.1531 17.542 22.1265C17.4867 22.0999 17.4236 22.0944 17.3645 22.111C16.8254 22.2615 16.5355 22.4676 16.478 22.7409C16.4606 22.8435 16.4734 22.9489 16.5148 23.0444C16.5562 23.1399 16.6244 23.2213 16.7111 23.2788C17.0999 23.5973 18.0057 23.8314 19.078 23.8312C20.0176 23.8362 20.9487 23.6535 21.8167 23.2939C21.8628 23.2742 21.9019 23.2412 21.9291 23.1991C21.9564 23.157 21.9704 23.1078 21.9695 23.0577C21.9687 23.0076 21.9529 22.9589 21.9242 22.9178C21.8955 22.8767 21.8553 22.8451 21.8085 22.827C21.541 22.7231 21.2826 22.5972 21.036 22.4505C20.9822 22.4167 20.9177 22.4046 20.8554 22.4165C19.8744 22.6403 18.8608 22.6834 17.8644 22.5437C17.7867 22.5354 17.7096 22.5229 17.6332 22.5065C17.66 22.4711 17.6771 22.4293 17.6826 22.3853C17.6882 22.3412 17.6821 22.2965 17.6649 22.2556Z" fill="white"/>
<path d="M22.2322 21.2144C22.2336 21.161 22.2181 21.1085 22.1878 21.0645C22.1576 21.0206 22.1141 20.9873 22.0637 20.9696C21.8735 20.901 21.6989 20.7953 21.5499 20.6587C21.5209 20.629 21.4849 20.607 21.4452 20.5947C21.4056 20.5824 21.3634 20.5802 21.3227 20.5883C20.0477 20.8675 18.7348 20.9306 17.4389 20.7751C17.3446 20.7678 17.2515 20.7496 17.1615 20.7209C17.1821 20.6977 17.2049 20.6765 17.2295 20.6575C17.2774 20.6217 17.3111 20.5699 17.3244 20.5115C17.3377 20.4531 17.3298 20.3919 17.302 20.3388C17.2743 20.2857 17.2286 20.2442 17.173 20.2217C17.1175 20.1993 17.0558 20.1974 16.9989 20.2163C16.2556 20.463 15.9358 20.7723 16.0491 21.1354C16.2051 21.635 17.348 21.9035 18.7627 21.9034C19.8744 21.9032 20.9807 21.7505 22.0508 21.4495C22.102 21.4345 22.1472 21.4037 22.1798 21.3615C22.2124 21.3192 22.2307 21.2677 22.2322 21.2144Z" fill="white"/>
<path d="M19.2824 14.719C19.07 15.3929 19.2848 16.1064 19.9207 16.8394C19.9921 16.9115 20.0477 16.9975 20.0841 17.0922C20.1205 17.1869 20.1368 17.288 20.1322 17.3893C20.0887 17.643 19.9585 17.8736 19.7638 18.0419C19.7158 18.0814 19.6841 18.1373 19.6748 18.1988C19.6655 18.2603 19.6793 18.323 19.7135 18.375C19.7476 18.4269 19.7998 18.4644 19.8599 18.4803C19.92 18.4961 19.9839 18.4892 20.0392 18.4608C20.0839 18.4377 21.1358 17.8863 21.3404 17.0431C21.3836 16.8602 21.3853 16.6699 21.3454 16.4862C21.3056 16.3025 21.2251 16.13 21.1099 15.9815L21.01 15.842C20.6758 15.3777 20.49 15.1003 20.555 14.7957C20.6564 14.3217 21.3971 13.6986 22.8864 12.835C22.939 12.8045 22.9787 12.756 22.9984 12.6986C23.0181 12.6411 23.0163 12.5785 22.9935 12.5222C22.9707 12.4659 22.9284 12.4198 22.8742 12.3922C22.8201 12.3646 22.7579 12.3575 22.6989 12.3722C22.5805 12.4019 19.7884 13.1162 19.2824 14.719Z" fill="white"/>
<path d="M24.2345 24.2471C24.271 24.1253 24.3041 23.8185 23.8195 23.6C23.7657 23.5732 23.7038 23.5674 23.6459 23.5839C23.5881 23.6004 23.5385 23.6379 23.5068 23.689C23.4752 23.7402 23.4638 23.8013 23.4749 23.8604C23.486 23.9195 23.5187 23.9723 23.5667 24.0086C23.566 24.0094 23.5163 24.0989 23.1812 24.2005C21.5458 24.6961 16.6094 24.8102 15.0657 24.287C15.2521 24.2029 15.4466 24.1378 15.6461 24.0926C15.7901 24.0577 15.9377 24.0402 16.0858 24.0402C16.1408 24.0445 16.1957 24.0305 16.2418 24.0003C16.288 23.9701 16.3228 23.9254 16.3409 23.8733C16.3594 23.8214 16.3604 23.7649 16.3437 23.7124C16.3271 23.6599 16.2937 23.6143 16.2486 23.5825C15.7571 23.2365 14.4156 23.6521 13.8765 24.0092C13.5692 24.2124 13.4381 24.4313 13.4874 24.6596C13.5652 25.0211 14.0636 25.1423 14.4321 25.202C15.793 25.4225 17.1694 25.534 18.5481 25.5354C21.687 25.5354 24.0293 24.929 24.2345 24.2471Z" fill="white"/>
<path d="M17.6772 19.8928C17.8174 19.8956 17.9573 19.897 18.0971 19.8971C19.3871 19.9148 20.6745 19.7779 21.932 19.4893C21.9599 19.4821 21.9863 19.47 22.0101 19.4537C22.2121 19.3241 22.4241 19.2109 22.6441 19.115C22.701 19.0906 22.7469 19.0462 22.7731 18.9901C22.7993 18.9341 22.804 18.8703 22.7863 18.8111C22.7686 18.7518 22.7297 18.7011 22.677 18.6686C22.6243 18.6361 22.5615 18.6242 22.5006 18.635C22.4895 18.637 21.3811 18.8338 20.291 18.9256C19.1256 19.0409 17.9524 19.0541 16.7848 18.9653C16.7267 18.9574 16.6764 18.9495 16.6331 18.9418C17.0004 18.7958 17.3781 18.6778 17.7632 18.5887C17.8219 18.5748 17.8737 18.5403 17.9091 18.4914C17.9445 18.4425 17.9612 18.3826 17.9562 18.3225C17.9512 18.2624 17.9248 18.206 17.8818 18.1637C17.8388 18.1214 17.782 18.0959 17.7218 18.0918C16.8682 18.0832 16.025 18.2806 15.264 18.6674C14.8348 18.875 14.8151 19.1093 14.8742 19.2694C15.0141 19.6482 15.9571 19.858 17.6772 19.8928Z" fill="white"/>
<path d="M25.36 19.0428C25.1268 18.8488 24.8457 18.7211 24.5461 18.6733C24.2465 18.6254 23.9396 18.6591 23.6576 18.7708C23.509 18.8255 23.3812 18.9252 23.2918 19.0559C23.2634 19.1008 23.2498 19.1536 23.2531 19.2067C23.2564 19.2598 23.2764 19.3105 23.3102 19.3515C23.344 19.3926 23.39 19.4219 23.4414 19.4354C23.4929 19.4488 23.5473 19.4456 23.5968 19.4263C23.6872 19.3954 23.7798 19.3709 23.8736 19.3532C24.0279 19.327 24.1866 19.3537 24.3238 19.429C24.461 19.5043 24.5687 19.6238 24.6294 19.7681C24.812 20.2799 24.2433 20.9376 23.1086 21.5272C23.0965 21.5336 23.0848 21.5409 23.0738 21.5491C22.9975 21.6027 22.9435 21.6824 22.9221 21.7732C22.9146 21.8098 22.9153 21.8477 22.9243 21.884C22.9332 21.9203 22.9501 21.9542 22.9737 21.9832C22.9973 22.0122 23.0271 22.0356 23.0609 22.0516C23.0947 22.0677 23.1316 22.076 23.1691 22.076C23.1906 22.076 23.2121 22.0732 23.2329 22.0678C25.1517 21.5635 25.6261 20.7181 25.7384 20.259C25.7926 20.0411 25.786 19.8124 25.7192 19.598C25.6525 19.3836 25.5283 19.1915 25.36 19.0428Z" fill="white"/>
<path d="M18.9525 17.4436C18.9954 17.4821 19.0501 17.5047 19.1077 17.5077C19.1653 17.5108 19.2221 17.494 19.2688 17.4602C19.3154 17.4264 19.3491 17.3776 19.3642 17.322C19.3793 17.2663 19.3749 17.2072 19.3517 17.1545C19.2022 16.8474 19.0236 16.5553 18.8182 16.2823C18.1678 15.3561 17.606 14.5562 19.2785 13.2355C20.515 12.259 21.17 11.2877 21.2252 10.348C21.2449 10.0961 21.2139 9.84278 21.1341 9.60305C21.0542 9.36332 20.9271 9.14204 20.7603 8.9523C20.7212 8.91333 20.6704 8.88825 20.6157 8.88091C20.5611 8.87356 20.5055 8.88436 20.4575 8.91163C20.4096 8.93891 20.3719 8.98117 20.3502 9.03192C20.3286 9.08267 20.3242 9.13913 20.3377 9.19262C20.7113 10.6652 19.705 11.4533 18.6393 12.2878C18.0791 12.679 17.5831 13.1547 17.1687 13.6979C16.3479 14.9306 17.544 16.1731 18.9525 17.4436Z" fill="white"/>
<path d="M25.0164 25.0865C24.9598 25.0708 24.8994 25.0766 24.8468 25.1028C24.7942 25.1289 24.7531 25.1736 24.7314 25.2282C24.7288 25.2321 24.4514 25.6265 22.703 25.9556C20.5006 26.3302 18.2538 26.3649 16.041 26.0584C15.9863 26.0493 15.9301 26.0585 15.8812 26.0846C15.8322 26.1106 15.7933 26.1521 15.7703 26.2026C15.7473 26.253 15.7415 26.3096 15.754 26.3637C15.7664 26.4177 15.7963 26.4661 15.839 26.5015C15.9067 26.5573 16.3315 26.8416 18.0776 26.9534C18.0982 26.9547 18.7197 26.9925 19.5882 26.9925C21.6481 26.9925 25.0969 26.7799 25.2059 25.3643C25.212 25.3031 25.1963 25.2417 25.1617 25.191C25.127 25.1402 25.0756 25.1032 25.0164 25.0865Z" fill="white"/>
<defs>
<linearGradient id="paint0_linear_2001_362" x1="6.53299" y1="31.9875" x2="33.2092" y2="7.17568" gradientUnits="userSpaceOnUse">
<stop stop-color="#FFE620"/>
<stop offset="1" stop-color="#FF7853"/>
</linearGradient>
</defs>
</svg>
