<svg width="39" height="39" viewBox="0 0 39 39" fill="none" xmlns="http://www.w3.org/2000/svg">
<path d="M20.875 36.902C20.7402 37.1489 20.5414 37.355 20.2994 37.4986C20.0574 37.6421 19.7813 37.7179 19.4999 37.7179C19.2186 37.7179 18.9424 37.6421 18.7005 37.4986C18.4585 37.355 18.2597 37.1489 18.1248 36.902C14.4256 30.1366 8.86328 24.5743 2.09787 20.875C1.85093 20.7402 1.64487 20.5414 1.5013 20.2994C1.35774 20.0574 1.28198 19.7813 1.28198 19.4999C1.28198 19.2186 1.35774 18.9424 1.5013 18.7005C1.64487 18.4585 1.85093 18.2597 2.09787 18.1248C8.86328 14.4256 14.4256 8.86328 18.1248 2.09787C18.2597 1.85093 18.4585 1.64487 18.7005 1.5013C18.9424 1.35774 19.2186 1.28198 19.4999 1.28198C19.7813 1.28198 20.0574 1.35774 20.2994 1.5013C20.5414 1.64487 20.7402 1.85093 20.875 2.09787C24.5743 8.86328 30.1366 14.4256 36.902 18.1248C37.1489 18.2597 37.355 18.4585 37.4986 18.7005C37.6421 18.9424 37.7179 19.2186 37.7179 19.4999C37.7179 19.7813 37.6421 20.0574 37.4986 20.2994C37.355 20.5414 37.1489 20.7402 36.902 20.875C30.1366 24.5743 24.5743 30.1366 20.875 36.902Z" fill="url(#paint0_linear_2001_2478)"/>
<path d="M16.5346 18.9587C16.5311 18.9463 16.5252 18.9347 16.5172 18.9246C16.5092 18.9145 16.4993 18.9061 16.4881 18.8999C16.4768 18.8936 16.4644 18.8897 16.4516 18.8882C16.4388 18.8868 16.4259 18.8879 16.4135 18.8915L15.9899 18.9621C15.9562 18.8839 15.9109 18.8114 15.8554 18.7469L15.926 18.6696L16.1614 18.4006C16.1789 18.3822 16.1886 18.3576 16.1883 18.3322C16.188 18.3067 16.1777 18.2824 16.1597 18.2644C16.1417 18.2464 16.1174 18.2362 16.092 18.2359C16.0665 18.2355 16.042 18.2452 16.0235 18.2627C15.963 18.33 15.9025 18.4006 15.8386 18.4678L15.7512 18.5721L15.7209 18.6057C15.6537 18.5403 15.5793 18.4828 15.499 18.4342C15.499 18.4006 15.5226 18.367 15.536 18.33L15.6335 18.0577C15.6371 18.0453 15.6381 18.0324 15.6367 18.0196C15.6352 18.0068 15.6312 17.9945 15.625 17.9832C15.6187 17.972 15.6103 17.9621 15.6003 17.9541C15.5902 17.9461 15.5786 17.9402 15.5663 17.9366C15.5539 17.9331 15.541 17.932 15.5282 17.9335C15.5154 17.935 15.5031 17.9389 15.4918 17.9452C15.4806 17.9514 15.4707 17.9598 15.4627 17.9699C15.4547 17.98 15.4488 17.9915 15.4453 18.0039L15.3713 18.2123L15.3343 18.3132V18.3636C15.3082 18.3547 15.2811 18.3491 15.2536 18.3468C15.1656 18.3381 15.0768 18.3503 14.9944 18.3825C14.9121 18.4146 14.8384 18.4657 14.7796 18.5317C14.7138 18.5899 14.663 18.663 14.6314 18.7449C14.5998 18.8268 14.5884 18.9151 14.598 19.0024C14.6026 19.0422 14.6105 19.0816 14.6215 19.1201C14.5068 19.1469 14.3944 19.1829 14.2853 19.2277C14.2729 19.2311 14.2614 19.2371 14.2513 19.245C14.2412 19.253 14.2328 19.2629 14.2265 19.2742C14.2203 19.2854 14.2163 19.2978 14.2148 19.3106C14.2134 19.3234 14.2145 19.3363 14.2181 19.3487C14.2259 19.3732 14.2428 19.3939 14.2653 19.4064C14.2878 19.4189 14.3142 19.4223 14.3391 19.4159C14.4627 19.3682 14.5897 19.33 14.719 19.3016C14.7622 19.372 14.8129 19.4374 14.8703 19.4966C14.7594 19.6009 14.6451 19.7017 14.5341 19.7992C14.5157 19.8181 14.5053 19.8434 14.5053 19.8698C14.5053 19.8962 14.5157 19.9216 14.5341 19.9404C14.5532 19.9572 14.5777 19.9665 14.6031 19.9665C14.6284 19.9665 14.6529 19.9572 14.672 19.9404C14.7896 19.8396 14.904 19.7353 15.0082 19.6311C15.0796 19.6891 15.1588 19.7366 15.2435 19.7723C15.1998 19.8732 15.1561 19.974 15.1191 20.0783C15.1156 20.0909 15.1146 20.104 15.1163 20.117C15.1179 20.13 15.1222 20.1425 15.1288 20.1537C15.1354 20.165 15.1442 20.1749 15.1546 20.1827C15.1651 20.1905 15.177 20.1962 15.1897 20.1993C15.2147 20.2057 15.2411 20.2022 15.2636 20.1897C15.2861 20.1772 15.303 20.1566 15.3108 20.1321C15.3343 20.0648 15.3578 19.9942 15.3847 19.927L15.4049 19.8799V19.853C15.4055 19.8441 15.4055 19.8351 15.4049 19.8261C15.4927 19.8293 15.5801 19.8138 15.6615 19.7807C15.7429 19.7476 15.8163 19.6976 15.877 19.6341C15.9376 19.5706 15.9842 19.4949 16.0135 19.4121C16.0428 19.3293 16.0542 19.2412 16.0471 19.1537L16.474 19.0797C16.4978 19.0713 16.5174 19.054 16.5287 19.0314C16.54 19.0089 16.5421 18.9828 16.5346 18.9587Z" fill="white"/>
<path d="M17.3415 15.6C16.7147 15.2602 16.0101 15.0899 15.2973 15.1058C14.7549 15.0984 14.2162 15.1955 13.7104 15.3915C13.2459 15.5726 12.8237 15.8472 12.4698 16.1984C12.116 16.5488 11.8429 16.9722 11.6697 17.439C11.4785 17.9587 11.3851 18.5093 11.394 19.0629C11.377 19.7865 11.5473 20.5022 11.8882 21.1407C12.208 21.7196 12.6816 22.199 13.2566 22.5258C13.8744 22.8639 14.5696 23.0354 15.2738 23.0234C15.4483 23.0174 15.6222 23.0472 15.7848 23.1108C15.9124 23.1673 16.0219 23.2581 16.1009 23.3731L16.9044 24.691C17.0152 24.8761 17.1843 25.0191 17.3852 25.0978C17.5654 25.1661 17.7614 25.1812 17.95 25.1415C18.1298 25.1056 18.2976 25.0246 18.4375 24.9062C18.5737 24.7931 18.6664 24.6363 18.6997 24.4624C18.7368 24.2574 18.6947 24.0459 18.5821 23.8707L18.182 23.2319C18.047 22.988 17.8468 22.7866 17.6037 22.6502C17.5128 22.5971 17.4157 22.5554 17.3146 22.5258C17.6113 22.3654 17.8831 22.1626 18.1215 21.924C18.4698 21.5667 18.7401 21.1408 18.9149 20.6733C19.1049 20.1533 19.1984 19.603 19.1906 19.0495C19.2074 18.3264 19.042 17.6108 18.7098 16.9683C18.3938 16.3909 17.9189 15.916 17.3415 15.6ZM12.7926 19.0629C12.776 18.5957 12.8814 18.1321 13.0985 17.7181C13.297 17.3582 13.5992 17.0664 13.966 16.8809C14.3838 16.676 14.8456 16.5767 15.3108 16.5918C15.646 16.5746 15.9812 16.625 16.2966 16.7399C16.6119 16.8549 16.9009 17.032 17.1465 17.2608C17.3754 17.4996 17.5532 17.7825 17.6688 18.0924C17.7844 18.4023 17.8355 18.7326 17.8189 19.0629C17.8203 19.5268 17.7047 19.9836 17.4827 20.3909C17.2917 20.7531 16.995 21.0486 16.6321 21.2382C16.2148 21.4451 15.7528 21.5456 15.2872 21.5307C14.9533 21.5489 14.6191 21.5007 14.304 21.3887C13.9888 21.2767 13.6991 21.1033 13.4516 20.8784C13.2227 20.6375 13.046 20.3518 12.9326 20.0394C12.8192 19.727 12.7715 19.3946 12.7926 19.0629Z" fill="white"/>
<path d="M27.4815 21.7828L24.7615 15.9529C24.6591 15.7077 24.496 15.4925 24.2875 15.3276C24.0998 15.1923 23.8733 15.1215 23.642 15.1259C23.402 15.1195 23.1664 15.1902 22.9696 15.3276C22.7591 15.4913 22.5946 15.7068 22.4922 15.9529L19.789 21.7828C19.6948 21.9768 19.6608 22.1946 19.6915 22.4081C19.7051 22.4991 19.7371 22.5863 19.7857 22.6643C19.8343 22.7424 19.8984 22.8097 19.974 22.862C20.1408 22.9763 20.34 23.0341 20.5421 23.0267C20.7701 23.045 20.9961 22.9725 21.1709 22.825C21.3422 22.6371 21.4758 22.4179 21.5642 22.1795L21.9004 21.3726H25.3533L25.6895 22.1795C25.7818 22.4219 25.9277 22.6403 26.1165 22.8183C26.3009 22.9655 26.5331 23.0396 26.7687 23.0267C26.9688 23.0341 27.1658 22.9763 27.3302 22.862C27.4736 22.7562 27.5691 22.5978 27.5958 22.4216C27.625 22.2019 27.585 21.9786 27.4815 21.7828ZM23.6184 17.3247H23.642L24.6842 19.816H22.5762L23.6184 17.3247Z" fill="white"/>
<defs>
<linearGradient id="paint0_linear_2001_2478" x1="37.7179" y1="1.28236" x2="-0.803768" y2="2.06982" gradientUnits="userSpaceOnUse">
<stop stop-color="#FF9A55"/>
<stop offset="1" stop-color="#FF499D"/>
</linearGradient>
</defs>
</svg>
