<svg width="40" height="39" viewBox="0 0 40 39" fill="none" xmlns="http://www.w3.org/2000/svg">
<path d="M37.2353 18.125C37.4822 18.2598 37.6883 18.4586 37.8318 18.7006C37.9754 18.9426 38.0511 19.2187 38.0511 19.5001C38.0511 19.7814 37.9754 20.0576 37.8318 20.2995C37.6883 20.5415 37.4822 20.7403 37.2353 20.8751C30.4698 24.5744 24.9075 30.1367 21.2083 36.9021C21.0734 37.1491 20.8746 37.3551 20.6326 37.4987C20.3907 37.6423 20.1145 37.718 19.8332 37.718C19.5518 37.718 19.2757 37.6423 19.0337 37.4987C18.7918 37.3551 18.5929 37.1491 18.4581 36.9021C14.7588 30.1367 9.19654 24.5744 2.43112 20.8751C2.18419 20.7403 1.97812 20.5415 1.83456 20.2995C1.69099 20.0576 1.61523 19.7814 1.61523 19.5001C1.61523 19.2187 1.69099 18.9426 1.83456 18.7006C1.97812 18.4586 2.18419 18.2598 2.43112 18.125C9.19654 14.4257 14.7588 8.86341 18.4581 2.09799C18.5929 1.85106 18.7918 1.64499 19.0337 1.50143C19.2757 1.35786 19.5518 1.2821 19.8332 1.2821C20.1145 1.2821 20.3907 1.35786 20.6326 1.50143C20.8746 1.64499 21.0734 1.85106 21.2083 2.09799C24.9075 8.86341 30.4698 14.4257 37.2353 18.125Z" fill="url(#paint0_linear_2001_929)"/>
<path d="M22.7111 13.3038C22.1329 12.0834 19.9206 12.1136 19.3289 12.1237C18.6161 12.1237 16.8679 12.1607 16.4274 13.1323C16.3393 13.3377 16.3068 13.5627 16.3333 13.7846V14.8806C16.3333 14.9698 16.3687 15.0553 16.4318 15.1183C16.4948 15.1814 16.5803 15.2168 16.6695 15.2168H19.228C19.2896 15.2168 19.3486 15.2413 19.3921 15.2848C19.4356 15.3283 19.46 15.3873 19.46 15.4488V15.6976C19.46 15.7591 19.4356 15.8181 19.3921 15.8616C19.3486 15.9051 19.2896 15.9296 19.228 15.9296H14.8574C14.4746 15.934 14.1016 16.0509 13.7849 16.2658C13.4593 16.5197 13.2151 16.8633 13.0822 17.2542C12.8374 17.905 12.7398 18.602 12.7964 19.295C12.7491 20.0716 12.8911 20.848 13.2099 21.5577C13.3577 21.9164 13.6155 22.2189 13.9462 22.4217C14.2327 22.5498 14.5436 22.614 14.8574 22.61H15.5533C15.6003 22.6124 15.6473 22.6049 15.6912 22.5881C15.7351 22.5712 15.775 22.5453 15.8083 22.512C15.8416 22.4787 15.8675 22.4388 15.8844 22.3949C15.9013 22.351 15.9087 22.304 15.9063 22.257C15.9063 21.9208 15.9063 21.3828 15.9063 21.0702C15.9189 20.5568 16.1215 20.0663 16.4749 19.6937C16.8283 19.321 17.3073 19.0927 17.8193 19.0529H19.5777H21.178C21.6175 19.0486 22.0378 18.8723 22.3488 18.5619C22.6599 18.2514 22.837 17.8315 22.8423 17.3921V15.2168V13.7846C22.8276 13.6178 22.7831 13.455 22.7111 13.3038ZM17.7588 14.3763C17.6351 14.3763 17.5142 14.3396 17.4114 14.2709C17.3086 14.2022 17.2284 14.1045 17.1811 13.9903C17.1337 13.876 17.1214 13.7503 17.1455 13.629C17.1696 13.5076 17.2292 13.3962 17.3166 13.3088C17.4041 13.2213 17.5155 13.1618 17.6368 13.1376C17.7581 13.1135 17.8839 13.1259 17.9981 13.1732C18.1124 13.2205 18.2101 13.3007 18.2788 13.4035C18.3475 13.5064 18.3842 13.6273 18.3842 13.751C18.3842 13.9168 18.3183 14.0759 18.201 14.1931C18.0837 14.3104 17.9247 14.3763 17.7588 14.3763Z" fill="white"/>
<path d="M16.9553 25.6964C17.5336 26.9168 19.7459 26.8866 20.3376 26.8765C21.0503 26.8765 22.7986 26.8395 23.239 25.8679C23.3226 25.6707 23.355 25.4556 23.3332 25.2425V24.1364C23.3355 24.0909 23.3285 24.0453 23.3126 24.0026C23.2967 23.9598 23.2723 23.9207 23.2409 23.8877C23.2094 23.8547 23.1716 23.8284 23.1296 23.8105C23.0877 23.7925 23.0426 23.7833 22.997 23.7834H20.4384C20.3769 23.7834 20.3179 23.7589 20.2744 23.7154C20.2309 23.6719 20.2065 23.6129 20.2065 23.5514V23.3026C20.2065 23.2411 20.2309 23.1821 20.2744 23.1386C20.3179 23.0951 20.3769 23.0706 20.4384 23.0706H24.8091C25.1919 23.0662 25.5649 22.9493 25.8816 22.7344C26.2072 22.4805 26.4514 22.1369 26.5843 21.746C26.8291 21.0952 26.9267 20.3982 26.8701 19.7052C26.9173 18.9286 26.7754 18.1522 26.4565 17.4425C26.3088 17.0838 26.051 16.7813 25.7203 16.5785C25.4338 16.4504 25.1229 16.3862 24.8091 16.3902H24.1165C24.0274 16.3902 23.9419 16.4256 23.8788 16.4887C23.8158 16.5517 23.7803 16.6372 23.7803 16.7264C23.7803 17.0626 23.7803 17.6005 23.7803 17.9132C23.7677 18.4266 23.5651 18.9171 23.2118 19.2897C22.8584 19.6623 22.3793 19.8907 21.8673 19.9304H20.109H18.4884C18.049 19.9348 17.6287 20.1111 17.3177 20.4215C17.0066 20.732 16.8295 21.1519 16.8242 21.5913V23.7699V25.219C16.8393 25.3846 16.8837 25.5463 16.9553 25.6964ZM21.9077 24.6239C22.0313 24.6239 22.1523 24.6606 22.2551 24.7293C22.3579 24.798 22.4381 24.8957 22.4854 25.0099C22.5327 25.1242 22.5451 25.2499 22.521 25.3712C22.4969 25.4925 22.4373 25.604 22.3499 25.6914C22.2624 25.7789 22.151 25.8384 22.0297 25.8626C21.9084 25.8867 21.7826 25.8743 21.6684 25.827C21.5541 25.7797 21.4564 25.6995 21.3877 25.5967C21.319 25.4938 21.2823 25.3729 21.2823 25.2492C21.2823 25.0834 21.3482 24.9243 21.4655 24.8071C21.5828 24.6898 21.7418 24.6239 21.9077 24.6239Z" fill="white"/>
<defs>
<linearGradient id="paint0_linear_2001_929" x1="38.0511" y1="1.28249" x2="-0.470516" y2="2.06994" gradientUnits="userSpaceOnUse">
<stop stop-color="#ACE113"/>
<stop offset="1" stop-color="#00A176"/>
</linearGradient>
</defs>
</svg>
