<svg width="40" height="39" viewBox="0 0 40 39" fill="none" xmlns="http://www.w3.org/2000/svg">
<path d="M34.4993 5.16751C31.9071 2.57536 26.1781 3.85631 20.1668 7.89079C14.1554 3.85631 8.42642 2.57536 5.83426 5.16751C3.24211 7.75967 4.52306 13.4886 8.55754 19.5C4.52306 25.5114 3.24211 31.2404 5.83426 33.8325C8.42642 36.4247 14.1554 35.1437 20.1668 31.1092C26.1781 35.1437 31.9071 36.4247 34.4993 33.8325C37.0914 31.2404 35.8105 25.5114 31.776 19.5C35.8105 13.4886 37.0914 7.75967 34.4993 5.16751Z" fill="url(#paint0_linear_2001_858)"/>
<path d="M20.0524 14.0232L19.6793 15.4957C19.6597 15.5708 19.6164 15.6376 19.5558 15.6861C19.4952 15.7345 19.4206 15.7621 19.343 15.7647H17.4435C17.3936 15.7645 17.3442 15.7747 17.2984 15.7947C17.2527 15.8146 17.2116 15.8439 17.1778 15.8805C17.1439 15.9172 17.1181 15.9605 17.1019 16.0077C17.0857 16.0549 17.0795 16.105 17.0837 16.1547L17.2182 17.708C17.2242 17.7987 17.2642 17.8838 17.3303 17.9461C17.3964 18.0085 17.4837 18.0435 17.5746 18.0442H18.5395C18.5937 18.0453 18.6469 18.0588 18.6951 18.0836C18.7433 18.1084 18.7852 18.1439 18.8176 18.1873C18.8501 18.2308 18.8721 18.281 18.8822 18.3343C18.8923 18.3876 18.8901 18.4424 18.8757 18.4947L18.4857 19.9975C18.4657 20.0724 18.4223 20.1388 18.3618 20.1872C18.3013 20.2356 18.2269 20.2634 18.1495 20.2665H17.8133C17.7634 20.2663 17.714 20.2765 17.6683 20.2965C17.6225 20.3164 17.5814 20.3457 17.5476 20.3823C17.5138 20.419 17.4879 20.4623 17.4718 20.5095C17.4556 20.5567 17.4494 20.6068 17.4536 20.6565L17.6654 23.0705C17.672 23.1106 17.672 23.1514 17.6654 23.1915L17.2081 24.9196C17.1964 24.9656 17.1757 25.0089 17.1471 25.0468C17.1186 25.0848 17.0828 25.1167 17.0419 25.1408C17.0009 25.1649 16.9556 25.1806 16.9085 25.1871C16.8615 25.1935 16.8136 25.1906 16.7677 25.1785L15.833 24.9263C15.7617 24.9073 15.6979 24.8668 15.6504 24.8102C15.6029 24.7537 15.5739 24.6839 15.5674 24.6103L14.6429 13.9626C14.6387 13.9129 14.6449 13.8629 14.6611 13.8157C14.6773 13.7685 14.7031 13.7251 14.7369 13.6885C14.7707 13.6518 14.8118 13.6225 14.8576 13.6026C14.9033 13.5827 14.9527 13.5725 15.0026 13.5726H19.7095C19.7641 13.5734 19.8177 13.5866 19.8664 13.6112C19.9151 13.6357 19.9576 13.671 19.9906 13.7144C20.0236 13.7578 20.0464 13.8082 20.0571 13.8617C20.0678 13.9152 20.0662 13.9704 20.0524 14.0232Z" fill="white"/>
<path d="M25.3309 13.5726H21.562C21.4845 13.5752 21.4099 13.6028 21.3493 13.6513C21.2887 13.6997 21.2454 13.7665 21.2258 13.8416L20.8392 15.3175C20.8255 15.3696 20.8237 15.4241 20.8341 15.4769C20.8444 15.5298 20.8666 15.5796 20.899 15.6226C20.9313 15.6656 20.973 15.7008 21.0209 15.7254C21.0688 15.75 21.1216 15.7634 21.1754 15.7647H22.8564C22.9065 15.7644 22.9561 15.7747 23.0019 15.7949C23.0478 15.8151 23.0889 15.8447 23.1225 15.8818C23.1561 15.9189 23.1815 15.9627 23.1971 16.0103C23.2127 16.0579 23.218 16.1083 23.2128 16.1581L23.0783 17.708C23.0724 17.7987 23.0323 17.8838 22.9662 17.9461C22.9001 18.0085 22.8128 18.0435 22.722 18.0442H20.4021C20.3241 18.047 20.2492 18.075 20.1885 18.1242C20.1279 18.1733 20.0848 18.2408 20.0659 18.3165L19.6658 19.8362C19.6528 19.8882 19.6515 19.9425 19.6621 19.995C19.6727 20.0476 19.695 20.0971 19.7272 20.14C19.7594 20.1829 19.8008 20.218 19.8484 20.2428C19.896 20.2676 19.9485 20.2814 20.002 20.2833H22.4597C22.5099 20.2831 22.5596 20.2934 22.6056 20.3135C22.6516 20.3337 22.6929 20.3632 22.7268 20.4003C22.7606 20.4373 22.7864 20.4811 22.8024 20.5287C22.8183 20.5763 22.8242 20.6267 22.8195 20.6767L22.6043 22.899C22.6009 22.9727 22.5734 23.0432 22.526 23.0997C22.4786 23.1562 22.414 23.1955 22.342 23.2117L20.2441 23.7765C20.1847 23.7932 20.1219 23.7932 20.0626 23.7765L19.0539 23.5176C19.008 23.5055 18.9602 23.5026 18.9131 23.5091C18.866 23.5155 18.8207 23.5312 18.7798 23.5553C18.7388 23.5794 18.7031 23.6113 18.6745 23.6493C18.646 23.6873 18.6253 23.7305 18.6135 23.7765L18.2605 25.2155C18.2378 25.3064 18.2514 25.4025 18.2985 25.4835C18.3456 25.5645 18.4224 25.624 18.5127 25.6492L20.0727 26.0829C20.1343 26.0998 20.1993 26.0998 20.2609 26.0829L24.5005 24.923C24.5718 24.905 24.6358 24.8652 24.6834 24.8092C24.731 24.7531 24.7599 24.6836 24.7661 24.6103L25.6907 13.9593C25.6944 13.9098 25.6878 13.8601 25.6714 13.8133C25.655 13.7665 25.6291 13.7236 25.5953 13.6873C25.5615 13.651 25.5206 13.6221 25.4751 13.6023C25.4296 13.5826 25.3805 13.5725 25.3309 13.5726Z" fill="white"/>
<defs>
<linearGradient id="paint0_linear_2001_858" x1="35.8457" y1="3.82137" x2="2.69273" y2="4.49908" gradientUnits="userSpaceOnUse">
<stop stop-color="#FFAA00"/>
<stop offset="1" stop-color="#FF433C"/>
</linearGradient>
</defs>
</svg>
