<svg width="40" height="39" viewBox="0 0 40 39" fill="none" xmlns="http://www.w3.org/2000/svg">
<path d="M9.94866 29.3845C12.0466 34.4041 15.6877 37.7292 19.8331 37.7292C23.9786 37.7292 27.6197 34.4041 29.7176 29.3845C34.7372 27.2866 38.0623 23.6454 38.0623 19.5C38.0623 15.3546 34.7372 11.7135 29.7176 9.61553C27.6197 4.59596 23.9786 1.27087 19.8331 1.27087C15.6877 1.27087 12.0466 4.59596 9.94866 9.61553C4.92909 11.7135 1.604 15.3546 1.604 19.5C1.604 23.6454 4.92909 27.2866 9.94866 29.3845Z" fill="url(#paint0_linear_2001_121)"/>
<path d="M15.0151 15.3007C14.8661 15.1781 14.7288 15.0419 14.6049 14.8939C14.5673 14.8505 14.5466 14.795 14.5466 14.7376C14.5466 14.6802 14.5673 14.6247 14.6049 14.5813C15.146 14.0122 15.7762 13.5352 16.4709 13.1692C16.8306 12.9809 16.8878 12.9372 16.9248 12.9809C16.9618 13.0246 16.8474 13.1188 16.6256 13.3575C16.4944 13.4987 16.3633 13.6433 16.2725 13.7576C15.9174 14.2022 15.6223 14.6916 15.395 15.2133C15.3789 15.2472 15.3554 15.2769 15.3261 15.3004C15.2969 15.3239 15.2627 15.3404 15.2262 15.3488C15.1897 15.3572 15.1517 15.3573 15.1152 15.349C15.0786 15.3406 15.0444 15.3241 15.0151 15.3007Z" fill="white"/>
<path d="M13.9595 15.8756C14.2071 16.1127 14.4786 16.3234 14.7698 16.5043C14.8135 16.5298 14.8477 16.5689 14.8671 16.6157C14.8865 16.6624 14.8901 16.7142 14.8774 16.7632C14.8101 17.0187 14.753 17.2742 14.6992 17.5331C14.3537 18.8938 14.2987 20.312 14.5378 21.6953C14.5479 21.7837 14.5339 21.8731 14.4975 21.9542C14.4698 22.0316 14.4148 22.0962 14.3428 22.1358C14.1915 22.2299 13.9293 22.4115 13.5762 22.667C13.5465 22.6882 13.5125 22.7025 13.4766 22.7091C13.4407 22.7156 13.4038 22.7142 13.3685 22.7049C13.3332 22.6956 13.3004 22.6787 13.2724 22.6553C13.2444 22.6318 13.2218 22.6026 13.2064 22.5695C12.7883 21.5983 12.5797 20.5499 12.5942 19.4926C12.6087 18.4354 12.8459 17.3931 13.2905 16.4337C13.3779 16.2555 13.472 16.0975 13.5762 15.916C13.596 15.8846 13.6227 15.8581 13.6542 15.8385C13.6857 15.8189 13.7212 15.8067 13.7581 15.8029C13.795 15.799 13.8323 15.8035 13.8672 15.8161C13.902 15.8287 13.9336 15.849 13.9595 15.8756Z" fill="white"/>
<path d="M16.3264 25.6794C16.4475 25.8005 16.5752 25.9148 16.7063 26.0157C16.8375 26.1165 16.8509 26.1367 16.8341 26.1602C16.8173 26.1838 16.7467 26.1602 16.5954 26.0896C15.9306 25.7891 15.3205 25.3801 14.79 24.8793C14.527 24.626 14.2852 24.3517 14.0671 24.0589C14.047 24.0346 14.0319 24.0065 14.0229 23.9763C14.0138 23.9461 14.0109 23.9144 14.0144 23.883C14.0178 23.8516 14.0275 23.8213 14.0429 23.7937C14.0584 23.7662 14.0792 23.7421 14.1041 23.7227C14.2701 23.5807 14.4441 23.4483 14.6252 23.326C14.6564 23.3041 14.6922 23.2896 14.7299 23.2837C14.7676 23.2779 14.8061 23.2807 14.8425 23.2921C14.8789 23.3035 14.9122 23.323 14.9398 23.3493C14.9674 23.3756 14.9886 23.4079 15.0018 23.4437C15.2745 24.2768 15.7267 25.04 16.3264 25.6794Z" fill="white"/>
<path d="M16.1718 22.5527C17.1 22.2541 18.0651 22.0855 19.0396 22.0517C19.0725 22.0494 19.1055 22.0539 19.1366 22.0648C19.1677 22.0757 19.1963 22.0929 19.2205 22.1153C19.2448 22.1376 19.2642 22.1647 19.2776 22.1948C19.291 22.2249 19.2981 22.2575 19.2985 22.2904L19.275 25.8879C19.2735 25.9294 19.2615 25.9698 19.2401 26.0055C19.2187 26.0411 19.1887 26.0707 19.1527 26.0916C19.1168 26.1124 19.0761 26.1238 19.0346 26.1246C18.993 26.1254 18.952 26.1157 18.9152 26.0963C18.068 25.6458 17.2342 25.1381 16.7433 24.3581C16.4451 23.8892 16.2025 23.3871 16.0205 22.862C16 22.8009 16.0045 22.7342 16.0328 22.6764C16.0611 22.6185 16.111 22.5741 16.1718 22.5527Z" fill="white"/>
<path d="M15.5868 19.658C15.6298 18.8696 15.748 18.0872 15.9399 17.3213C15.9475 17.2893 15.9617 17.2592 15.9816 17.2329C16.0015 17.2066 16.0266 17.1848 16.0553 17.1687C16.084 17.1526 16.1158 17.1426 16.1486 17.1393C16.1814 17.1361 16.2145 17.1397 16.2458 17.1499C17.1723 17.3908 18.1261 17.5106 19.0834 17.5063C19.1473 17.5071 19.2084 17.5329 19.2536 17.5781C19.2988 17.6233 19.3246 17.6844 19.3255 17.7483L19.3053 20.6767C19.3044 20.7383 19.2798 20.7971 19.2366 20.841C19.1934 20.8848 19.1349 20.9103 19.0733 20.912C18.0211 20.9517 16.9782 21.1257 15.9701 21.4298C15.9366 21.4416 15.9008 21.4458 15.8654 21.4422C15.8301 21.4386 15.7959 21.4272 15.7654 21.4089C15.7349 21.3906 15.7089 21.3659 15.689 21.3363C15.6692 21.3068 15.6561 21.2733 15.6507 21.2382C15.5891 20.7138 15.5678 20.1856 15.5868 19.658Z" fill="white"/>
<path d="M16.824 14.9612C17.3792 14.112 18.1137 13.3948 18.9758 12.8599C19.0127 12.8365 19.0552 12.8234 19.0989 12.822C19.1426 12.8206 19.1859 12.8309 19.2243 12.8518C19.2627 12.8727 19.2948 12.9035 19.3173 12.941C19.3398 12.9784 19.3519 13.0212 19.3523 13.065C19.3523 14.0736 19.3523 15.1158 19.3523 16.1379C19.3519 16.1697 19.3452 16.2011 19.3326 16.2303C19.32 16.2595 19.3018 16.2859 19.279 16.3081C19.2563 16.3302 19.2293 16.3477 19.1998 16.3595C19.1702 16.3712 19.1387 16.377 19.1069 16.3766C18.2572 16.3894 17.4095 16.2911 16.5853 16.0841C16.5537 16.075 16.5243 16.0595 16.4989 16.0386C16.4736 16.0176 16.4529 15.9916 16.438 15.9623C16.4232 15.9329 16.4146 15.9008 16.4127 15.868C16.4109 15.8351 16.4159 15.8023 16.4273 15.7714C16.5327 15.489 16.6656 15.2176 16.824 14.9612Z" fill="white"/>
<path d="M24.708 15.3008C24.8529 15.177 24.9868 15.0409 25.1081 14.8939C25.1444 14.85 25.1643 14.7947 25.1643 14.7376C25.1643 14.6805 25.1444 14.6253 25.1081 14.5813C24.5829 14.0145 23.9685 13.5375 23.2892 13.1692C22.953 12.9809 22.8824 12.9372 22.8454 12.9809C22.8084 13.0246 22.9194 13.1188 23.1379 13.3575C23.2657 13.4987 23.3934 13.6433 23.4741 13.7576C23.8206 14.2044 24.1087 14.6936 24.3314 15.2133C24.3466 15.2476 24.3696 15.2778 24.3985 15.3017C24.4274 15.3256 24.4614 15.3424 24.4979 15.3509C24.5344 15.3594 24.5724 15.3592 24.6089 15.3505C24.6453 15.3418 24.6792 15.3248 24.708 15.3008Z" fill="white"/>
<path d="M25.7367 15.8756C25.4975 16.114 25.2325 16.3248 24.9466 16.5044C24.9039 16.5307 24.8707 16.5701 24.852 16.6167C24.8332 16.6633 24.8299 16.7146 24.8424 16.7632C24.9063 17.0188 24.9634 17.2743 25.0172 17.5331C25.3515 18.8955 25.4053 20.3116 25.1752 21.6954C25.1652 21.7834 25.1779 21.8726 25.2122 21.9543C25.239 22.0311 25.2928 22.0956 25.3635 22.1358C25.5148 22.23 25.7703 22.4115 26.1099 22.667C26.1391 22.6882 26.1726 22.7025 26.208 22.709C26.2434 22.7156 26.2799 22.7141 26.3147 22.7048C26.3495 22.6954 26.3817 22.6784 26.4091 22.655C26.4365 22.6316 26.4583 22.6024 26.473 22.5695C26.8819 21.5961 27.0857 20.5489 27.0719 19.4932C27.058 18.4375 26.8266 17.396 26.3923 16.4338C26.3083 16.2556 26.2141 16.0975 26.1133 15.916C26.0942 15.8847 26.0682 15.8583 26.0373 15.8387C26.0063 15.8191 25.9713 15.8069 25.9349 15.803C25.8985 15.7991 25.8617 15.8036 25.8273 15.8162C25.793 15.8288 25.762 15.8492 25.7367 15.8756Z" fill="white"/>
<path d="M23.427 25.6794C23.306 25.8004 23.1816 25.9125 23.0538 26.0156C22.9462 26.1064 22.9126 26.1366 22.9328 26.1601C22.953 26.1837 23.0168 26.1601 23.1648 26.0895C23.8191 25.7883 24.418 25.3791 24.9366 24.8792C25.1942 24.6257 25.4303 24.3513 25.6426 24.0589C25.6628 24.0346 25.6778 24.0065 25.6869 23.9762C25.6959 23.946 25.6988 23.9143 25.6954 23.8829C25.6919 23.8515 25.6822 23.8212 25.6668 23.7937C25.6514 23.7661 25.6306 23.742 25.6056 23.7226C25.4442 23.5808 25.2747 23.4483 25.098 23.3259C25.0676 23.3039 25.0325 23.2894 24.9955 23.2835C24.9585 23.2776 24.9206 23.2805 24.8849 23.2919C24.8492 23.3034 24.8168 23.3231 24.7901 23.3494C24.7635 23.3758 24.7434 23.408 24.7315 23.4436C24.464 24.2747 24.0189 25.0376 23.427 25.6794Z" fill="white"/>
<path d="M23.5751 22.5527C22.6711 22.2541 21.7292 22.0855 20.7778 22.0518C20.7452 22.0494 20.7125 22.0539 20.6818 22.0649C20.651 22.0759 20.6229 22.0931 20.5992 22.1156C20.5755 22.138 20.5567 22.1652 20.544 22.1953C20.5314 22.2254 20.5251 22.2578 20.5257 22.2905L20.5458 25.8879C20.547 25.9288 20.5585 25.9688 20.5793 26.0041C20.6001 26.0394 20.6295 26.0688 20.6647 26.0897C20.7 26.1105 20.74 26.122 20.7809 26.1232C20.8219 26.1244 20.8625 26.1151 20.8989 26.0963C21.7259 25.6458 22.5395 25.1381 23.0203 24.3581C23.3122 23.8886 23.548 23.3865 23.723 22.862C23.7336 22.832 23.7383 22.8002 23.7366 22.7684C23.7349 22.7366 23.727 22.7054 23.7132 22.6767C23.6995 22.6479 23.6802 22.6222 23.6565 22.6009C23.6328 22.5796 23.6051 22.5633 23.5751 22.5527Z" fill="white"/>
<path d="M24.1499 19.6579C24.112 18.8701 23.9994 18.0877 23.8136 17.3213C23.8068 17.2895 23.7933 17.2595 23.7741 17.2332C23.7549 17.207 23.7304 17.1851 23.7022 17.1689C23.674 17.1527 23.6427 17.1427 23.6103 17.1394C23.578 17.1361 23.5453 17.1396 23.5144 17.1498C22.6108 17.3908 21.6792 17.5106 20.7441 17.5062C20.681 17.5079 20.6212 17.5342 20.5772 17.5794C20.5333 17.6246 20.5087 17.6852 20.5087 17.7482L20.5054 20.6766C20.5053 20.7379 20.5292 20.7967 20.5719 20.8407C20.6146 20.8846 20.6727 20.9102 20.734 20.9119C21.7608 20.9527 22.7779 21.1268 23.7599 21.4297C23.793 21.4409 23.8282 21.4447 23.863 21.4408C23.8977 21.4369 23.9312 21.4254 23.9611 21.4071C23.9909 21.3888 24.0163 21.3642 24.0356 21.335C24.0549 21.3058 24.0675 21.2727 24.0725 21.2381C24.1353 20.7138 24.1611 20.1858 24.1499 19.6579Z" fill="white"/>
<path d="M22.9395 14.9611C22.4032 14.1149 21.6869 13.3975 20.8416 12.8598C20.8052 12.8368 20.7633 12.824 20.7203 12.8228C20.6773 12.8217 20.6348 12.8321 20.5972 12.8532C20.5597 12.8742 20.5285 12.9049 20.507 12.9422C20.4855 12.9795 20.4745 13.0219 20.4751 13.0649C20.4751 14.0892 20.4807 15.1135 20.4919 16.1379C20.4919 16.2012 20.5171 16.2619 20.5618 16.3066C20.6066 16.3514 20.6673 16.3766 20.7306 16.3766C21.5615 16.3892 22.3903 16.2908 23.195 16.0841C23.2263 16.0747 23.2554 16.059 23.2803 16.0378C23.3051 16.0166 23.3253 15.9905 23.3396 15.9611C23.3538 15.9316 23.3618 15.8996 23.3629 15.8669C23.3641 15.8343 23.3584 15.8017 23.3463 15.7714C23.238 15.4884 23.1017 15.217 22.9395 14.9611Z" fill="white"/>
<path d="M16.5348 7.15117C16.5798 7.16553 16.6273 7.17025 16.6742 7.16504C16.7211 7.15983 16.7664 7.14479 16.8072 7.12091L17.6342 6.72418C17.8536 6.64 18.0368 6.48185 18.152 6.27703C18.1983 6.18708 18.2225 6.08738 18.2225 5.98621C18.2225 5.88504 18.1983 5.78534 18.152 5.69539C18.0938 5.55503 17.9844 5.44204 17.846 5.37936C17.728 5.33478 17.5999 5.3243 17.4762 5.3491C17.5553 5.27134 17.6122 5.17383 17.641 5.06668C17.6737 4.93199 17.657 4.79001 17.5939 4.6666C17.5444 4.55138 17.4597 4.45484 17.3518 4.39091C17.2413 4.32897 17.115 4.30091 16.9887 4.31022C16.8297 4.32167 16.6744 4.36392 16.5315 4.43462L15.7246 4.80781C15.6804 4.82497 15.6402 4.85075 15.6061 4.88366C15.5721 4.91656 15.5449 4.95592 15.5262 4.99944C15.5007 5.09072 15.5116 5.18832 15.5565 5.27177L16.3432 6.95281C16.3593 6.99754 16.3847 7.03835 16.4177 7.07254C16.4508 7.10673 16.4907 7.13353 16.5348 7.15117ZM17.3854 5.76599C17.4235 5.778 17.4584 5.79844 17.4875 5.8258C17.5167 5.85316 17.5392 5.88673 17.5535 5.92401C17.5715 5.95883 17.5809 5.99745 17.5809 6.03664C17.5809 6.07583 17.5715 6.11445 17.5535 6.14927C17.5058 6.23279 17.4293 6.29612 17.3384 6.32746L16.8475 6.55944L16.6189 6.05177L17.1098 5.82315C17.1918 5.77161 17.2897 5.75132 17.3854 5.76599ZM16.6189 4.92884C16.7026 4.88169 16.799 4.86172 16.8946 4.87168C16.9304 4.88181 16.9633 4.90015 16.9907 4.92525C17.0181 4.95035 17.0393 4.98151 17.0526 5.01625C17.0689 5.04976 17.0774 5.08656 17.0774 5.12384C17.0774 5.16112 17.0689 5.19792 17.0526 5.23143C16.9993 5.31066 16.9231 5.37167 16.8341 5.40625L16.4037 5.60798L16.1818 5.13056L16.6189 4.92884Z" fill="white"/>
<path d="M19.3152 6.15261C19.5447 6.27138 19.7999 6.33145 20.0583 6.32744C20.1922 6.33031 20.326 6.32131 20.4583 6.30054C20.584 6.28401 20.7078 6.25587 20.8282 6.21649C20.8869 6.1976 20.9378 6.15977 20.9727 6.1089C21.0053 6.05408 21.0217 5.99111 21.0198 5.92735V5.12382C21.0257 5.05184 21.0027 4.98049 20.9559 4.92546C20.9303 4.90174 20.9 4.88354 20.8671 4.87198C20.8341 4.86041 20.7991 4.85573 20.7643 4.85821H20.2297C20.1601 4.85449 20.0913 4.87466 20.0347 4.91537C20.0116 4.93798 19.9937 4.9653 19.9821 4.99546C19.9705 5.02563 19.9655 5.05794 19.9675 5.0902C19.9636 5.12181 19.9674 5.15389 19.9785 5.18374C19.9896 5.21358 20.0077 5.24031 20.0314 5.26166C20.0574 5.28461 20.0878 5.30209 20.1207 5.31307C20.1536 5.32404 20.1884 5.32828 20.223 5.32554H20.4718V5.7189C20.4268 5.73365 20.3807 5.74489 20.3339 5.75252C20.2557 5.76053 20.1768 5.76053 20.0986 5.75252C20.0009 5.75828 19.9031 5.74394 19.8111 5.7104C19.7192 5.67686 19.6351 5.62483 19.564 5.55752C19.4341 5.4007 19.3713 5.19893 19.3892 4.99606C19.397 4.85669 19.4336 4.72045 19.4968 4.59597C19.5481 4.48598 19.6344 4.3961 19.7422 4.34046C19.8722 4.28277 20.0136 4.25519 20.1558 4.25977C20.2452 4.26211 20.3342 4.27337 20.4214 4.29339C20.5014 4.31167 20.5792 4.33873 20.6533 4.37408C20.7098 4.40485 20.7754 4.41439 20.8383 4.40097C20.892 4.38659 20.9393 4.35463 20.9727 4.3102C21.0079 4.26519 21.0311 4.21197 21.04 4.15554C21.0475 4.09951 21.0394 4.04248 21.0164 3.9908C20.9919 3.93648 20.949 3.89248 20.8954 3.8664C20.7794 3.80368 20.6548 3.75837 20.5256 3.73192C20.4039 3.70598 20.2801 3.69135 20.1558 3.68821C19.9538 3.68241 19.7524 3.712 19.5607 3.77563C19.3945 3.83041 19.2412 3.9185 19.1102 4.03451C18.9859 4.1512 18.8884 4.29343 18.8244 4.4514C18.755 4.62577 18.7197 4.81178 18.7202 4.99942C18.7116 5.23248 18.7626 5.46387 18.8681 5.67184C18.9668 5.87249 19.1223 6.03968 19.3152 6.15261Z" fill="white"/>
<path d="M24.1061 5.13393C24.0089 4.91129 23.8276 4.73607 23.6018 4.64643L22.7949 4.26315C22.7555 4.24068 22.712 4.22641 22.6669 4.22121C22.6218 4.21601 22.5762 4.21998 22.5327 4.2329C22.4892 4.24979 22.4497 4.27556 22.4167 4.30855C22.3837 4.34154 22.3579 4.38104 22.341 4.42453L21.514 6.14591C21.4709 6.22762 21.4613 6.32284 21.4871 6.41152C21.5246 6.49396 21.59 6.56047 21.6719 6.59924C21.7537 6.63801 21.8467 6.64655 21.9342 6.62333C21.9759 6.60529 22.0134 6.57901 22.0446 6.54607C22.0758 6.51314 22.1 6.47423 22.1158 6.43169L22.3646 5.91393L22.8756 6.156C23.0875 6.27464 23.3376 6.30484 23.5716 6.24005C23.6791 6.2032 23.7774 6.14357 23.8598 6.06524C23.9422 5.98691 24.0067 5.89172 24.049 5.78617C24.1038 5.68756 24.1371 5.57851 24.147 5.46614C24.1568 5.35376 24.1429 5.24057 24.1061 5.13393ZM23.4841 5.51721C23.467 5.55959 23.4406 5.59759 23.4069 5.62843C23.3731 5.65927 23.3329 5.68215 23.2891 5.6954C23.1877 5.71262 23.0833 5.69484 22.9933 5.64496L22.5898 5.45333L22.8588 4.8616L23.2589 5.05324C23.3555 5.09125 23.4362 5.16127 23.4875 5.2516C23.5065 5.29341 23.516 5.33887 23.5154 5.38478C23.5149 5.43068 23.5042 5.4759 23.4841 5.51721Z" fill="white"/>
<path d="M18.0849 31.7312L17.3116 31.3042C17.2728 31.2774 17.2288 31.2591 17.1825 31.2504C17.1361 31.2417 17.0885 31.2429 17.0426 31.2538C16.9979 31.2687 16.9568 31.2929 16.9221 31.3248C16.8873 31.3566 16.8597 31.3954 16.8409 31.4387L15.9365 33.0626C15.9103 33.1016 15.8925 33.1457 15.8844 33.1921C15.8763 33.2384 15.878 33.2859 15.8894 33.3315C15.9209 33.421 15.986 33.4946 16.071 33.5366L16.8745 33.9804C17.0748 34.1061 17.3121 34.1595 17.5469 34.1317C17.6461 34.1161 17.7403 34.0776 17.822 34.0193C17.9037 33.9609 17.9707 33.8843 18.0176 33.7955C18.097 33.6658 18.1246 33.5109 18.0949 33.3618C18.0606 33.2412 17.9944 33.132 17.9033 33.0458C18.0164 33.0643 18.1323 33.0527 18.2395 33.0121C18.3685 32.9598 18.4746 32.8633 18.5387 32.7398C18.6003 32.6316 18.6284 32.5076 18.6194 32.3834C18.6035 32.2595 18.5522 32.1427 18.4715 32.0472C18.3658 31.9163 18.2342 31.8087 18.0849 31.7312ZM17.4797 33.4391C17.4637 33.4747 17.4395 33.5061 17.4091 33.5306C17.3788 33.5551 17.343 33.5722 17.3049 33.5803C17.2097 33.5885 17.1147 33.5636 17.0359 33.5097L16.5585 33.2475L16.8342 32.7533L17.3082 33.0155C17.3958 33.0555 17.467 33.1243 17.5099 33.2105C17.5227 33.2484 17.5265 33.2887 17.5213 33.3283C17.5161 33.3679 17.5018 33.4058 17.4797 33.4391ZM17.9235 32.5011C17.9073 32.5347 17.8838 32.5642 17.8547 32.5875C17.8256 32.6107 17.7917 32.6272 17.7554 32.6356C17.6588 32.6384 17.5637 32.6114 17.483 32.5583L17.0695 32.3296L17.325 31.869L17.7386 32.101C17.8255 32.1397 17.8983 32.2042 17.947 32.2859C17.9603 32.3211 17.9651 32.3589 17.961 32.3963C17.9569 32.4337 17.9441 32.4696 17.9235 32.5011Z" fill="white"/>
<path d="M21.1545 33.3753C21.1276 33.3528 21.0966 33.3359 21.0631 33.3255C21.0296 33.3151 20.9944 33.3115 20.9595 33.3147L20.425 33.3349C20.3551 33.3337 20.2871 33.3576 20.2333 33.4022C20.2106 33.4255 20.1934 33.4536 20.1829 33.4844C20.1724 33.5152 20.169 33.548 20.1728 33.5804C20.1726 33.612 20.1791 33.6433 20.1919 33.6723C20.2046 33.7012 20.2233 33.7272 20.2468 33.7485C20.303 33.7896 20.3724 33.8087 20.4418 33.8022H20.6939V34.199L20.5561 34.2393C20.4785 34.2554 20.3999 34.2655 20.3207 34.2696C20.2238 34.2799 20.1258 34.2703 20.0328 34.2414C19.9397 34.2124 19.8535 34.1649 19.7795 34.1015C19.6411 33.9519 19.5674 33.7537 19.5744 33.5501C19.5645 33.4067 19.5875 33.263 19.6416 33.1298C19.6862 33.0173 19.7681 32.9236 19.8736 32.8642C19.9993 32.7989 20.1387 32.7643 20.2804 32.7634C20.3687 32.7546 20.4577 32.7546 20.546 32.7634C20.6265 32.7793 20.7054 32.8029 20.7813 32.834C20.8424 32.855 20.9086 32.855 20.9696 32.834C21.0229 32.8169 21.0691 32.7826 21.1007 32.7365C21.1363 32.702 21.1629 32.6592 21.1781 32.6121C21.1849 32.5554 21.1743 32.4979 21.1478 32.4473C21.1199 32.3955 21.0747 32.355 21.0201 32.333C20.901 32.2755 20.7741 32.2359 20.6435 32.2154C20.5201 32.196 20.3952 32.1881 20.2703 32.1918C20.0677 32.1958 19.8673 32.2356 19.6786 32.3095C19.5167 32.3739 19.3693 32.4699 19.2449 32.5919C19.1284 32.7142 19.039 32.8597 18.9826 33.0189C18.9218 33.1972 18.8955 33.3855 18.9053 33.5736C18.908 33.81 18.9717 34.0416 19.0902 34.246C19.2037 34.4369 19.3709 34.5901 19.571 34.6865C19.8055 34.7944 20.0632 34.8418 20.3207 34.8243C20.4553 34.8207 20.5892 34.8049 20.7208 34.7772C20.8446 34.753 20.9661 34.7181 21.0839 34.673C21.1434 34.6535 21.1937 34.6128 21.2251 34.5587C21.2549 34.5019 21.2677 34.4377 21.2621 34.3738L21.2352 33.5703C21.2367 33.5339 21.2302 33.4976 21.2163 33.4639C21.2023 33.4303 21.1813 33.4 21.1545 33.3753Z" fill="white"/>
<path d="M23.2758 31.5462C23.0427 31.5046 22.8025 31.5526 22.6034 31.6807L21.8267 32.1178C21.7854 32.1377 21.7485 32.1659 21.7184 32.2006C21.6884 32.2353 21.6657 32.2757 21.6519 32.3195C21.6415 32.3641 21.6403 32.4104 21.6484 32.4555C21.6564 32.5006 21.6737 32.5436 21.699 32.5818L22.637 34.2628C22.6565 34.3038 22.6842 34.3405 22.7183 34.3705C22.7524 34.4006 22.7922 34.4234 22.8354 34.4376C22.8797 34.4485 22.9259 34.4503 22.971 34.4428C23.0161 34.4353 23.0592 34.4186 23.0976 34.3939C23.1374 34.3737 23.1727 34.3457 23.2016 34.3116C23.2305 34.2776 23.2523 34.2381 23.2657 34.1955C23.2756 34.1507 23.2763 34.1043 23.2676 34.0592C23.259 34.0141 23.2411 33.9713 23.2153 33.9333L22.9329 33.4324L23.4237 33.1567C23.6368 33.0397 23.796 32.8444 23.8675 32.612C23.8979 32.5025 23.9049 32.3879 23.8881 32.2755C23.8713 32.1632 23.8311 32.0556 23.77 31.9598C23.7198 31.8611 23.6501 31.7735 23.5652 31.7024C23.4803 31.6314 23.3818 31.5782 23.2758 31.5462ZM23.2758 32.5549C23.2323 32.649 23.1574 32.725 23.064 32.77L22.674 32.9886L22.3378 32.4204L22.7278 32.2018C22.8135 32.1436 22.9174 32.1185 23.0203 32.1312C23.0646 32.1415 23.1061 32.1616 23.1416 32.1902C23.1772 32.2187 23.2058 32.2549 23.2254 32.296C23.2492 32.331 23.2652 32.3708 23.2721 32.4126C23.2791 32.4544 23.2769 32.4972 23.2657 32.538L23.2758 32.5549Z" fill="white"/>
<defs>
<linearGradient id="paint0_linear_2001_121" x1="38.0623" y1="1.27126" x2="-0.483028" y2="2.05919" gradientUnits="userSpaceOnUse">
<stop stop-color="#39E5B6"/>
<stop offset="1" stop-color="#0499F2"/>
</linearGradient>
</defs>
</svg>
