<svg width="40" height="39" viewBox="0 0 40 39" fill="none" xmlns="http://www.w3.org/2000/svg">
<path d="M34.1658 5.16751C31.5736 2.57536 25.8446 3.85631 19.8333 7.89079C13.8219 3.85631 8.09292 2.57536 5.50077 5.16751C2.90861 7.75967 4.18956 13.4886 8.22404 19.5C4.18956 25.5114 2.90861 31.2404 5.50077 33.8325C8.09292 36.4247 13.8219 35.1437 19.8333 31.1092C25.8446 35.1437 31.5736 36.4247 34.1658 33.8325C36.7579 31.2404 35.477 25.5114 31.4425 19.5C35.477 13.4886 36.7579 7.75967 34.1658 5.16751Z" fill="url(#paint0_linear_2001_2672)"/>
<path d="M24.5739 13.3206H15.0928C14.9145 13.3206 14.7435 13.3914 14.6174 13.5175C14.4913 13.6436 14.4204 13.8146 14.4204 13.993V15.395C14.4204 15.5733 14.4913 15.7443 14.6174 15.8704C14.7435 15.9965 14.9145 16.0674 15.0928 16.0674H24.5739C24.7522 16.0674 24.9232 15.9965 25.0493 15.8704C25.1754 15.7443 25.2463 15.5733 25.2463 15.395V13.993C25.2463 13.8146 25.1754 13.6436 25.0493 13.5175C24.9232 13.3914 24.7522 13.3206 24.5739 13.3206ZM15.8695 15.1294C15.7843 15.1294 15.7011 15.1041 15.6304 15.0568C15.5596 15.0095 15.5044 14.9423 15.4719 14.8637C15.4393 14.7851 15.4308 14.6985 15.4474 14.615C15.464 14.5316 15.505 14.4549 15.5652 14.3947C15.6253 14.3345 15.702 14.2935 15.7855 14.2769C15.869 14.2603 15.9555 14.2688 16.0341 14.3014C16.1128 14.334 16.18 14.3891 16.2273 14.4599C16.2746 14.5307 16.2998 14.6139 16.2998 14.699C16.2998 14.8131 16.2545 14.9226 16.1738 15.0033C16.0931 15.084 15.9836 15.1294 15.8695 15.1294ZM17.5505 15.1294C17.4654 15.1294 17.3822 15.1041 17.3114 15.0568C17.2406 15.0095 17.1855 14.9423 17.1529 14.8637C17.1203 14.7851 17.1118 14.6985 17.1284 14.615C17.145 14.5316 17.186 14.4549 17.2462 14.3947C17.3064 14.3345 17.3831 14.2935 17.4665 14.2769C17.55 14.2603 17.6365 14.2688 17.7152 14.3014C17.7938 14.334 17.861 14.3891 17.9083 14.4599C17.9556 14.5307 17.9808 14.6139 17.9808 14.699C17.9809 14.8103 17.9379 14.9173 17.8608 14.9975C17.7837 15.0778 17.6785 15.125 17.5673 15.1294H17.5505ZM19.2315 15.1294C19.1466 15.1287 19.0637 15.1029 18.9934 15.0552C18.923 15.0075 18.8684 14.9401 18.8363 14.8614C18.8043 14.7827 18.7962 14.6963 18.8132 14.613C18.8302 14.5298 18.8715 14.4534 18.9318 14.3935C18.9921 14.3337 19.0688 14.293 19.1522 14.2767C19.2355 14.2604 19.3219 14.2691 19.4003 14.3018C19.4788 14.3344 19.5458 14.3896 19.5929 14.4603C19.6401 14.531 19.6652 14.614 19.6652 14.699C19.6654 14.8097 19.6228 14.9162 19.5464 14.9964C19.47 15.0765 19.3657 15.1242 19.2551 15.1294H19.2315Z" fill="white"/>
<path d="M24.5739 18.1216H15.0928C14.9145 18.1216 14.7435 18.1924 14.6174 18.3185C14.4913 18.4446 14.4204 18.6157 14.4204 18.794V20.196C14.4204 20.3743 14.4913 20.5453 14.6174 20.6714C14.7435 20.7975 14.9145 20.8684 15.0928 20.8684H24.5739C24.7522 20.8684 24.9232 20.7975 25.0493 20.6714C25.1754 20.5453 25.2463 20.3743 25.2463 20.196V18.7974C25.2467 18.7088 25.2296 18.621 25.1961 18.539C25.1625 18.457 25.113 18.3825 25.0505 18.3197C24.988 18.2569 24.9138 18.2071 24.832 18.1731C24.7502 18.1391 24.6624 18.1216 24.5739 18.1216ZM15.8695 19.9304C15.7834 19.931 15.6991 19.9061 15.6273 19.8587C15.5554 19.8113 15.4993 19.7436 15.4661 19.6642C15.4328 19.5848 15.4239 19.4973 15.4406 19.4129C15.4572 19.3284 15.4986 19.2509 15.5594 19.19C15.6203 19.1291 15.6979 19.0878 15.7823 19.0711C15.8668 19.0545 15.9542 19.0634 16.0336 19.0966C16.113 19.1299 16.1807 19.186 16.2281 19.2578C16.2755 19.3297 16.3005 19.414 16.2998 19.5C16.2989 19.6139 16.2533 19.7228 16.1728 19.8034C16.0923 19.8839 15.9833 19.9295 15.8695 19.9304ZM17.5505 19.9304C17.4652 19.9277 17.3826 19.9 17.313 19.8506C17.2434 19.8012 17.1899 19.7324 17.1592 19.6527C17.1286 19.5731 17.1221 19.4862 17.1406 19.4029C17.1591 19.3196 17.2017 19.2436 17.2632 19.1844C17.3247 19.1252 17.4023 19.0855 17.4862 19.0702C17.5702 19.0549 17.6568 19.0647 17.7352 19.0984C17.8136 19.1321 17.8803 19.1882 17.927 19.2596C17.9737 19.3311 17.9983 19.4147 17.9977 19.5C17.9977 19.6142 17.9523 19.7236 17.8716 19.8043C17.7909 19.885 17.6814 19.9304 17.5673 19.9304H17.5505ZM19.2315 19.9304C19.1468 19.9258 19.0652 19.8964 18.997 19.8459C18.9288 19.7953 18.8769 19.7259 18.8477 19.6462C18.8186 19.5665 18.8135 19.4799 18.8331 19.3973C18.8526 19.3147 18.896 19.2397 18.9578 19.1815C19.0196 19.1233 19.0972 19.0845 19.1808 19.07C19.2645 19.0555 19.3505 19.0658 19.4283 19.0997C19.5062 19.1336 19.5723 19.1896 19.6186 19.2608C19.6649 19.332 19.6893 19.4151 19.6888 19.5C19.6879 19.6145 19.6418 19.7239 19.5606 19.8045C19.4793 19.8851 19.3695 19.9304 19.2551 19.9304H19.2315Z" fill="white"/>
<path d="M24.5739 22.9293H15.0928C14.9145 22.9293 14.7435 23.0002 14.6174 23.1263C14.4913 23.2524 14.4204 23.4234 14.4204 23.6017V25.0037C14.4204 25.1821 14.4913 25.3531 14.6174 25.4792C14.7435 25.6053 14.9145 25.6761 15.0928 25.6761H24.5739C24.7522 25.6761 24.9232 25.6053 25.0493 25.4792C25.1754 25.3531 25.2463 25.1821 25.2463 25.0037V23.6051C25.2467 23.5165 25.2296 23.4287 25.1961 23.3467C25.1625 23.2648 25.113 23.1902 25.0505 23.1275C24.988 23.0647 24.9138 23.0148 24.832 22.9808C24.7502 22.9468 24.6624 22.9293 24.5739 22.9293ZM15.8695 24.7348C15.7843 24.7348 15.7011 24.7095 15.6304 24.6622C15.5596 24.6149 15.5044 24.5477 15.4719 24.4691C15.4393 24.3905 15.4308 24.3039 15.4474 24.2205C15.464 24.137 15.505 24.0603 15.5652 24.0001C15.6253 23.9399 15.702 23.8989 15.7855 23.8823C15.869 23.8657 15.9555 23.8743 16.0341 23.9068C16.1128 23.9394 16.18 23.9946 16.2273 24.0653C16.2746 24.1361 16.2998 24.2193 16.2998 24.3044C16.2998 24.4185 16.2545 24.528 16.1738 24.6087C16.0931 24.6894 15.9836 24.7348 15.8695 24.7348ZM17.5505 24.7348C17.4654 24.7348 17.3822 24.7095 17.3114 24.6622C17.2406 24.6149 17.1855 24.5477 17.1529 24.4691C17.1203 24.3905 17.1118 24.3039 17.1284 24.2205C17.145 24.137 17.186 24.0603 17.2462 24.0001C17.3064 23.9399 17.3831 23.8989 17.4665 23.8823C17.55 23.8657 17.6365 23.8743 17.7152 23.9068C17.7938 23.9394 17.861 23.9946 17.9083 24.0653C17.9556 24.1361 17.9808 24.2193 17.9808 24.3044C17.9809 24.4157 17.9379 24.5227 17.8608 24.6029C17.7837 24.6832 17.6785 24.7304 17.5673 24.7348H17.5505ZM19.2315 24.7348C19.1466 24.7341 19.0637 24.7083 18.9934 24.6606C18.923 24.6129 18.8684 24.5455 18.8363 24.4668C18.8043 24.3881 18.7962 24.3017 18.8132 24.2184C18.8302 24.1352 18.8715 24.0588 18.9318 23.9989C18.9921 23.9391 19.0688 23.8984 19.1522 23.8821C19.2356 23.8658 19.3219 23.8745 19.4003 23.9072C19.4788 23.9398 19.5458 23.995 19.5929 24.0657C19.6401 24.1364 19.6652 24.2194 19.6652 24.3044C19.6654 24.4151 19.6228 24.5216 19.5464 24.6018C19.47 24.6819 19.3657 24.7296 19.2551 24.7348H19.2315Z" fill="white"/>
<path d="M24.3083 16.6355H15.3618V17.5601H24.3083V16.6355Z" fill="white"/>
<path d="M24.3083 21.4365H15.3618V22.3645H24.3083V21.4365Z" fill="white"/>
<defs>
<linearGradient id="paint0_linear_2001_2672" x1="35.5122" y1="3.82137" x2="2.35923" y2="4.49908" gradientUnits="userSpaceOnUse">
<stop stop-color="#BD89FF"/>
<stop offset="1" stop-color="#4034CC"/>
</linearGradient>
</defs>
</svg>
