<svg width="39" height="39" viewBox="0 0 39 39" fill="none" xmlns="http://www.w3.org/2000/svg">
<path d="M36.902 18.1248C37.1489 18.2597 37.355 18.4585 37.4986 18.7005C37.6421 18.9424 37.7179 19.2186 37.7179 19.4999C37.7179 19.7813 37.6421 20.0574 37.4986 20.2994C37.355 20.5414 37.1489 20.7402 36.902 20.875C30.1366 24.5743 24.5743 30.1366 20.875 36.902C20.7402 37.1489 20.5414 37.355 20.2994 37.4986C20.0574 37.6421 19.7813 37.7179 19.4999 37.7179C19.2186 37.7179 18.9424 37.6421 18.7005 37.4986C18.4585 37.355 18.2597 37.1489 18.1248 36.902C14.4256 30.1366 8.86328 24.5743 2.09787 20.875C1.85093 20.7402 1.64487 20.5414 1.5013 20.2994C1.35774 20.0574 1.28198 19.7813 1.28198 19.4999C1.28198 19.2186 1.35774 18.9424 1.5013 18.7005C1.64487 18.4585 1.85093 18.2597 2.09787 18.1248C8.86328 14.4256 14.4256 8.86328 18.1248 2.09787C18.2597 1.85093 18.4585 1.64487 18.7005 1.5013C18.9424 1.35774 19.2186 1.28198 19.4999 1.28198C19.7813 1.28198 20.0574 1.35774 20.2994 1.5013C20.5414 1.64487 20.7402 1.85093 20.875 2.09787C24.5743 8.86328 30.1366 14.4256 36.902 18.1248Z" fill="url(#paint0_linear_2001_689)"/>
<path d="M17.3319 22.2557C17.3081 22.1991 17.2644 22.1532 17.209 22.1266C17.1537 22.1 17.0906 22.0945 17.0315 22.1111C16.4924 22.2616 16.2025 22.4677 16.145 22.741C16.1276 22.8436 16.1404 22.9491 16.1818 23.0446C16.2232 23.14 16.2914 23.2215 16.3781 23.2789C16.7669 23.5974 17.6727 23.8315 18.745 23.8314C19.6846 23.8363 20.6157 23.6537 21.4837 23.294C21.5298 23.2743 21.5689 23.2413 21.5961 23.1992C21.6234 23.1572 21.6374 23.1079 21.6365 23.0578C21.6357 23.0077 21.6199 22.959 21.5912 22.918C21.5625 22.8769 21.5223 22.8453 21.4755 22.8271C21.208 22.7233 20.9496 22.5973 20.703 22.4506C20.6492 22.4169 20.5847 22.4047 20.5224 22.4166C19.5414 22.6404 18.5278 22.6835 17.5314 22.5439C17.4537 22.5355 17.3766 22.5231 17.3002 22.5066C17.327 22.4712 17.3441 22.4294 17.3496 22.3854C17.3552 22.3413 17.3491 22.2966 17.3319 22.2557Z" fill="white"/>
<path d="M21.8989 21.2144C21.9004 21.161 21.8849 21.1085 21.8546 21.0645C21.8243 21.0206 21.7809 20.9873 21.7305 20.9696C21.5403 20.901 21.3656 20.7953 21.2167 20.6587C21.1876 20.629 21.1516 20.607 21.112 20.5947C21.0723 20.5824 21.0302 20.5802 20.9895 20.5883C19.7144 20.8675 18.4016 20.9306 17.1057 20.7751C17.0114 20.7678 16.9183 20.7496 16.8282 20.7209C16.8489 20.6977 16.8716 20.6765 16.8962 20.6575C16.9442 20.6217 16.9778 20.5699 16.9911 20.5115C17.0044 20.4531 16.9965 20.3919 16.9688 20.3388C16.941 20.2857 16.8953 20.2442 16.8398 20.2217C16.7842 20.1993 16.7225 20.1974 16.6657 20.2163C15.9224 20.463 15.6026 20.7723 15.7158 21.1354C15.8718 21.635 17.0147 21.9035 18.4295 21.9034C19.5411 21.9032 20.6475 21.7505 21.7176 21.4495C21.7688 21.4345 21.8139 21.4037 21.8465 21.3615C21.8791 21.3192 21.8975 21.2677 21.8989 21.2144Z" fill="white"/>
<path d="M18.9492 14.7192C18.7368 15.393 18.9515 16.1065 19.5875 16.8395C19.6588 16.9116 19.7144 16.9977 19.7508 17.0923C19.7872 17.187 19.8036 17.2881 19.7989 17.3894C19.7554 17.6431 19.6252 17.8737 19.4305 18.042C19.3825 18.0815 19.3509 18.1374 19.3416 18.1989C19.3323 18.2604 19.346 18.3231 19.3802 18.3751C19.4144 18.4271 19.4665 18.4646 19.5267 18.4804C19.5868 18.4963 19.6507 18.4893 19.706 18.4609C19.7506 18.4378 20.8026 17.8864 21.0071 17.0432C21.0503 16.8603 21.0521 16.67 21.0122 16.4863C20.9723 16.3026 20.8918 16.1301 20.7766 15.9816L20.6768 15.8421C20.3426 15.3778 20.1567 15.1004 20.2217 14.7958C20.3232 14.3218 21.0639 13.6988 22.5532 12.8351C22.6057 12.8046 22.6455 12.7562 22.6651 12.6987C22.6848 12.6412 22.6831 12.5786 22.6603 12.5223C22.6375 12.466 22.5951 12.4199 22.541 12.3923C22.4869 12.3648 22.4246 12.3577 22.3657 12.3723C22.2472 12.402 19.4551 13.1163 18.9492 14.7192Z" fill="white"/>
<path d="M23.9014 24.2472C23.9378 24.1254 23.971 23.8186 23.4864 23.6001C23.4325 23.5733 23.3706 23.5676 23.3128 23.584C23.255 23.6005 23.2054 23.638 23.1737 23.6891C23.1421 23.7403 23.1307 23.8014 23.1417 23.8605C23.1528 23.9196 23.1856 23.9725 23.2336 24.0087C23.2329 24.0095 23.1832 24.099 22.8481 24.2006C21.2127 24.6962 16.2763 24.8103 14.7325 24.2871C14.919 24.203 15.1135 24.1379 15.313 24.0927C15.457 24.0579 15.6045 24.0403 15.7526 24.0403C15.8076 24.0447 15.8625 24.0306 15.9087 24.0004C15.9549 23.9702 15.9897 23.9255 16.0078 23.8734C16.0262 23.8215 16.0272 23.765 16.0106 23.7125C15.9939 23.66 15.9605 23.6144 15.9155 23.5827C15.424 23.2366 14.0824 23.6523 13.5433 24.0093C13.236 24.2125 13.105 24.4314 13.1543 24.6597C13.2321 25.0212 13.7305 25.1424 14.099 25.2021C15.4599 25.4227 16.8363 25.5342 18.2149 25.5356C21.3539 25.5355 23.6962 24.9291 23.9014 24.2472Z" fill="white"/>
<path d="M17.344 19.8929C17.4842 19.8957 17.6242 19.8971 17.764 19.8972C19.0539 19.9149 20.3414 19.778 21.5988 19.4894C21.6268 19.4822 21.6532 19.4701 21.677 19.4538C21.879 19.3242 22.091 19.211 22.311 19.1151C22.3679 19.0907 22.4138 19.0463 22.44 18.9902C22.4662 18.9342 22.4709 18.8705 22.4532 18.8112C22.4354 18.7519 22.3965 18.7012 22.3439 18.6687C22.2912 18.6363 22.2284 18.6243 22.1675 18.6351C22.1563 18.6371 21.0479 18.8339 19.9578 18.9257C18.7925 19.041 17.6193 19.0543 16.4516 18.9654C16.3935 18.9575 16.3433 18.9496 16.2999 18.9419C16.6672 18.7959 17.045 18.6779 17.4301 18.5889C17.4888 18.5749 17.5405 18.5404 17.5759 18.4915C17.6114 18.4427 17.6281 18.3827 17.6231 18.3226C17.6181 18.2625 17.5917 18.2061 17.5487 18.1638C17.5056 18.1215 17.4489 18.096 17.3887 18.0919C16.535 18.0833 15.6919 18.2808 14.9308 18.6675C14.5017 18.8751 14.482 19.1094 14.5411 19.2695C14.681 19.6483 15.6239 19.8581 17.344 19.8929Z" fill="white"/>
<path d="M25.027 19.043C24.7938 18.849 24.5126 18.7214 24.2131 18.6735C23.9135 18.6256 23.6066 18.6593 23.3246 18.771C23.176 18.8258 23.0482 18.9254 22.9588 19.0562C22.9304 19.1011 22.9168 19.1539 22.9201 19.207C22.9234 19.26 22.9434 19.3107 22.9772 19.3518C23.011 19.3928 23.0569 19.4222 23.1084 19.4356C23.1599 19.449 23.2143 19.4458 23.2638 19.4265C23.3542 19.3956 23.4467 19.3712 23.5406 19.3535C23.6949 19.3273 23.8536 19.354 23.9908 19.4293C24.128 19.5046 24.2357 19.6241 24.2964 19.7683C24.479 20.2802 23.9103 20.9378 22.7756 21.5275C22.7635 21.5338 22.7518 21.5411 22.7408 21.5493C22.6645 21.6029 22.6105 21.6827 22.5891 21.7734C22.5816 21.8101 22.5823 21.8479 22.5913 21.8842C22.6002 21.9206 22.6171 21.9545 22.6407 21.9834C22.6643 22.0124 22.6941 22.0358 22.7279 22.0519C22.7617 22.0679 22.7986 22.0763 22.836 22.0763C22.8576 22.0762 22.8791 22.0735 22.8999 22.0681C24.8187 21.5638 25.2931 20.7183 25.4054 20.2593C25.4596 20.0413 25.453 19.8127 25.3862 19.5982C25.3195 19.3838 25.1952 19.1918 25.027 19.043Z" fill="white"/>
<path d="M18.6192 17.4437C18.6621 17.4822 18.7169 17.5049 18.7744 17.5079C18.832 17.5109 18.8888 17.4941 18.9355 17.4603C18.9822 17.4265 19.0159 17.3777 19.031 17.3221C19.0461 17.2665 19.0417 17.2073 19.0185 17.1546C18.869 16.8475 18.6903 16.5554 18.485 16.2825C17.8345 15.3563 17.2728 14.5563 18.9453 13.2356C20.1817 12.2591 20.8368 11.2878 20.8919 10.3481C20.9117 10.0962 20.8807 9.8429 20.8008 9.60317C20.721 9.36344 20.5939 9.14216 20.427 8.95242C20.3879 8.91345 20.3372 8.88837 20.2825 8.88103C20.2278 8.87368 20.1722 8.88448 20.1243 8.91175C20.0763 8.93903 20.0386 8.98129 20.017 9.03204C19.9953 9.0828 19.9909 9.13925 20.0045 9.19274C20.3781 10.6653 19.3718 11.4534 18.306 12.2879C17.7459 12.6791 17.2498 13.1548 16.8354 13.698C16.0146 14.9307 17.2107 16.1733 18.6192 17.4437Z" fill="white"/>
<path d="M24.6833 25.0867C24.6267 25.071 24.5663 25.0768 24.5137 25.1029C24.4611 25.1291 24.42 25.1737 24.3983 25.2283C24.3957 25.2323 24.1182 25.6266 22.3699 25.9557C20.1675 26.3303 17.9207 26.365 15.7078 26.0585C15.6531 26.0494 15.597 26.0586 15.548 26.0847C15.4991 26.1108 15.4601 26.1522 15.4371 26.2027C15.4141 26.2531 15.4084 26.3098 15.4208 26.3638C15.4333 26.4178 15.4632 26.4662 15.5059 26.5016C15.5735 26.5574 15.9984 26.8417 17.7444 26.9535C17.7651 26.9548 18.3866 26.9926 19.2551 26.9926C21.315 26.9926 24.7637 26.78 24.8727 25.3644C24.8788 25.3032 24.8632 25.2419 24.8286 25.1911C24.7939 25.1403 24.7425 25.1033 24.6833 25.0867Z" fill="white"/>
<defs>
<linearGradient id="paint0_linear_2001_689" x1="37.7179" y1="1.28236" x2="-0.803768" y2="2.06982" gradientUnits="userSpaceOnUse">
<stop stop-color="#36DBFF"/>
<stop offset="1" stop-color="#6673FF"/>
</linearGradient>
</defs>
</svg>
