<svg width="40" height="39" viewBox="0 0 40 39" fill="none" xmlns="http://www.w3.org/2000/svg">
<path d="M5.83426 33.8325C8.42642 36.4247 14.1554 35.1437 20.1668 31.1092C26.1781 35.1437 31.9071 36.4247 34.4993 33.8325C37.0914 31.2404 35.8105 25.5114 31.776 19.5C35.8105 13.4886 37.0914 7.75967 34.4993 5.16751C31.9071 2.57536 26.1781 3.85631 20.1668 7.89079C14.1554 3.85631 8.42642 2.57536 5.83426 5.16751C3.24211 7.75967 4.52306 13.4886 8.55754 19.5C4.52306 25.5114 3.24211 31.2404 5.83426 33.8325Z" fill="url(#paint0_linear_2001_557)"/>
<path d="M20.5602 26.1535C20.3753 23.7833 20.2609 21.2617 20.2475 18.609C20.234 15.9564 20.3248 13.4281 20.4828 11.0478H20.4492C20.4046 11.0471 20.3609 11.06 20.3237 11.0845C20.2866 11.1091 20.2576 11.1443 20.2408 11.1856C20.0477 11.6457 19.7369 12.0469 19.3397 12.3489C18.354 13.0926 17.5198 14.0181 16.8821 15.0755C16.1424 16.3128 14.6093 19.5471 16.3273 22.8083C17.0769 24.1647 18.1915 25.284 19.5448 26.0392C19.6299 26.0865 19.7201 26.1237 19.8138 26.1502V26.2611C19.8138 26.9335 19.7062 27.6967 19.8743 28.3725C19.8912 28.4203 19.9227 28.4616 19.9643 28.4905C20.0059 28.5195 20.0556 28.5347 20.1063 28.5339C20.4728 28.5641 20.7787 28.4196 20.7585 28.0632C20.7585 27.6228 20.6678 27.1722 20.624 26.7184L20.5602 26.1535Z" fill="white"/>
<path d="M21.5116 13.4987C22.3254 14.2436 22.9599 15.1632 23.3675 16.1883C24.5509 18.841 24.5005 21.3424 23.2229 23.2487C22.8418 23.8024 22.378 24.2945 21.8478 24.7078C21.7762 24.7653 21.6902 24.802 21.5992 24.8139C21.5082 24.8258 21.4156 24.8125 21.3316 24.7754C21.2477 24.7382 21.1755 24.6787 21.1231 24.6034C21.0706 24.528 21.0399 24.4397 21.0342 24.3481C20.9031 22.4351 20.8392 20.5086 20.8392 18.6057C20.8392 17.0961 20.8594 15.5798 20.9165 14.0534C20.9165 13.687 20.9165 13.4146 21.1082 13.381C21.1798 13.3617 21.2553 13.3624 21.3264 13.3832C21.3976 13.4039 21.4617 13.4439 21.5116 13.4987ZM20.503 11.0477C20.345 13.4281 20.2542 15.953 20.2677 18.609C20.2811 21.2651 20.3954 23.7832 20.5803 26.1535C20.6569 26.1314 20.7312 26.1021 20.8022 26.0661C21.9686 25.4948 22.9697 24.6349 23.7104 23.5681C25.1057 21.5038 25.1763 18.8007 23.9054 15.9563C23.353 14.7515 22.5641 13.6699 21.5856 12.7758C21.2934 12.5035 21.0639 12.1708 20.9132 11.8008L20.6577 11.1755C20.642 11.1419 20.618 11.1129 20.588 11.0911C20.558 11.0694 20.523 11.0556 20.4862 11.0511L20.503 11.0477Z" fill="white"/>
<defs>
<linearGradient id="paint0_linear_2001_557" x1="35.8457" y1="3.82137" x2="2.69273" y2="4.49908" gradientUnits="userSpaceOnUse">
<stop stop-color="#F99AB8"/>
<stop offset="1" stop-color="#9C6CEF"/>
</linearGradient>
</defs>
</svg>
